G75*
G70*
%OFA0B0*%
%FSLAX24Y24*%
%IPPOS*%
%LPD*%
%AMOC8*
5,1,8,0,0,1.08239X$1,22.5*
%
%ADD10R,0.0198X0.0434*%
%ADD11R,0.0434X0.0198*%
%ADD12R,0.2049X0.2049*%
%ADD13C,0.0640*%
%ADD14OC8,0.0640*%
%ADD15R,0.0198X0.0828*%
%ADD16C,0.0592*%
%ADD17R,0.0513X0.0474*%
%ADD18R,0.0474X0.0513*%
%ADD19R,0.0907X0.2285*%
%ADD20R,0.0710X0.1143*%
%ADD21R,0.1464X0.1464*%
%ADD22C,0.1464*%
%ADD23C,0.1661*%
%ADD24C,0.0674*%
%ADD25R,0.0560X0.0960*%
%ADD26R,0.1497X0.0946*%
%ADD27OC8,0.0600*%
%ADD28C,0.0340*%
%ADD29C,0.0360*%
D10*
X010815Y008407D03*
X011012Y008407D03*
X011209Y008407D03*
X011406Y008407D03*
X011602Y008407D03*
X011799Y008407D03*
X011996Y008407D03*
X012193Y008407D03*
X012390Y008407D03*
X012587Y008407D03*
X012783Y008407D03*
X012980Y008407D03*
X013177Y008407D03*
X013374Y008407D03*
X013571Y008407D03*
X013768Y008407D03*
X013768Y012856D03*
X013571Y012856D03*
X013374Y012856D03*
X013177Y012856D03*
X012980Y012856D03*
X012783Y012856D03*
X012587Y012856D03*
X012390Y012856D03*
X012193Y012856D03*
X011996Y012856D03*
X011799Y012856D03*
X011602Y012856D03*
X011406Y012856D03*
X011209Y012856D03*
X011012Y012856D03*
X010815Y012856D03*
D11*
X010067Y012108D03*
X010067Y011911D03*
X010067Y011714D03*
X010067Y011517D03*
X010067Y011320D03*
X010067Y011123D03*
X010067Y010926D03*
X010067Y010730D03*
X010067Y010533D03*
X010067Y010336D03*
X010067Y010139D03*
X010067Y009942D03*
X010067Y009745D03*
X010067Y009549D03*
X010067Y009352D03*
X010067Y009155D03*
X014516Y009155D03*
X014516Y009352D03*
X014516Y009549D03*
X014516Y009745D03*
X014516Y009942D03*
X014516Y010139D03*
X014516Y010336D03*
X014516Y010533D03*
X014516Y010730D03*
X014516Y010926D03*
X014516Y011123D03*
X014516Y011320D03*
X014516Y011517D03*
X014516Y011714D03*
X014516Y011911D03*
X014516Y012108D03*
D12*
X012291Y010631D03*
D13*
X001631Y001791D03*
D14*
X002631Y001791D03*
X002631Y002791D03*
X001631Y002791D03*
X001631Y003791D03*
X002631Y003791D03*
X002631Y004791D03*
X001631Y004791D03*
X001631Y005791D03*
X002631Y005791D03*
X002631Y006791D03*
X001631Y006791D03*
X001631Y007791D03*
X002631Y007791D03*
X002631Y008791D03*
X001631Y008791D03*
X001631Y009791D03*
X002631Y009791D03*
X002631Y010791D03*
X001631Y010791D03*
X001631Y011791D03*
X002631Y011791D03*
X002631Y012791D03*
X001631Y012791D03*
X001631Y013791D03*
X002631Y013791D03*
X002631Y014791D03*
X001631Y014791D03*
X001631Y015791D03*
X002631Y015791D03*
X002631Y016791D03*
X001631Y016791D03*
X001631Y017791D03*
X002631Y017791D03*
X002631Y018791D03*
X001631Y018791D03*
X001631Y019791D03*
X002631Y019791D03*
X002631Y020791D03*
X001631Y020791D03*
D15*
X013721Y018991D03*
X013918Y018991D03*
X014115Y018991D03*
X014312Y018991D03*
X014509Y018991D03*
X014706Y018991D03*
X014902Y018991D03*
X015099Y018991D03*
X015296Y018991D03*
X015493Y018991D03*
X015690Y018991D03*
X015887Y018991D03*
X016083Y018991D03*
X016280Y018991D03*
X016477Y018991D03*
X016674Y018991D03*
X016871Y018991D03*
X017068Y018991D03*
X017265Y018991D03*
D16*
X018446Y019365D03*
X018682Y021314D03*
X012501Y021314D03*
X012737Y019365D03*
D17*
X017171Y016726D03*
X017171Y016057D03*
X009391Y015346D03*
X009391Y014677D03*
X008431Y014717D03*
X008431Y015386D03*
X008851Y004906D03*
X008851Y004237D03*
X007931Y004237D03*
X007931Y004906D03*
X007031Y004886D03*
X007031Y004217D03*
X009791Y004197D03*
X010691Y004177D03*
X010691Y004846D03*
X009791Y004866D03*
X011591Y004886D03*
X011591Y004217D03*
X012491Y004197D03*
X013411Y004217D03*
X013411Y004886D03*
X012491Y004866D03*
X014351Y004846D03*
X014351Y004177D03*
X015271Y004157D03*
X016171Y004157D03*
X016171Y004826D03*
X015271Y004826D03*
X017131Y004826D03*
X017131Y004157D03*
X018251Y003246D03*
X018251Y002577D03*
X025331Y003197D03*
X025331Y003866D03*
X030131Y003786D03*
X030131Y003117D03*
D18*
X010726Y018311D03*
X010057Y018311D03*
X010097Y019391D03*
X010766Y019391D03*
X010746Y020411D03*
X010077Y020411D03*
X010117Y021431D03*
X010786Y021431D03*
X006566Y015311D03*
X005897Y015311D03*
X005917Y014411D03*
X006586Y014411D03*
X006606Y013511D03*
X005937Y013511D03*
X005957Y012611D03*
X006626Y012611D03*
X006646Y011711D03*
X005977Y011711D03*
X005997Y010811D03*
X006666Y010811D03*
X006686Y009911D03*
X006017Y009911D03*
X006037Y009011D03*
X006706Y009011D03*
X006726Y008111D03*
X006057Y008111D03*
X006077Y007211D03*
X006746Y007211D03*
X006866Y001631D03*
X006197Y001631D03*
X020077Y018731D03*
X020746Y018731D03*
X020766Y019691D03*
X020097Y019691D03*
X020157Y020651D03*
X020826Y020651D03*
X020846Y021611D03*
X020177Y021611D03*
D19*
X016891Y012981D03*
X016891Y009241D03*
D20*
X018760Y009111D03*
X019863Y009111D03*
X019903Y012951D03*
X018800Y012951D03*
D21*
X026951Y019311D03*
D22*
X028880Y017933D03*
D23*
X026951Y016949D03*
D24*
X026746Y003531D03*
X028517Y003531D03*
X028517Y000972D03*
X026746Y000972D03*
D25*
X026221Y012771D03*
X025311Y012771D03*
X024401Y012771D03*
X029221Y012671D03*
X030131Y012671D03*
X031041Y012671D03*
D26*
X030131Y010231D03*
X025311Y010331D03*
D27*
X025271Y007151D03*
X025271Y006151D03*
X030131Y006131D03*
X030131Y007131D03*
D28*
X028011Y009091D03*
X028311Y010291D03*
X028611Y012751D03*
X026691Y012751D03*
X023751Y012631D03*
X022311Y013171D03*
X021021Y013231D03*
X020451Y012931D03*
X019191Y014671D03*
X017871Y015751D03*
X016911Y015631D03*
X016911Y015091D03*
X016251Y015331D03*
X015171Y014791D03*
X014691Y014551D03*
X014631Y014191D03*
X015411Y014491D03*
X016011Y014371D03*
X015531Y013471D03*
X015531Y012511D03*
X015111Y012151D03*
X014091Y012091D03*
X013791Y011791D03*
X013491Y011431D03*
X013491Y011071D03*
X013491Y010711D03*
X013791Y010591D03*
X013491Y010351D03*
X014091Y010291D03*
X013911Y009571D03*
X013071Y008971D03*
X012111Y008971D03*
X010791Y008971D03*
X010671Y009991D03*
X010671Y010831D03*
X012111Y011851D03*
X012171Y012331D03*
X013071Y012331D03*
X013731Y012331D03*
X011091Y012271D03*
X010671Y012331D03*
X009531Y013711D03*
X008211Y013231D03*
X007791Y011791D03*
X007791Y010831D03*
X007851Y009691D03*
X007851Y008731D03*
X005991Y010351D03*
X005451Y010951D03*
X006231Y011251D03*
X005091Y010291D03*
X003831Y010591D03*
X003471Y009631D03*
X004311Y008251D03*
X001971Y008131D03*
X004131Y005131D03*
X006591Y004231D03*
X006471Y003151D03*
X007251Y002371D03*
X009051Y003151D03*
X009291Y002911D03*
X011091Y001891D03*
X012531Y002371D03*
X014451Y002371D03*
X014451Y001471D03*
X017451Y002551D03*
X020211Y004171D03*
X020811Y004891D03*
X022311Y004591D03*
X019071Y004531D03*
X017331Y005431D03*
X016431Y006451D03*
X017091Y006811D03*
X017451Y007111D03*
X017391Y007531D03*
X018351Y008251D03*
X020391Y009151D03*
X018231Y010531D03*
X015111Y010291D03*
X013551Y008011D03*
X014511Y007411D03*
X014871Y007891D03*
X015171Y007111D03*
X015411Y006211D03*
X013671Y006931D03*
X010611Y006631D03*
X008571Y006691D03*
X010251Y004651D03*
X003411Y001891D03*
X005571Y012991D03*
X003471Y016051D03*
X003831Y017431D03*
X003471Y018391D03*
X006231Y017431D03*
X009531Y016171D03*
X011391Y014791D03*
X012051Y018151D03*
X011211Y019351D03*
X013911Y019591D03*
X014391Y019591D03*
X014751Y019591D03*
X015111Y019771D03*
X015411Y019591D03*
X015411Y019951D03*
X017211Y019771D03*
X015591Y018391D03*
X015051Y018151D03*
X014391Y018151D03*
X013971Y018391D03*
X016371Y017371D03*
X017031Y017131D03*
X017391Y017131D03*
X016551Y016531D03*
X017331Y014371D03*
X021021Y015151D03*
X019911Y019231D03*
X019731Y020611D03*
X020151Y021151D03*
X011211Y021391D03*
X022731Y010291D03*
X024111Y009511D03*
X021171Y007531D03*
X025731Y003571D03*
X029811Y002731D03*
X031491Y012691D03*
D29*
X020751Y017671D03*
X010551Y017671D03*
M02*
