G75*
G70*
%OFA0B0*%
%FSLAX24Y24*%
%IPPOS*%
%LPD*%
%AMOC8*
5,1,8,0,0,1.08239X$1,22.5*
%
%ADD10C,0.0560*%
%ADD11OC8,0.0560*%
%ADD12R,0.0394X0.0433*%
%ADD13R,0.0433X0.0394*%
%ADD14R,0.1384X0.1384*%
%ADD15C,0.1384*%
%ADD16C,0.1581*%
%ADD17C,0.0594*%
%ADD18OC8,0.0520*%
%ADD19R,0.0630X0.0709*%
%ADD20C,0.0100*%
%ADD21C,0.0260*%
%ADD22C,0.0120*%
%ADD23C,0.0280*%
D10*
X001631Y001791D03*
D11*
X002631Y001791D03*
X002631Y002791D03*
X001631Y002791D03*
X001631Y003791D03*
X002631Y003791D03*
X002631Y004791D03*
X001631Y004791D03*
X001631Y005791D03*
X002631Y005791D03*
X002631Y006791D03*
X001631Y006791D03*
X001631Y007791D03*
X002631Y007791D03*
X002631Y008791D03*
X001631Y008791D03*
X001631Y009791D03*
X002631Y009791D03*
X002631Y010791D03*
X001631Y010791D03*
X001631Y011791D03*
X002631Y011791D03*
X002631Y012791D03*
X001631Y012791D03*
X001631Y013791D03*
X002631Y013791D03*
X002631Y014791D03*
X001631Y014791D03*
X001631Y015791D03*
X002631Y015791D03*
X002631Y016791D03*
X001631Y016791D03*
X001631Y017791D03*
X002631Y017791D03*
X002631Y018791D03*
X001631Y018791D03*
X001631Y019791D03*
X002631Y019791D03*
X002631Y020791D03*
X001631Y020791D03*
D12*
X009151Y015866D03*
X009151Y015197D03*
X010091Y015197D03*
X010091Y015866D03*
X010991Y014466D03*
X010991Y013797D03*
X012051Y013777D03*
X012051Y014446D03*
X013091Y014486D03*
X013091Y013817D03*
X014031Y013797D03*
X014031Y014466D03*
X018817Y013211D03*
X019486Y013211D03*
X019706Y015131D03*
X019037Y015131D03*
X014091Y007286D03*
X014091Y006617D03*
X013111Y006637D03*
X012151Y006617D03*
X012151Y007286D03*
X013111Y007306D03*
X011151Y007266D03*
X011151Y006597D03*
X010191Y006577D03*
X010191Y007246D03*
X009211Y007266D03*
X009211Y006597D03*
X005566Y006551D03*
X004897Y006551D03*
X004897Y007511D03*
X005566Y007511D03*
X005566Y008471D03*
X004897Y008471D03*
X018671Y005206D03*
X018671Y004537D03*
X021191Y004557D03*
X021191Y005226D03*
D13*
X021191Y006037D03*
X021191Y006706D03*
X022331Y005866D03*
X022331Y005197D03*
X019871Y005157D03*
X019871Y005826D03*
X018671Y006017D03*
X018671Y006686D03*
X016426Y006931D03*
X015757Y006931D03*
X015717Y007911D03*
X016386Y007911D03*
X016366Y008891D03*
X015697Y008891D03*
X015657Y009871D03*
X016326Y009871D03*
X016406Y010891D03*
X015737Y010891D03*
X015717Y011891D03*
X016386Y011891D03*
X015726Y012911D03*
X015057Y012911D03*
X015037Y013891D03*
X015706Y013891D03*
X017797Y014231D03*
X018466Y014231D03*
X018506Y016151D03*
X017837Y016151D03*
X023057Y013231D03*
X023726Y013231D03*
X029837Y013291D03*
X030506Y013291D03*
X008866Y012831D03*
X008197Y012831D03*
X008197Y013751D03*
X008866Y013751D03*
X008886Y011771D03*
X008217Y011771D03*
X008237Y010871D03*
X008906Y010871D03*
X008926Y009971D03*
X008257Y009971D03*
X008257Y009031D03*
X008926Y009031D03*
D14*
X026951Y019311D03*
D15*
X028880Y017933D03*
D16*
X026951Y016949D03*
D17*
X026746Y003531D03*
X028517Y003531D03*
X028517Y000972D03*
X026746Y000972D03*
D18*
X025271Y006151D03*
X025271Y007151D03*
X030131Y007131D03*
X030131Y006131D03*
D19*
X027183Y009091D03*
X026080Y009091D03*
X027220Y011131D03*
X028323Y011131D03*
D20*
X001851Y000991D02*
X001011Y001831D01*
X001011Y013171D01*
X001013Y013218D01*
X001018Y013265D01*
X001028Y013311D01*
X001040Y013356D01*
X001057Y013401D01*
X001076Y013443D01*
X001099Y013484D01*
X001126Y013524D01*
X001155Y013561D01*
X001187Y013595D01*
X001221Y013627D01*
X001258Y013656D01*
X001298Y013683D01*
X001339Y013706D01*
X001381Y013725D01*
X001426Y013742D01*
X001471Y013754D01*
X001517Y013764D01*
X001564Y013769D01*
X001611Y013771D01*
X001631Y013791D01*
X001371Y014371D02*
X001011Y014731D01*
X001011Y017367D01*
X001012Y017367D02*
X001014Y017406D01*
X001019Y017445D01*
X001028Y017483D01*
X001041Y017520D01*
X001056Y017556D01*
X001076Y017590D01*
X001098Y017623D01*
X001123Y017653D01*
X001150Y017680D01*
X001180Y017705D01*
X001213Y017727D01*
X001247Y017747D01*
X001283Y017762D01*
X001320Y017775D01*
X001358Y017784D01*
X001397Y017789D01*
X001436Y017791D01*
X001631Y017791D01*
X001431Y017191D02*
X001191Y016951D01*
X001191Y015224D01*
X001193Y015184D01*
X001198Y015144D01*
X001208Y015106D01*
X001220Y015068D01*
X001236Y015031D01*
X001256Y014996D01*
X001278Y014963D01*
X001304Y014932D01*
X001332Y014904D01*
X001363Y014878D01*
X001396Y014856D01*
X001431Y014836D01*
X001468Y014820D01*
X001506Y014808D01*
X001544Y014798D01*
X001584Y014793D01*
X001624Y014791D01*
X001631Y014791D01*
X001371Y014371D02*
X004191Y014371D01*
X005571Y012991D01*
X005992Y014039D02*
X005990Y014093D01*
X005984Y014146D01*
X005975Y014199D01*
X005962Y014251D01*
X005945Y014302D01*
X005924Y014351D01*
X005900Y014399D01*
X005873Y014446D01*
X005842Y014490D01*
X005808Y014531D01*
X005772Y014571D01*
X005732Y014607D01*
X005691Y014641D01*
X005647Y014672D01*
X005600Y014699D01*
X005552Y014723D01*
X005503Y014744D01*
X005452Y014761D01*
X005400Y014774D01*
X005347Y014783D01*
X005294Y014789D01*
X005240Y014791D01*
X002631Y014791D01*
X002451Y015391D02*
X002119Y015723D01*
X002031Y015935D02*
X002031Y016421D01*
X002029Y016458D01*
X002023Y016494D01*
X002014Y016529D01*
X002001Y016563D01*
X001984Y016596D01*
X001964Y016627D01*
X001941Y016655D01*
X001915Y016681D01*
X001887Y016704D01*
X001856Y016724D01*
X001823Y016741D01*
X001789Y016754D01*
X001754Y016763D01*
X001718Y016769D01*
X001681Y016771D01*
X001671Y016771D01*
X001631Y016791D01*
X001431Y017191D02*
X010431Y017191D01*
X010851Y017611D01*
X016791Y017611D01*
X017031Y017371D01*
X020580Y017371D01*
X019502Y018151D02*
X015051Y018151D01*
X015591Y018391D02*
X019071Y018391D01*
X019911Y019231D01*
X020151Y018800D02*
X020151Y021151D01*
X019731Y020611D02*
X019191Y020071D01*
X015891Y020071D01*
X015411Y019591D01*
X014751Y019591D02*
X014271Y020071D01*
X012531Y020071D01*
X011211Y021391D01*
X011211Y019351D02*
X012171Y018391D01*
X013971Y018391D01*
X014391Y018151D02*
X012051Y018151D01*
X009771Y016171D02*
X009531Y016171D01*
X009471Y016171D01*
X009171Y015871D01*
X009151Y015866D01*
X009771Y016171D02*
X010071Y015871D01*
X010091Y015866D01*
X010091Y015197D02*
X009151Y015197D01*
X010091Y015197D02*
X010131Y015157D01*
X010131Y012571D01*
X010371Y012331D01*
X010671Y012331D01*
X012171Y012331D02*
X012171Y013657D01*
X012051Y013777D01*
X011011Y013777D01*
X010991Y013797D01*
X010991Y014466D02*
X011031Y014491D01*
X011331Y014791D01*
X011391Y014791D01*
X011751Y014791D01*
X012051Y014491D01*
X012051Y014446D01*
X013091Y014486D02*
X013131Y014491D01*
X014031Y014491D01*
X014031Y014466D01*
X014031Y014491D02*
X014091Y014551D01*
X014691Y014551D01*
X015171Y014791D02*
X015171Y016038D01*
X015173Y016094D01*
X015178Y016149D01*
X015187Y016204D01*
X015200Y016259D01*
X015216Y016312D01*
X015236Y016364D01*
X015259Y016415D01*
X015285Y016465D01*
X015315Y016512D01*
X015347Y016557D01*
X015383Y016600D01*
X015421Y016641D01*
X015462Y016679D01*
X015505Y016715D01*
X015550Y016747D01*
X015598Y016777D01*
X015647Y016803D01*
X015698Y016826D01*
X015750Y016846D01*
X015803Y016862D01*
X015858Y016875D01*
X015913Y016884D01*
X015968Y016889D01*
X016024Y016891D01*
X017151Y016891D01*
X017391Y017131D01*
X017031Y017131D02*
X016791Y017371D01*
X016371Y017371D01*
X016551Y016531D02*
X018111Y016531D01*
X018471Y016171D01*
X018506Y016151D01*
X018531Y016111D01*
X018627Y016111D01*
X018665Y016109D01*
X018702Y016104D01*
X018738Y016094D01*
X018774Y016082D01*
X018808Y016066D01*
X018840Y016046D01*
X018871Y016024D01*
X018899Y015999D01*
X018924Y015971D01*
X018946Y015940D01*
X018966Y015908D01*
X018982Y015874D01*
X018994Y015838D01*
X019004Y015802D01*
X019009Y015765D01*
X019011Y015727D01*
X019011Y015151D01*
X019037Y015131D01*
X019191Y014671D02*
X018711Y014191D01*
X018771Y014191D01*
X018771Y013231D01*
X018817Y013211D01*
X018711Y014191D02*
X018471Y014191D01*
X018466Y014231D01*
X018411Y014251D01*
X018051Y014611D01*
X016251Y014611D01*
X016011Y014371D01*
X015706Y013891D02*
X015651Y013891D01*
X015651Y013591D01*
X015531Y013471D01*
X015726Y012911D02*
X015711Y012871D01*
X015711Y012691D01*
X015531Y012511D01*
X015651Y012571D01*
X015711Y012571D01*
X016371Y011911D01*
X016386Y011891D01*
X016431Y011851D01*
X016431Y010891D01*
X016406Y010891D01*
X015737Y010891D02*
X015617Y011011D01*
X015617Y011791D01*
X015717Y011891D01*
X015617Y011791D02*
X013791Y011791D01*
X014091Y012091D02*
X014151Y012151D01*
X015111Y012151D01*
X014477Y012331D02*
X015057Y012911D01*
X015057Y013871D01*
X015037Y013891D01*
X015411Y014491D02*
X016011Y015091D01*
X016911Y015091D01*
X016911Y015631D02*
X016551Y015631D01*
X016251Y015331D01*
X017331Y014371D02*
X017631Y014371D01*
X017751Y014251D01*
X017797Y014231D01*
X017871Y015751D02*
X017871Y016111D01*
X017837Y016151D01*
X020580Y017371D02*
X020647Y017369D01*
X020713Y017364D01*
X020779Y017354D01*
X020845Y017341D01*
X020910Y017324D01*
X020973Y017304D01*
X021036Y017280D01*
X021097Y017253D01*
X021156Y017222D01*
X021214Y017188D01*
X021269Y017151D01*
X021323Y017111D01*
X021374Y017068D01*
X021422Y017022D01*
X021468Y016974D01*
X021511Y016923D01*
X021551Y016869D01*
X021588Y016814D01*
X021622Y016756D01*
X021653Y016697D01*
X021680Y016636D01*
X021704Y016573D01*
X021724Y016510D01*
X021741Y016445D01*
X021754Y016379D01*
X021764Y016313D01*
X021769Y016247D01*
X021771Y016180D01*
X021771Y005851D01*
X022311Y005851D01*
X022331Y005866D01*
X021771Y005851D02*
X021231Y005851D01*
X021191Y006037D01*
X021231Y006031D01*
X021231Y005851D01*
X021231Y005251D01*
X021191Y005226D01*
X020871Y004891D02*
X020811Y004891D01*
X020871Y004891D02*
X021171Y004591D01*
X021191Y004557D01*
X019871Y005826D02*
X019851Y005851D01*
X018711Y005851D01*
X018671Y006017D01*
X018711Y005971D01*
X018711Y005851D01*
X018711Y005251D01*
X018671Y005206D01*
X018651Y005191D01*
X017691Y004231D01*
X017691Y001825D01*
X017451Y002551D02*
X016611Y001711D01*
X012831Y001711D01*
X012771Y001651D01*
X003291Y001651D01*
X003059Y001884D01*
X003058Y001883D02*
X003053Y001891D01*
X003051Y001901D01*
X003049Y001938D01*
X003043Y001974D01*
X003034Y002009D01*
X003021Y002043D01*
X003004Y002076D01*
X002984Y002107D01*
X002961Y002135D01*
X002935Y002161D01*
X002907Y002184D01*
X002876Y002204D01*
X002843Y002221D01*
X002809Y002234D01*
X002774Y002243D01*
X002738Y002249D01*
X002701Y002251D01*
X001611Y002251D01*
X001191Y002671D01*
X001191Y011441D01*
X001193Y011478D01*
X001199Y011514D01*
X001208Y011549D01*
X001221Y011583D01*
X001238Y011616D01*
X001258Y011647D01*
X001281Y011675D01*
X001307Y011701D01*
X001335Y011724D01*
X001366Y011744D01*
X001399Y011761D01*
X001433Y011774D01*
X001468Y011783D01*
X001504Y011789D01*
X001541Y011791D01*
X001631Y011791D01*
X002631Y011791D02*
X003831Y010591D01*
X004551Y010351D02*
X002091Y010351D01*
X001671Y010771D01*
X001631Y010791D01*
X001631Y009791D02*
X002031Y009391D01*
X003951Y009391D01*
X004851Y008491D01*
X004897Y008471D01*
X005211Y008731D02*
X005211Y006344D01*
X004897Y006551D02*
X004851Y006571D01*
X004071Y007351D01*
X002091Y007351D01*
X001671Y007771D01*
X001631Y007791D01*
X001971Y008131D02*
X002271Y007831D01*
X002631Y007831D01*
X002631Y007791D01*
X002742Y008260D02*
X002714Y008285D01*
X002685Y008307D01*
X002653Y008326D01*
X002619Y008342D01*
X002584Y008355D01*
X002548Y008364D01*
X002511Y008369D01*
X002474Y008371D01*
X002202Y008371D01*
X002013Y008450D02*
X001671Y008791D01*
X001631Y008791D01*
X002012Y008449D02*
X002035Y008429D01*
X002059Y008412D01*
X002086Y008398D01*
X002113Y008386D01*
X002142Y008378D01*
X002172Y008373D01*
X002202Y008371D01*
X002742Y008260D02*
X002928Y008075D01*
X003081Y008011D02*
X004371Y008011D01*
X004851Y007531D01*
X004897Y007511D01*
X005566Y007511D02*
X006771Y006306D01*
X006771Y006091D01*
X009831Y003031D01*
X014271Y003031D01*
X017091Y005851D01*
X017091Y006811D01*
X017451Y007111D02*
X017451Y005911D01*
X014331Y002791D01*
X009771Y002791D01*
X006531Y006031D01*
X006086Y006031D01*
X005566Y006551D01*
X005211Y006344D02*
X005209Y006298D01*
X005203Y006253D01*
X005194Y006208D01*
X005181Y006164D01*
X005164Y006122D01*
X005144Y006081D01*
X005121Y006042D01*
X005094Y006004D01*
X005065Y005969D01*
X005033Y005937D01*
X004998Y005908D01*
X004960Y005881D01*
X004921Y005858D01*
X004880Y005838D01*
X004838Y005821D01*
X004794Y005808D01*
X004749Y005799D01*
X004704Y005793D01*
X004658Y005791D01*
X002631Y005791D01*
X002031Y005391D02*
X002031Y003811D01*
X002451Y003391D01*
X002871Y003391D01*
X003351Y002911D01*
X009291Y002911D01*
X009051Y003151D02*
X008211Y003991D01*
X003411Y003991D01*
X002631Y004771D01*
X002631Y004791D01*
X002031Y005391D02*
X002029Y005430D01*
X002023Y005469D01*
X002014Y005507D01*
X002001Y005544D01*
X001984Y005580D01*
X001964Y005613D01*
X001940Y005645D01*
X001914Y005674D01*
X001885Y005700D01*
X001853Y005724D01*
X001820Y005744D01*
X001784Y005761D01*
X001747Y005774D01*
X001709Y005783D01*
X001670Y005789D01*
X001631Y005791D01*
X004131Y005131D02*
X005691Y005131D01*
X006591Y004231D01*
X005871Y003751D02*
X002631Y003751D01*
X002631Y003791D01*
X002811Y003211D02*
X002091Y003211D01*
X001671Y002791D01*
X001631Y002791D01*
X002631Y002791D02*
X002751Y002791D01*
X003411Y002131D01*
X014211Y002131D01*
X014451Y002371D01*
X014511Y002611D02*
X003411Y002611D01*
X002811Y003211D01*
X003411Y001891D02*
X011091Y001891D01*
X012531Y002371D02*
X007251Y002371D01*
X006471Y003151D02*
X005871Y003751D01*
X002931Y001471D02*
X002631Y001771D01*
X002631Y001791D01*
X002931Y001471D02*
X014451Y001471D01*
X014511Y002611D02*
X017331Y005431D01*
X016431Y006451D02*
X016431Y006931D01*
X016426Y006931D01*
X016371Y006931D01*
X016371Y007891D01*
X016386Y007911D01*
X016371Y007951D01*
X016371Y008851D01*
X016366Y008891D01*
X016311Y008911D01*
X016311Y009871D01*
X016326Y009871D01*
X015697Y009831D02*
X015657Y009871D01*
X015537Y009991D01*
X014031Y009991D01*
X014091Y010291D02*
X014331Y010531D01*
X018231Y010531D01*
X017331Y010291D02*
X018051Y009571D01*
X018051Y008431D01*
X018231Y008251D01*
X018351Y008251D01*
X017391Y007531D02*
X018231Y006691D01*
X018651Y006691D01*
X018671Y006686D01*
X021171Y006726D02*
X021191Y006706D01*
X021171Y006726D02*
X021171Y007531D01*
X017331Y010291D02*
X015111Y010291D01*
X015697Y009831D02*
X015697Y008891D01*
X015717Y007911D02*
X015697Y007891D01*
X015697Y006991D01*
X015757Y006931D01*
X015411Y007231D02*
X015411Y006211D01*
X014511Y006381D02*
X014511Y007411D01*
X014091Y007286D02*
X014071Y007306D01*
X013111Y007306D01*
X013071Y007346D01*
X013071Y008971D01*
X012111Y008971D02*
X012111Y007326D01*
X012151Y007286D01*
X011171Y007286D01*
X011151Y007266D01*
X011151Y006631D02*
X010611Y006631D01*
X010191Y006631D01*
X010191Y006577D01*
X010191Y007246D02*
X009231Y007246D01*
X009211Y007266D01*
X009111Y006691D02*
X008571Y006691D01*
X008691Y006211D02*
X004551Y010351D01*
X005091Y010291D02*
X002631Y012751D01*
X002631Y012791D01*
X002631Y013771D02*
X002631Y013791D01*
X002631Y013771D02*
X005451Y010951D01*
X005991Y010351D02*
X005991Y014039D01*
X006231Y014825D02*
X006231Y011251D01*
X007791Y010831D02*
X008211Y010831D01*
X008237Y010871D01*
X008906Y010871D02*
X008906Y011751D01*
X008886Y011771D01*
X008217Y011771D02*
X008211Y011791D01*
X007791Y011791D01*
X008197Y012831D02*
X008211Y012871D01*
X008211Y013231D01*
X008211Y013711D01*
X008197Y013751D01*
X008866Y013751D02*
X008906Y013711D01*
X008906Y012871D01*
X008866Y012831D01*
X008906Y013711D02*
X009531Y013711D01*
X013071Y013797D02*
X013071Y012331D01*
X013731Y012331D02*
X014477Y012331D01*
X014031Y013797D02*
X014011Y013817D01*
X013091Y013817D01*
X013071Y013797D01*
X010671Y010831D02*
X008946Y010831D01*
X008906Y010871D01*
X008946Y009991D02*
X008926Y009971D01*
X008926Y009031D01*
X008257Y009031D02*
X008211Y009031D01*
X007911Y008731D01*
X007851Y008731D01*
X007851Y009691D02*
X007971Y009691D01*
X008211Y009931D01*
X008257Y009971D01*
X008946Y009991D02*
X010671Y009991D01*
X010791Y008971D02*
X010431Y008971D01*
X010191Y008731D01*
X010191Y007246D01*
X011151Y006631D02*
X011151Y006597D01*
X012151Y006617D02*
X012171Y006631D01*
X013071Y006631D01*
X013111Y006637D01*
X013131Y006691D01*
X013371Y006931D01*
X013671Y006931D01*
X013791Y006931D01*
X014091Y006631D01*
X014091Y006617D01*
X014342Y006211D02*
X014366Y006213D01*
X014390Y006218D01*
X014413Y006226D01*
X014434Y006238D01*
X014453Y006253D01*
X014470Y006270D01*
X014485Y006289D01*
X014497Y006310D01*
X014505Y006333D01*
X014510Y006357D01*
X014512Y006381D01*
X014342Y006211D02*
X008691Y006211D01*
X008631Y006031D02*
X005811Y008851D01*
X005331Y008851D01*
X005211Y008731D01*
X005566Y008471D02*
X007011Y007026D01*
X007011Y006151D01*
X009951Y003211D01*
X014211Y003211D01*
X015171Y004171D01*
X015171Y007111D01*
X015411Y007231D02*
X014991Y007651D01*
X013911Y007651D01*
X013551Y008011D01*
X015051Y007891D02*
X015697Y007891D01*
X018671Y004537D02*
X018711Y004531D01*
X019071Y004531D01*
X017692Y001825D02*
X017690Y001768D01*
X017684Y001711D01*
X017675Y001655D01*
X017661Y001600D01*
X017644Y001546D01*
X017623Y001493D01*
X017598Y001441D01*
X017571Y001392D01*
X017539Y001344D01*
X017505Y001299D01*
X017468Y001256D01*
X017427Y001215D01*
X017384Y001178D01*
X017339Y001144D01*
X017291Y001112D01*
X017242Y001085D01*
X017190Y001060D01*
X017137Y001039D01*
X017083Y001022D01*
X017028Y001008D01*
X016972Y000999D01*
X016915Y000993D01*
X016858Y000991D01*
X001851Y000991D01*
X008631Y006031D02*
X008871Y006031D01*
X010251Y004651D01*
X009211Y006597D02*
X009171Y006631D01*
X009111Y006691D01*
X004311Y008251D02*
X003771Y008791D01*
X002631Y008791D01*
X002928Y008074D02*
X002950Y008056D01*
X002973Y008040D01*
X002998Y008027D01*
X003025Y008018D01*
X003053Y008013D01*
X003081Y008011D01*
X003471Y009631D02*
X003351Y009751D01*
X002631Y009751D01*
X002631Y009791D01*
X006231Y014825D02*
X006229Y014872D01*
X006223Y014918D01*
X006214Y014964D01*
X006200Y015009D01*
X006183Y015052D01*
X006163Y015094D01*
X006139Y015135D01*
X006112Y015173D01*
X006081Y015208D01*
X006048Y015241D01*
X006013Y015272D01*
X005975Y015299D01*
X005934Y015323D01*
X005892Y015343D01*
X005849Y015360D01*
X005804Y015374D01*
X005758Y015383D01*
X005712Y015389D01*
X005665Y015391D01*
X002451Y015391D01*
X002119Y015723D02*
X002096Y015748D01*
X002077Y015775D01*
X002061Y015805D01*
X002048Y015836D01*
X002039Y015868D01*
X002033Y015901D01*
X002031Y015935D01*
X002631Y016771D02*
X002631Y016791D01*
X002631Y016771D02*
X002751Y016771D01*
X003471Y016051D01*
X003831Y017431D02*
X003471Y017791D01*
X002631Y017791D01*
X003471Y018391D02*
X003111Y018751D01*
X002631Y018751D01*
X002631Y018791D01*
X002091Y019231D02*
X001671Y018811D01*
X001631Y018791D01*
X002091Y019231D02*
X004431Y019231D01*
X006231Y017431D01*
X019502Y018151D02*
X019550Y018153D01*
X019599Y018158D01*
X019646Y018167D01*
X019693Y018180D01*
X019739Y018196D01*
X019784Y018215D01*
X019827Y018238D01*
X019868Y018264D01*
X019907Y018293D01*
X019943Y018324D01*
X019978Y018359D01*
X020009Y018395D01*
X020038Y018434D01*
X020064Y018476D01*
X020087Y018518D01*
X020106Y018563D01*
X020122Y018609D01*
X020135Y018656D01*
X020144Y018703D01*
X020149Y018752D01*
X020151Y018800D01*
D21*
X019911Y019231D03*
X019731Y020611D03*
X020151Y021151D03*
X017211Y019771D03*
X015411Y019591D03*
X015111Y019771D03*
X015411Y019951D03*
X014751Y019591D03*
X014391Y019591D03*
X013911Y019591D03*
X013971Y018391D03*
X014391Y018151D03*
X015051Y018151D03*
X015591Y018391D03*
X016371Y017371D03*
X017031Y017131D03*
X017391Y017131D03*
X016551Y016531D03*
X016911Y015631D03*
X016911Y015091D03*
X016251Y015331D03*
X015171Y014791D03*
X014691Y014551D03*
X014631Y014191D03*
X015411Y014491D03*
X016011Y014371D03*
X015531Y013471D03*
X015531Y012511D03*
X015111Y012151D03*
X014091Y012091D03*
X013791Y011791D03*
X013491Y011431D03*
X013491Y011071D03*
X013491Y010711D03*
X013791Y010591D03*
X013491Y010351D03*
X014091Y010291D03*
X013911Y009571D03*
X013071Y008971D03*
X012111Y008971D03*
X010791Y008971D03*
X010671Y009991D03*
X010671Y010831D03*
X012111Y011851D03*
X012171Y012331D03*
X013071Y012331D03*
X013731Y012331D03*
X011091Y012271D03*
X010671Y012331D03*
X009531Y013711D03*
X008211Y013231D03*
X007791Y011791D03*
X007791Y010831D03*
X007851Y009691D03*
X007851Y008731D03*
X005991Y010351D03*
X005451Y010951D03*
X006231Y011251D03*
X005091Y010291D03*
X003831Y010591D03*
X003471Y009631D03*
X004311Y008251D03*
X001971Y008131D03*
X004131Y005131D03*
X006591Y004231D03*
X006471Y003151D03*
X007251Y002371D03*
X009051Y003151D03*
X009291Y002911D03*
X011091Y001891D03*
X012531Y002371D03*
X014451Y002371D03*
X014451Y001471D03*
X017451Y002551D03*
X020211Y004171D03*
X020811Y004891D03*
X022311Y004591D03*
X019071Y004531D03*
X017331Y005431D03*
X016431Y006451D03*
X017091Y006811D03*
X017451Y007111D03*
X017391Y007531D03*
X018351Y008251D03*
X020391Y009151D03*
X018231Y010531D03*
X015111Y010291D03*
X013551Y008011D03*
X014511Y007411D03*
X014871Y007891D03*
X015171Y007111D03*
X015411Y006211D03*
X013671Y006931D03*
X010611Y006631D03*
X008571Y006691D03*
X010251Y004651D03*
X003411Y001891D03*
X005571Y012991D03*
X003471Y016051D03*
X003831Y017431D03*
X003471Y018391D03*
X006231Y017431D03*
X009531Y016171D03*
X011391Y014791D03*
X012051Y018151D03*
X011211Y019351D03*
X011211Y021391D03*
X017871Y015751D03*
X019191Y014671D03*
X017331Y014371D03*
X020451Y012931D03*
X021021Y013231D03*
X022311Y013171D03*
X023751Y012631D03*
X026691Y012751D03*
X028611Y012751D03*
X031491Y012691D03*
X028311Y010291D03*
X028011Y009091D03*
X024111Y009511D03*
X022731Y010291D03*
X021171Y007531D03*
X025731Y003571D03*
X029811Y002731D03*
X021021Y015151D03*
D22*
X019726Y015151D01*
X019706Y015131D01*
X019506Y013231D02*
X021021Y013231D01*
X022311Y013171D02*
X022997Y013171D01*
X023057Y013231D01*
X023726Y013231D02*
X023726Y012657D01*
X023751Y012631D01*
X026691Y012751D02*
X027220Y012222D01*
X027220Y011131D01*
X028311Y011120D02*
X028323Y011131D01*
X028311Y011120D02*
X028311Y010291D01*
X028011Y009091D02*
X027183Y009091D01*
X026080Y009091D02*
X024531Y009091D01*
X024111Y009511D01*
X028611Y012751D02*
X028611Y013051D01*
X028851Y013291D01*
X029837Y013291D01*
X030506Y013291D02*
X031311Y013291D01*
X031491Y013111D01*
X031491Y012691D01*
X022331Y005197D02*
X022311Y005177D01*
X022311Y004591D01*
X020211Y004171D02*
X019871Y004511D01*
X019871Y005157D01*
X015051Y007891D02*
X014871Y007891D01*
X013911Y008851D01*
X013491Y009271D01*
X012411Y009271D01*
X012111Y008971D01*
X011391Y008971D01*
X010671Y009691D01*
X010671Y009991D01*
X011091Y010411D01*
X011091Y012271D01*
X012531Y011851D02*
X011091Y010411D01*
X012531Y011851D02*
X013731Y011851D01*
X013791Y011791D01*
X013791Y010591D01*
X013791Y010231D01*
X014031Y009991D01*
X013911Y009871D01*
X013911Y009571D01*
X013911Y008851D01*
X013791Y011791D02*
X013791Y012271D01*
X013731Y012331D01*
X019486Y013211D02*
X019506Y013231D01*
D23*
X020751Y017671D03*
X010551Y017671D03*
M02*
