G75*
G70*
%OFA0B0*%
%FSLAX24Y24*%
%IPPOS*%
%LPD*%
%AMOC8*
5,1,8,0,0,1.08239X$1,22.5*
%
%ADD10C,0.0560*%
%ADD11C,0.1384*%
%ADD12C,0.1581*%
%ADD13C,0.0594*%
%ADD14C,0.0520*%
%ADD15C,0.0100*%
%ADD16C,0.0260*%
%ADD17C,0.0280*%
D10*
X001631Y001791D03*
X002631Y001791D03*
X002631Y002791D03*
X001631Y002791D03*
X001631Y003791D03*
X002631Y003791D03*
X002631Y004791D03*
X001631Y004791D03*
X001631Y005791D03*
X002631Y005791D03*
X002631Y006791D03*
X001631Y006791D03*
X001631Y007791D03*
X002631Y007791D03*
X002631Y008791D03*
X001631Y008791D03*
X001631Y009791D03*
X002631Y009791D03*
X002631Y010791D03*
X001631Y010791D03*
X001631Y011791D03*
X002631Y011791D03*
X002631Y012791D03*
X001631Y012791D03*
X001631Y013791D03*
X002631Y013791D03*
X002631Y014791D03*
X001631Y014791D03*
X001631Y015791D03*
X002631Y015791D03*
X002631Y016791D03*
X001631Y016791D03*
X001631Y017791D03*
X002631Y017791D03*
X002631Y018791D03*
X001631Y018791D03*
X001631Y019791D03*
X002631Y019791D03*
X002631Y020791D03*
X001631Y020791D03*
D11*
X026951Y019311D03*
X028880Y017933D03*
D12*
X026951Y016949D03*
D13*
X026746Y003531D03*
X028517Y003531D03*
X028517Y000972D03*
X026746Y000972D03*
D14*
X025271Y006151D03*
X025271Y007151D03*
X030131Y007131D03*
X030131Y006131D03*
D15*
X000621Y000601D02*
X000621Y021911D01*
X012100Y021911D01*
X011902Y021714D01*
X011795Y021454D01*
X011795Y021174D01*
X011902Y020914D01*
X012101Y020716D01*
X012360Y020608D01*
X012641Y020608D01*
X012901Y020716D01*
X013099Y020914D01*
X013207Y021174D01*
X013207Y021454D01*
X013099Y021714D01*
X012902Y021911D01*
X018281Y021911D01*
X018083Y021714D01*
X017976Y021454D01*
X017976Y021174D01*
X018083Y020914D01*
X018282Y020716D01*
X018541Y020608D01*
X018822Y020608D01*
X019082Y020716D01*
X019280Y020914D01*
X019388Y021174D01*
X019388Y021454D01*
X019280Y021714D01*
X019083Y021911D01*
X032533Y021911D01*
X032533Y000601D01*
X028779Y000601D01*
X028896Y000719D01*
X028964Y000883D01*
X028964Y000923D01*
X028566Y000923D01*
X028566Y001020D01*
X028964Y001020D01*
X028964Y001061D01*
X028896Y001225D01*
X028770Y001350D01*
X028606Y001418D01*
X028566Y001418D01*
X028566Y001020D01*
X028469Y001020D01*
X028469Y001418D01*
X028428Y001418D01*
X028264Y001350D01*
X028138Y001225D01*
X028070Y001061D01*
X028070Y001020D01*
X028468Y001020D01*
X028468Y000923D01*
X028070Y000923D01*
X028070Y000883D01*
X028138Y000719D01*
X028256Y000601D01*
X026914Y000601D01*
X026976Y000627D01*
X027090Y000741D01*
X027152Y000891D01*
X027152Y001053D01*
X027090Y001202D01*
X026976Y001317D01*
X026826Y001378D01*
X026665Y001378D01*
X026515Y001317D01*
X026401Y001202D01*
X026339Y001053D01*
X026339Y000891D01*
X026401Y000741D01*
X026515Y000627D01*
X026577Y000601D01*
X000621Y000601D01*
X000621Y000644D02*
X026498Y000644D01*
X026400Y000742D02*
X000621Y000742D01*
X000621Y000841D02*
X026359Y000841D01*
X026339Y000940D02*
X000621Y000940D01*
X000621Y001038D02*
X026339Y001038D01*
X026374Y001137D02*
X000621Y001137D01*
X000621Y001235D02*
X014394Y001235D01*
X014404Y001231D02*
X014499Y001231D01*
X014587Y001268D01*
X014655Y001335D01*
X014691Y001423D01*
X014691Y001519D01*
X014655Y001607D01*
X014587Y001675D01*
X014499Y001711D01*
X014404Y001711D01*
X014315Y001675D01*
X014248Y001607D01*
X014211Y001519D01*
X014211Y001423D01*
X014248Y001335D01*
X014315Y001268D01*
X014404Y001231D01*
X014509Y001235D02*
X026434Y001235D01*
X026556Y001334D02*
X014653Y001334D01*
X014691Y001432D02*
X032533Y001432D01*
X032533Y001334D02*
X028787Y001334D01*
X028886Y001235D02*
X032533Y001235D01*
X032533Y001137D02*
X028932Y001137D01*
X028964Y001038D02*
X032533Y001038D01*
X032533Y000940D02*
X028566Y000940D01*
X028468Y000940D02*
X027152Y000940D01*
X027152Y001038D02*
X028070Y001038D01*
X028102Y001137D02*
X027118Y001137D01*
X027057Y001235D02*
X028149Y001235D01*
X028247Y001334D02*
X026935Y001334D01*
X027132Y000841D02*
X028088Y000841D01*
X028128Y000742D02*
X027091Y000742D01*
X026993Y000644D02*
X028213Y000644D01*
X028469Y001038D02*
X028566Y001038D01*
X028566Y001137D02*
X028469Y001137D01*
X028469Y001235D02*
X028566Y001235D01*
X028566Y001334D02*
X028469Y001334D01*
X028947Y000841D02*
X032533Y000841D01*
X032533Y000742D02*
X028906Y000742D01*
X028821Y000644D02*
X032533Y000644D01*
X032533Y001531D02*
X014686Y001531D01*
X014633Y001629D02*
X032533Y001629D01*
X032533Y001728D02*
X011267Y001728D01*
X011295Y001755D02*
X011331Y001843D01*
X011331Y001939D01*
X011295Y002027D01*
X011227Y002095D01*
X011139Y002131D01*
X011044Y002131D01*
X010955Y002095D01*
X010888Y002027D01*
X010851Y001939D01*
X010851Y001843D01*
X010888Y001755D01*
X010955Y001688D01*
X011044Y001651D01*
X011139Y001651D01*
X011227Y001688D01*
X011295Y001755D01*
X011324Y001826D02*
X032533Y001826D01*
X032533Y001925D02*
X011331Y001925D01*
X011296Y002024D02*
X032533Y002024D01*
X032533Y002122D02*
X011161Y002122D01*
X011022Y002122D02*
X003481Y002122D01*
X003459Y002131D02*
X003547Y002095D01*
X003615Y002027D01*
X003651Y001939D01*
X003651Y001843D01*
X003615Y001755D01*
X003547Y001688D01*
X003459Y001651D01*
X003364Y001651D01*
X003275Y001688D01*
X003208Y001755D01*
X003171Y001843D01*
X003171Y001939D01*
X003208Y002027D01*
X003275Y002095D01*
X003364Y002131D01*
X003459Y002131D01*
X003342Y002122D02*
X002852Y002122D01*
X002709Y002181D01*
X002554Y002181D01*
X002410Y002122D01*
X002301Y002012D01*
X002241Y001869D01*
X002241Y001714D01*
X002301Y001570D01*
X002410Y001461D01*
X002554Y001401D01*
X002709Y001401D01*
X002852Y001461D01*
X002962Y001570D01*
X003021Y001714D01*
X003021Y001869D01*
X002962Y002012D01*
X002852Y002122D01*
X002951Y002024D02*
X003206Y002024D01*
X003171Y001925D02*
X002998Y001925D01*
X003021Y001826D02*
X003178Y001826D01*
X003235Y001728D02*
X003021Y001728D01*
X002986Y001629D02*
X014270Y001629D01*
X014216Y001531D02*
X002922Y001531D01*
X002784Y001432D02*
X014211Y001432D01*
X014249Y001334D02*
X000621Y001334D01*
X000621Y001432D02*
X001479Y001432D01*
X001410Y001461D02*
X001554Y001401D01*
X001709Y001401D01*
X001852Y001461D01*
X001962Y001570D01*
X002021Y001714D01*
X002021Y001869D01*
X001962Y002012D01*
X001852Y002122D01*
X001709Y002181D01*
X001554Y002181D01*
X001410Y002122D01*
X001301Y002012D01*
X001241Y001869D01*
X001241Y001714D01*
X001301Y001570D01*
X001410Y001461D01*
X001340Y001531D02*
X000621Y001531D01*
X000621Y001629D02*
X001276Y001629D01*
X001241Y001728D02*
X000621Y001728D01*
X000621Y001826D02*
X001241Y001826D01*
X001265Y001925D02*
X000621Y001925D01*
X000621Y002024D02*
X001312Y002024D01*
X001411Y002122D02*
X000621Y002122D01*
X000621Y002221D02*
X007062Y002221D01*
X007048Y002235D02*
X007115Y002168D01*
X007204Y002131D01*
X007299Y002131D01*
X007387Y002168D01*
X007455Y002235D01*
X007491Y002323D01*
X007491Y002419D01*
X007455Y002507D01*
X007387Y002575D01*
X007299Y002611D01*
X007204Y002611D01*
X007115Y002575D01*
X007048Y002507D01*
X007011Y002419D01*
X007011Y002323D01*
X007048Y002235D01*
X007013Y002319D02*
X000621Y002319D01*
X000621Y002418D02*
X001514Y002418D01*
X001554Y002401D02*
X001709Y002401D01*
X001852Y002461D01*
X001962Y002570D01*
X002021Y002714D01*
X002021Y002869D01*
X001962Y003012D01*
X001852Y003122D01*
X001709Y003181D01*
X001554Y003181D01*
X001410Y003122D01*
X001301Y003012D01*
X001241Y002869D01*
X001241Y002714D01*
X001301Y002570D01*
X001410Y002461D01*
X001554Y002401D01*
X001749Y002418D02*
X002514Y002418D01*
X002554Y002401D02*
X002709Y002401D01*
X002852Y002461D01*
X002962Y002570D01*
X003021Y002714D01*
X003021Y002869D01*
X002962Y003012D01*
X002852Y003122D01*
X002709Y003181D01*
X002554Y003181D01*
X002410Y003122D01*
X002301Y003012D01*
X002241Y002869D01*
X002241Y002714D01*
X002301Y002570D01*
X002410Y002461D01*
X002554Y002401D01*
X002749Y002418D02*
X007011Y002418D01*
X007057Y002516D02*
X002908Y002516D01*
X002980Y002615D02*
X017218Y002615D01*
X017211Y002599D02*
X017211Y002503D01*
X017248Y002415D01*
X017315Y002348D01*
X017404Y002311D01*
X017499Y002311D01*
X017587Y002348D01*
X017655Y002415D01*
X017691Y002503D01*
X017691Y002599D01*
X017655Y002687D01*
X017587Y002755D01*
X017499Y002791D01*
X017404Y002791D01*
X017315Y002755D01*
X017248Y002687D01*
X017211Y002599D01*
X017211Y002516D02*
X014646Y002516D01*
X014655Y002507D02*
X014587Y002575D01*
X014499Y002611D01*
X014404Y002611D01*
X014315Y002575D01*
X014248Y002507D01*
X014211Y002419D01*
X014211Y002323D01*
X014248Y002235D01*
X014315Y002168D01*
X014404Y002131D01*
X014499Y002131D01*
X014587Y002168D01*
X014655Y002235D01*
X014691Y002323D01*
X014691Y002419D01*
X014655Y002507D01*
X014691Y002418D02*
X017247Y002418D01*
X017384Y002319D02*
X014689Y002319D01*
X014640Y002221D02*
X032533Y002221D01*
X032533Y002319D02*
X017518Y002319D01*
X017656Y002418D02*
X032533Y002418D01*
X032533Y002516D02*
X017691Y002516D01*
X017685Y002615D02*
X032533Y002615D01*
X032533Y002713D02*
X017629Y002713D01*
X017274Y002713D02*
X009433Y002713D01*
X009427Y002708D02*
X009495Y002775D01*
X009531Y002863D01*
X009531Y002959D01*
X009495Y003047D01*
X009427Y003115D01*
X009339Y003151D01*
X009291Y003151D01*
X009291Y003199D01*
X009255Y003287D01*
X009187Y003355D01*
X009099Y003391D01*
X009004Y003391D01*
X008915Y003355D01*
X008848Y003287D01*
X008811Y003199D01*
X008811Y003103D01*
X008848Y003015D01*
X008915Y002948D01*
X009004Y002911D01*
X009051Y002911D01*
X009051Y002863D01*
X009088Y002775D01*
X009155Y002708D01*
X009244Y002671D01*
X009339Y002671D01*
X009427Y002708D01*
X009510Y002812D02*
X032533Y002812D01*
X032533Y002910D02*
X009531Y002910D01*
X009511Y003009D02*
X032533Y003009D01*
X032533Y003107D02*
X028663Y003107D01*
X028606Y003084D02*
X028770Y003152D01*
X028896Y003278D01*
X028964Y003442D01*
X028964Y003482D01*
X028566Y003482D01*
X028566Y003579D01*
X028964Y003579D01*
X028964Y003620D01*
X028896Y003784D01*
X028770Y003909D01*
X028606Y003978D01*
X028566Y003978D01*
X028566Y003579D01*
X028469Y003579D01*
X028469Y003978D01*
X028428Y003978D01*
X028264Y003909D01*
X028138Y003784D01*
X028070Y003620D01*
X028070Y003579D01*
X028468Y003579D01*
X028468Y003482D01*
X028070Y003482D01*
X028070Y003442D01*
X028138Y003278D01*
X028264Y003152D01*
X028428Y003084D01*
X028469Y003084D01*
X028469Y003482D01*
X028566Y003482D01*
X028566Y003084D01*
X028606Y003084D01*
X028566Y003107D02*
X028469Y003107D01*
X028371Y003107D02*
X009434Y003107D01*
X009288Y003206D02*
X026495Y003206D01*
X026515Y003186D02*
X026665Y003124D01*
X026826Y003124D01*
X026976Y003186D01*
X027090Y003300D01*
X027152Y003450D01*
X027152Y003612D01*
X027090Y003761D01*
X026976Y003876D01*
X026826Y003938D01*
X026665Y003938D01*
X026515Y003876D01*
X026401Y003761D01*
X026339Y003612D01*
X026339Y003450D01*
X026401Y003300D01*
X026515Y003186D01*
X026399Y003305D02*
X009237Y003305D01*
X008865Y003305D02*
X006657Y003305D01*
X006675Y003287D02*
X006607Y003355D01*
X006519Y003391D01*
X006424Y003391D01*
X006335Y003355D01*
X006268Y003287D01*
X006231Y003199D01*
X006231Y003103D01*
X006268Y003015D01*
X006335Y002948D01*
X006424Y002911D01*
X006519Y002911D01*
X006607Y002948D01*
X006675Y003015D01*
X006711Y003103D01*
X006711Y003199D01*
X006675Y003287D01*
X006708Y003206D02*
X008814Y003206D01*
X008811Y003107D02*
X006711Y003107D01*
X006669Y003009D02*
X008854Y003009D01*
X009051Y002910D02*
X003004Y002910D01*
X003021Y002812D02*
X009073Y002812D01*
X009150Y002713D02*
X003021Y002713D01*
X002963Y003009D02*
X006274Y003009D01*
X006231Y003107D02*
X002867Y003107D01*
X002714Y003403D02*
X026358Y003403D01*
X026339Y003502D02*
X002893Y003502D01*
X002852Y003461D02*
X002962Y003570D01*
X003021Y003714D01*
X003021Y003869D01*
X002962Y004012D01*
X002852Y004122D01*
X002709Y004181D01*
X002554Y004181D01*
X002410Y004122D01*
X002301Y004012D01*
X002241Y003869D01*
X002241Y003714D01*
X002301Y003570D01*
X002410Y003461D01*
X002554Y003401D01*
X002709Y003401D01*
X002852Y003461D01*
X002974Y003600D02*
X026339Y003600D01*
X026375Y003699D02*
X003015Y003699D01*
X003021Y003797D02*
X026437Y003797D01*
X026564Y003896D02*
X003010Y003896D01*
X002969Y003994D02*
X006536Y003994D01*
X006544Y003991D02*
X006639Y003991D01*
X006727Y004028D01*
X006795Y004095D01*
X006831Y004183D01*
X006831Y004279D01*
X006795Y004367D01*
X006727Y004435D01*
X006639Y004471D01*
X006544Y004471D01*
X006455Y004435D01*
X006388Y004367D01*
X006351Y004279D01*
X006351Y004183D01*
X006388Y004095D01*
X006455Y004028D01*
X006544Y003991D01*
X006647Y003994D02*
X020049Y003994D01*
X020075Y003968D02*
X020008Y004035D01*
X019971Y004123D01*
X019971Y004219D01*
X020008Y004307D01*
X020075Y004375D01*
X020164Y004411D01*
X020259Y004411D01*
X020347Y004375D01*
X020415Y004307D01*
X020451Y004219D01*
X020451Y004123D01*
X020415Y004035D01*
X020347Y003968D01*
X020259Y003931D01*
X020164Y003931D01*
X020075Y003968D01*
X019984Y004093D02*
X006792Y004093D01*
X006831Y004191D02*
X019971Y004191D01*
X020001Y004290D02*
X006827Y004290D01*
X006773Y004389D02*
X020109Y004389D01*
X020314Y004389D02*
X022175Y004389D01*
X022175Y004388D02*
X022264Y004351D01*
X022359Y004351D01*
X022447Y004388D01*
X022515Y004455D01*
X022551Y004543D01*
X022551Y004639D01*
X022515Y004727D01*
X022447Y004795D01*
X022359Y004831D01*
X022264Y004831D01*
X022175Y004795D01*
X022108Y004727D01*
X022071Y004639D01*
X022071Y004543D01*
X022108Y004455D01*
X022175Y004388D01*
X022095Y004487D02*
X010427Y004487D01*
X010455Y004515D02*
X010491Y004603D01*
X010491Y004699D01*
X010455Y004787D01*
X010387Y004855D01*
X010299Y004891D01*
X010204Y004891D01*
X010115Y004855D01*
X010048Y004787D01*
X010011Y004699D01*
X010011Y004603D01*
X010048Y004515D01*
X010115Y004448D01*
X010204Y004411D01*
X010299Y004411D01*
X010387Y004448D01*
X010455Y004515D01*
X010484Y004586D02*
X022071Y004586D01*
X022090Y004684D02*
X010491Y004684D01*
X010457Y004783D02*
X022163Y004783D01*
X022459Y004783D02*
X032533Y004783D01*
X032533Y004881D02*
X010323Y004881D01*
X010180Y004881D02*
X003016Y004881D01*
X003021Y004869D02*
X002962Y005012D01*
X002852Y005122D01*
X002709Y005181D01*
X002554Y005181D01*
X002410Y005122D01*
X002301Y005012D01*
X002241Y004869D01*
X002241Y004714D01*
X002301Y004570D01*
X002410Y004461D01*
X002554Y004401D01*
X002709Y004401D01*
X002852Y004461D01*
X002962Y004570D01*
X003021Y004714D01*
X003021Y004869D01*
X003021Y004783D02*
X010046Y004783D01*
X010011Y004684D02*
X003009Y004684D01*
X002968Y004586D02*
X010019Y004586D01*
X010076Y004487D02*
X002879Y004487D01*
X002881Y004093D02*
X006390Y004093D01*
X006351Y004191D02*
X000621Y004191D01*
X000621Y004093D02*
X001382Y004093D01*
X001410Y004122D02*
X001301Y004012D01*
X001241Y003869D01*
X001241Y003714D01*
X001301Y003570D01*
X001410Y003461D01*
X001554Y003401D01*
X001709Y003401D01*
X001852Y003461D01*
X001962Y003570D01*
X002021Y003714D01*
X002021Y003869D01*
X001962Y004012D01*
X001852Y004122D01*
X001709Y004181D01*
X001554Y004181D01*
X001410Y004122D01*
X001293Y003994D02*
X000621Y003994D01*
X000621Y003896D02*
X001253Y003896D01*
X001241Y003797D02*
X000621Y003797D01*
X000621Y003699D02*
X001247Y003699D01*
X001288Y003600D02*
X000621Y003600D01*
X000621Y003502D02*
X001369Y003502D01*
X001549Y003403D02*
X000621Y003403D01*
X000621Y003305D02*
X006285Y003305D01*
X006234Y003206D02*
X000621Y003206D01*
X000621Y003107D02*
X001396Y003107D01*
X001299Y003009D02*
X000621Y003009D01*
X000621Y002910D02*
X001259Y002910D01*
X001241Y002812D02*
X000621Y002812D01*
X000621Y002713D02*
X001241Y002713D01*
X001282Y002615D02*
X000621Y002615D01*
X000621Y002516D02*
X001355Y002516D01*
X001908Y002516D02*
X002355Y002516D01*
X002282Y002615D02*
X001980Y002615D01*
X002021Y002713D02*
X002241Y002713D01*
X002241Y002812D02*
X002021Y002812D01*
X002004Y002910D02*
X002259Y002910D01*
X002299Y003009D02*
X001963Y003009D01*
X001867Y003107D02*
X002396Y003107D01*
X002549Y003403D02*
X001714Y003403D01*
X001893Y003502D02*
X002369Y003502D01*
X002288Y003600D02*
X001974Y003600D01*
X002015Y003699D02*
X002247Y003699D01*
X002241Y003797D02*
X002021Y003797D01*
X002010Y003896D02*
X002253Y003896D01*
X002293Y003994D02*
X001969Y003994D01*
X001881Y004093D02*
X002382Y004093D01*
X002384Y004487D02*
X001879Y004487D01*
X001852Y004461D02*
X001962Y004570D01*
X002021Y004714D01*
X002021Y004869D01*
X001962Y005012D01*
X001852Y005122D01*
X001709Y005181D01*
X001554Y005181D01*
X001410Y005122D01*
X001301Y005012D01*
X001241Y004869D01*
X001241Y004714D01*
X001301Y004570D01*
X001410Y004461D01*
X001554Y004401D01*
X001709Y004401D01*
X001852Y004461D01*
X001968Y004586D02*
X002294Y004586D01*
X002254Y004684D02*
X002009Y004684D01*
X002021Y004783D02*
X002241Y004783D01*
X002247Y004881D02*
X002016Y004881D01*
X001975Y004980D02*
X002287Y004980D01*
X002367Y005078D02*
X001896Y005078D01*
X001719Y005177D02*
X002544Y005177D01*
X002719Y005177D02*
X003891Y005177D01*
X003891Y005179D02*
X003891Y005083D01*
X003928Y004995D01*
X003995Y004928D01*
X004084Y004891D01*
X004179Y004891D01*
X004267Y004928D01*
X004335Y004995D01*
X004371Y005083D01*
X004371Y005179D01*
X004335Y005267D01*
X004267Y005335D01*
X004179Y005371D01*
X004084Y005371D01*
X003995Y005335D01*
X003928Y005267D01*
X003891Y005179D01*
X003893Y005078D02*
X002896Y005078D01*
X002975Y004980D02*
X003943Y004980D01*
X003936Y005275D02*
X000621Y005275D01*
X000621Y005177D02*
X001544Y005177D01*
X001367Y005078D02*
X000621Y005078D01*
X000621Y004980D02*
X001287Y004980D01*
X001247Y004881D02*
X000621Y004881D01*
X000621Y004783D02*
X001241Y004783D01*
X001254Y004684D02*
X000621Y004684D01*
X000621Y004586D02*
X001294Y004586D01*
X001384Y004487D02*
X000621Y004487D01*
X000621Y004389D02*
X006409Y004389D01*
X006356Y004290D02*
X000621Y004290D01*
X000621Y005374D02*
X017095Y005374D01*
X017091Y005383D02*
X017128Y005295D01*
X017195Y005228D01*
X017284Y005191D01*
X017379Y005191D01*
X017467Y005228D01*
X017535Y005295D01*
X017571Y005383D01*
X017571Y005479D01*
X017535Y005567D01*
X017467Y005635D01*
X017379Y005671D01*
X017284Y005671D01*
X017195Y005635D01*
X017128Y005567D01*
X017091Y005479D01*
X017091Y005383D01*
X017091Y005473D02*
X002864Y005473D01*
X002852Y005461D02*
X002962Y005570D01*
X003021Y005714D01*
X003021Y005869D01*
X002962Y006012D01*
X002852Y006122D01*
X002709Y006181D01*
X002554Y006181D01*
X002410Y006122D01*
X002301Y006012D01*
X002241Y005869D01*
X002241Y005714D01*
X002301Y005570D01*
X002410Y005461D01*
X002554Y005401D01*
X002709Y005401D01*
X002852Y005461D01*
X002962Y005571D02*
X017132Y005571D01*
X017280Y005670D02*
X003003Y005670D01*
X003021Y005768D02*
X030041Y005768D01*
X030058Y005761D02*
X030205Y005761D01*
X030341Y005818D01*
X030445Y005922D01*
X030501Y006058D01*
X030501Y006205D01*
X030445Y006341D01*
X030341Y006445D01*
X030205Y006501D01*
X030058Y006501D01*
X029922Y006445D01*
X029818Y006341D01*
X029761Y006205D01*
X029761Y006058D01*
X029818Y005922D01*
X029922Y005818D01*
X030058Y005761D01*
X030222Y005768D02*
X032533Y005768D01*
X032533Y005670D02*
X017383Y005670D01*
X017531Y005571D02*
X032533Y005571D01*
X032533Y005473D02*
X017571Y005473D01*
X017567Y005374D02*
X032533Y005374D01*
X032533Y005275D02*
X017515Y005275D01*
X017148Y005275D02*
X004326Y005275D01*
X004371Y005177D02*
X032533Y005177D01*
X032533Y005078D02*
X004369Y005078D01*
X004319Y004980D02*
X032533Y004980D01*
X032533Y004684D02*
X022533Y004684D01*
X022551Y004586D02*
X032533Y004586D01*
X032533Y004487D02*
X022528Y004487D01*
X022448Y004389D02*
X032533Y004389D01*
X032533Y004290D02*
X020422Y004290D01*
X020451Y004191D02*
X032533Y004191D01*
X032533Y004093D02*
X020439Y004093D01*
X020374Y003994D02*
X032533Y003994D01*
X032533Y003896D02*
X028784Y003896D01*
X028882Y003797D02*
X032533Y003797D01*
X032533Y003699D02*
X028931Y003699D01*
X028964Y003600D02*
X032533Y003600D01*
X032533Y003502D02*
X028566Y003502D01*
X028468Y003502D02*
X027152Y003502D01*
X027152Y003600D02*
X028070Y003600D01*
X028103Y003699D02*
X027116Y003699D01*
X027054Y003797D02*
X028152Y003797D01*
X028250Y003896D02*
X026927Y003896D01*
X027133Y003403D02*
X028086Y003403D01*
X028127Y003305D02*
X027092Y003305D01*
X026996Y003206D02*
X028210Y003206D01*
X028469Y003206D02*
X028566Y003206D01*
X028566Y003305D02*
X028469Y003305D01*
X028469Y003403D02*
X028566Y003403D01*
X028566Y003600D02*
X028469Y003600D01*
X028469Y003699D02*
X028566Y003699D01*
X028566Y003797D02*
X028469Y003797D01*
X028469Y003896D02*
X028566Y003896D01*
X028948Y003403D02*
X032533Y003403D01*
X032533Y003305D02*
X028907Y003305D01*
X028824Y003206D02*
X032533Y003206D01*
X032533Y005867D02*
X030390Y005867D01*
X030463Y005965D02*
X032533Y005965D01*
X032533Y006064D02*
X030501Y006064D01*
X030501Y006162D02*
X032533Y006162D01*
X032533Y006261D02*
X030478Y006261D01*
X030426Y006359D02*
X032533Y006359D01*
X032533Y006458D02*
X030309Y006458D01*
X030205Y006761D02*
X030058Y006761D01*
X029922Y006818D01*
X029818Y006922D01*
X029761Y007058D01*
X029761Y007205D01*
X029818Y007341D01*
X029922Y007445D01*
X030058Y007501D01*
X030205Y007501D01*
X030341Y007445D01*
X030445Y007341D01*
X030501Y007205D01*
X030501Y007058D01*
X030445Y006922D01*
X030341Y006818D01*
X030205Y006761D01*
X030376Y006852D02*
X032533Y006852D01*
X032533Y006754D02*
X017327Y006754D01*
X017331Y006763D02*
X017295Y006675D01*
X017227Y006608D01*
X017139Y006571D01*
X017044Y006571D01*
X016955Y006608D01*
X016888Y006675D01*
X016851Y006763D01*
X016851Y006859D01*
X016888Y006947D01*
X016955Y007015D01*
X017044Y007051D01*
X017139Y007051D01*
X017227Y007015D01*
X017235Y007007D01*
X017211Y007063D01*
X017211Y007159D01*
X017248Y007247D01*
X017307Y007306D01*
X017255Y007328D01*
X017188Y007395D01*
X017151Y007483D01*
X017151Y007579D01*
X017188Y007667D01*
X017255Y007735D01*
X017344Y007771D01*
X017439Y007771D01*
X017527Y007735D01*
X017595Y007667D01*
X017631Y007579D01*
X017631Y007483D01*
X017595Y007395D01*
X017536Y007336D01*
X017587Y007315D01*
X017655Y007247D01*
X017691Y007159D01*
X017691Y007063D01*
X017655Y006975D01*
X017587Y006908D01*
X017499Y006871D01*
X017404Y006871D01*
X017315Y006908D01*
X017308Y006915D01*
X017331Y006859D01*
X017331Y006763D01*
X017331Y006852D02*
X025047Y006852D01*
X025062Y006838D02*
X025198Y006781D01*
X025345Y006781D01*
X025481Y006838D01*
X025585Y006942D01*
X025641Y007078D01*
X025641Y007225D01*
X025585Y007361D01*
X025481Y007465D01*
X025345Y007521D01*
X025198Y007521D01*
X025062Y007465D01*
X024958Y007361D01*
X024901Y007225D01*
X024901Y007078D01*
X024958Y006942D01*
X025062Y006838D01*
X024954Y006951D02*
X017630Y006951D01*
X017685Y007049D02*
X024913Y007049D01*
X024901Y007148D02*
X017691Y007148D01*
X017655Y007246D02*
X024910Y007246D01*
X024951Y007345D02*
X021324Y007345D01*
X021307Y007328D02*
X021375Y007395D01*
X021411Y007483D01*
X021411Y007579D01*
X021375Y007667D01*
X021307Y007735D01*
X021219Y007771D01*
X021124Y007771D01*
X021035Y007735D01*
X020968Y007667D01*
X020931Y007579D01*
X020931Y007483D01*
X020968Y007395D01*
X021035Y007328D01*
X021124Y007291D01*
X021219Y007291D01*
X021307Y007328D01*
X021395Y007443D02*
X025040Y007443D01*
X025502Y007443D02*
X029920Y007443D01*
X029822Y007345D02*
X025592Y007345D01*
X025632Y007246D02*
X029779Y007246D01*
X029761Y007148D02*
X025641Y007148D01*
X025630Y007049D02*
X029765Y007049D01*
X029806Y006951D02*
X025589Y006951D01*
X025496Y006852D02*
X029887Y006852D01*
X030457Y006951D02*
X032533Y006951D01*
X032533Y007049D02*
X030498Y007049D01*
X030501Y007148D02*
X032533Y007148D01*
X032533Y007246D02*
X030484Y007246D01*
X030441Y007345D02*
X032533Y007345D01*
X032533Y007443D02*
X030342Y007443D01*
X029954Y006458D02*
X025488Y006458D01*
X025481Y006465D02*
X025345Y006521D01*
X025198Y006521D01*
X025062Y006465D01*
X024958Y006361D01*
X024901Y006225D01*
X024901Y006078D01*
X024958Y005942D01*
X025062Y005838D01*
X025198Y005781D01*
X025345Y005781D01*
X025481Y005838D01*
X025585Y005942D01*
X025641Y006078D01*
X025641Y006225D01*
X025585Y006361D01*
X025481Y006465D01*
X025586Y006359D02*
X029836Y006359D01*
X029785Y006261D02*
X025626Y006261D01*
X025641Y006162D02*
X029761Y006162D01*
X029761Y006064D02*
X025636Y006064D01*
X025595Y005965D02*
X029800Y005965D01*
X029873Y005867D02*
X025510Y005867D01*
X025033Y005867D02*
X003021Y005867D01*
X002981Y005965D02*
X024948Y005965D01*
X024907Y006064D02*
X015603Y006064D01*
X015615Y006075D02*
X015651Y006163D01*
X015651Y006259D01*
X015615Y006347D01*
X015547Y006415D01*
X015459Y006451D01*
X015364Y006451D01*
X015275Y006415D01*
X015208Y006347D01*
X015171Y006259D01*
X015171Y006163D01*
X015208Y006075D01*
X015275Y006008D01*
X015364Y005971D01*
X015459Y005971D01*
X015547Y006008D01*
X015615Y006075D01*
X015651Y006162D02*
X024901Y006162D01*
X024916Y006261D02*
X015651Y006261D01*
X015602Y006359D02*
X024957Y006359D01*
X025055Y006458D02*
X002906Y006458D01*
X002875Y006427D02*
X002996Y006548D01*
X003061Y006706D01*
X003061Y006751D01*
X002672Y006751D01*
X002672Y006831D01*
X003061Y006831D01*
X003061Y006877D01*
X002996Y007035D01*
X002875Y007156D01*
X002717Y007221D01*
X002671Y007221D01*
X002671Y006831D01*
X002591Y006831D01*
X002591Y006751D01*
X002201Y006751D01*
X002201Y006706D01*
X002267Y006548D01*
X002388Y006427D01*
X002546Y006361D01*
X002591Y006361D01*
X002591Y006751D01*
X002671Y006751D01*
X002671Y006361D01*
X002717Y006361D01*
X002875Y006427D01*
X002999Y006556D02*
X032533Y006556D01*
X032533Y006655D02*
X017275Y006655D01*
X016908Y006655D02*
X003040Y006655D01*
X003061Y006852D02*
X016851Y006852D01*
X016855Y006754D02*
X002672Y006754D01*
X002591Y006754D02*
X002021Y006754D01*
X002021Y006714D02*
X001962Y006570D01*
X001852Y006461D01*
X001709Y006401D01*
X001554Y006401D01*
X001410Y006461D01*
X001301Y006570D01*
X001241Y006714D01*
X001241Y006869D01*
X001301Y007012D01*
X001410Y007122D01*
X001554Y007181D01*
X001709Y007181D01*
X001852Y007122D01*
X001962Y007012D01*
X002021Y006869D01*
X002021Y006714D01*
X001997Y006655D02*
X002222Y006655D01*
X002263Y006556D02*
X001948Y006556D01*
X001846Y006458D02*
X002356Y006458D01*
X002591Y006458D02*
X002671Y006458D01*
X002671Y006556D02*
X002591Y006556D01*
X002591Y006655D02*
X002671Y006655D01*
X002591Y006831D02*
X002201Y006831D01*
X002201Y006877D01*
X002267Y007035D01*
X002388Y007156D01*
X002546Y007221D01*
X002591Y007221D01*
X002591Y006831D01*
X002591Y006852D02*
X002671Y006852D01*
X002671Y006951D02*
X002591Y006951D01*
X002591Y007049D02*
X002671Y007049D01*
X002671Y007148D02*
X002591Y007148D01*
X002380Y007148D02*
X001790Y007148D01*
X001925Y007049D02*
X002281Y007049D01*
X002232Y006951D02*
X001987Y006951D01*
X002021Y006852D02*
X002201Y006852D01*
X002452Y007443D02*
X001811Y007443D01*
X001852Y007461D02*
X001962Y007570D01*
X002021Y007714D01*
X002021Y007869D01*
X002012Y007891D01*
X002019Y007891D01*
X002107Y007928D01*
X002175Y007995D01*
X002211Y008083D01*
X002211Y008179D01*
X002175Y008267D01*
X002107Y008335D01*
X002019Y008371D01*
X001924Y008371D01*
X001835Y008335D01*
X001768Y008267D01*
X001731Y008179D01*
X001731Y008172D01*
X001709Y008181D01*
X001554Y008181D01*
X001410Y008122D01*
X001301Y008012D01*
X001241Y007869D01*
X001241Y007714D01*
X001301Y007570D01*
X001410Y007461D01*
X001554Y007401D01*
X001709Y007401D01*
X001852Y007461D01*
X001934Y007542D02*
X002329Y007542D01*
X002301Y007570D02*
X002410Y007461D01*
X002554Y007401D01*
X002709Y007401D01*
X002852Y007461D01*
X002962Y007570D01*
X003021Y007714D01*
X003021Y007869D01*
X002962Y008012D01*
X002852Y008122D01*
X002709Y008181D01*
X002554Y008181D01*
X002410Y008122D01*
X002301Y008012D01*
X002241Y007869D01*
X002241Y007714D01*
X002301Y007570D01*
X002272Y007640D02*
X001991Y007640D01*
X002021Y007739D02*
X002241Y007739D01*
X002241Y007838D02*
X002021Y007838D01*
X002116Y007936D02*
X002269Y007936D01*
X002323Y008035D02*
X002191Y008035D01*
X002211Y008133D02*
X002438Y008133D01*
X002189Y008232D02*
X004071Y008232D01*
X004071Y008203D02*
X004071Y008299D01*
X004108Y008387D01*
X004175Y008455D01*
X004264Y008491D01*
X004359Y008491D01*
X004447Y008455D01*
X004515Y008387D01*
X004551Y008299D01*
X004551Y008203D01*
X004515Y008115D01*
X004447Y008048D01*
X004359Y008011D01*
X004264Y008011D01*
X004175Y008048D01*
X004108Y008115D01*
X004071Y008203D01*
X004100Y008133D02*
X002825Y008133D01*
X002939Y008035D02*
X004207Y008035D01*
X004416Y008035D02*
X013311Y008035D01*
X013311Y008059D02*
X013311Y007963D01*
X013348Y007875D01*
X013415Y007808D01*
X013504Y007771D01*
X013599Y007771D01*
X013687Y007808D01*
X013755Y007875D01*
X013791Y007963D01*
X013791Y008059D01*
X013755Y008147D01*
X013687Y008215D01*
X013599Y008251D01*
X013504Y008251D01*
X013415Y008215D01*
X013348Y008147D01*
X013311Y008059D01*
X013342Y008133D02*
X004522Y008133D01*
X004551Y008232D02*
X013457Y008232D01*
X013646Y008232D02*
X018111Y008232D01*
X018111Y008203D02*
X018111Y008299D01*
X018148Y008387D01*
X018215Y008455D01*
X018304Y008491D01*
X018399Y008491D01*
X018487Y008455D01*
X018555Y008387D01*
X018591Y008299D01*
X018591Y008203D01*
X018555Y008115D01*
X018487Y008048D01*
X018399Y008011D01*
X018304Y008011D01*
X018215Y008048D01*
X018148Y008115D01*
X018111Y008203D01*
X018140Y008133D02*
X013761Y008133D01*
X013791Y008035D02*
X014675Y008035D01*
X014668Y008027D02*
X014631Y007939D01*
X014631Y007843D01*
X014668Y007755D01*
X014735Y007688D01*
X014824Y007651D01*
X014919Y007651D01*
X015007Y007688D01*
X015075Y007755D01*
X015111Y007843D01*
X015111Y007939D01*
X015075Y008027D01*
X015007Y008095D01*
X014919Y008131D01*
X014824Y008131D01*
X014735Y008095D01*
X014668Y008027D01*
X014631Y007936D02*
X013780Y007936D01*
X013717Y007838D02*
X014634Y007838D01*
X014684Y007739D02*
X003021Y007739D01*
X003021Y007838D02*
X013386Y007838D01*
X013323Y007936D02*
X002993Y007936D01*
X002991Y007640D02*
X014438Y007640D01*
X014464Y007651D02*
X014375Y007615D01*
X014308Y007547D01*
X014271Y007459D01*
X014271Y007363D01*
X014308Y007275D01*
X014375Y007208D01*
X014464Y007171D01*
X014559Y007171D01*
X014647Y007208D01*
X014715Y007275D01*
X014751Y007363D01*
X014751Y007459D01*
X014715Y007547D01*
X014647Y007615D01*
X014559Y007651D01*
X014464Y007651D01*
X014585Y007640D02*
X017177Y007640D01*
X017151Y007542D02*
X014717Y007542D01*
X014751Y007443D02*
X017168Y007443D01*
X017238Y007345D02*
X015234Y007345D01*
X015219Y007351D02*
X015124Y007351D01*
X015035Y007315D01*
X014968Y007247D01*
X014931Y007159D01*
X014931Y007063D01*
X014968Y006975D01*
X015035Y006908D01*
X015124Y006871D01*
X015219Y006871D01*
X015307Y006908D01*
X015375Y006975D01*
X015411Y007063D01*
X015411Y007159D01*
X015375Y007247D01*
X015307Y007315D01*
X015219Y007351D01*
X015108Y007345D02*
X014744Y007345D01*
X014686Y007246D02*
X014968Y007246D01*
X014931Y007148D02*
X002883Y007148D01*
X002981Y007049D02*
X014937Y007049D01*
X014992Y006951D02*
X003031Y006951D01*
X002811Y007443D02*
X014271Y007443D01*
X014279Y007345D02*
X000621Y007345D01*
X000621Y007443D02*
X001452Y007443D01*
X001329Y007542D02*
X000621Y007542D01*
X000621Y007640D02*
X001272Y007640D01*
X001241Y007739D02*
X000621Y007739D01*
X000621Y007838D02*
X001241Y007838D01*
X001269Y007936D02*
X000621Y007936D01*
X000621Y008035D02*
X001323Y008035D01*
X001438Y008133D02*
X000621Y008133D01*
X000621Y008232D02*
X001753Y008232D01*
X001831Y008330D02*
X000621Y008330D01*
X000621Y008429D02*
X001487Y008429D01*
X001554Y008401D02*
X001709Y008401D01*
X001852Y008461D01*
X001962Y008570D01*
X002021Y008714D01*
X002021Y008869D01*
X001962Y009012D01*
X001852Y009122D01*
X001709Y009181D01*
X001554Y009181D01*
X001410Y009122D01*
X001301Y009012D01*
X001241Y008869D01*
X001241Y008714D01*
X001301Y008570D01*
X001410Y008461D01*
X001554Y008401D01*
X001776Y008429D02*
X002487Y008429D01*
X002554Y008401D02*
X002709Y008401D01*
X002852Y008461D01*
X002962Y008570D01*
X003021Y008714D01*
X003021Y008869D01*
X002962Y009012D01*
X002852Y009122D01*
X002709Y009181D01*
X002554Y009181D01*
X002410Y009122D01*
X002301Y009012D01*
X002241Y008869D01*
X002241Y008714D01*
X002301Y008570D01*
X002410Y008461D01*
X002554Y008401D01*
X002776Y008429D02*
X004150Y008429D01*
X004084Y008330D02*
X002112Y008330D01*
X001919Y008527D02*
X002344Y008527D01*
X002278Y008626D02*
X001985Y008626D01*
X002021Y008724D02*
X002241Y008724D01*
X002241Y008823D02*
X002021Y008823D01*
X001999Y008922D02*
X002263Y008922D01*
X002309Y009020D02*
X001954Y009020D01*
X001855Y009119D02*
X002407Y009119D01*
X002522Y009414D02*
X001740Y009414D01*
X001709Y009401D02*
X001852Y009461D01*
X001962Y009570D01*
X002021Y009714D01*
X002021Y009869D01*
X001962Y010012D01*
X001852Y010122D01*
X001709Y010181D01*
X001554Y010181D01*
X001410Y010122D01*
X001301Y010012D01*
X001241Y009869D01*
X001241Y009714D01*
X001301Y009570D01*
X001410Y009461D01*
X001554Y009401D01*
X001709Y009401D01*
X001522Y009414D02*
X000621Y009414D01*
X000621Y009316D02*
X023967Y009316D01*
X023975Y009308D02*
X024064Y009271D01*
X024159Y009271D01*
X024247Y009308D01*
X024315Y009375D01*
X024351Y009463D01*
X024351Y009559D01*
X024315Y009647D01*
X024247Y009715D01*
X024159Y009751D01*
X024064Y009751D01*
X023975Y009715D01*
X023908Y009647D01*
X023871Y009559D01*
X023871Y009463D01*
X023908Y009375D01*
X023975Y009308D01*
X023892Y009414D02*
X014094Y009414D01*
X014115Y009435D02*
X014151Y009523D01*
X014151Y009619D01*
X014115Y009707D01*
X014047Y009775D01*
X013959Y009811D01*
X013864Y009811D01*
X013775Y009775D01*
X013708Y009707D01*
X013671Y009619D01*
X013671Y009523D01*
X013708Y009435D01*
X013775Y009368D01*
X013864Y009331D01*
X013959Y009331D01*
X014047Y009368D01*
X014115Y009435D01*
X014147Y009513D02*
X023871Y009513D01*
X023893Y009611D02*
X014151Y009611D01*
X014112Y009710D02*
X023971Y009710D01*
X024252Y009710D02*
X032533Y009710D01*
X032533Y009808D02*
X013966Y009808D01*
X013857Y009808D02*
X010828Y009808D01*
X010807Y009788D02*
X010875Y009855D01*
X010911Y009943D01*
X010911Y010039D01*
X010875Y010127D01*
X010807Y010195D01*
X010719Y010231D01*
X010624Y010231D01*
X010535Y010195D01*
X010468Y010127D01*
X010431Y010039D01*
X010431Y009943D01*
X010468Y009855D01*
X010535Y009788D01*
X010624Y009751D01*
X010719Y009751D01*
X010807Y009788D01*
X010896Y009907D02*
X032533Y009907D01*
X032533Y010006D02*
X010911Y010006D01*
X010884Y010104D02*
X013939Y010104D01*
X013955Y010088D02*
X013888Y010155D01*
X013851Y010243D01*
X013851Y010339D01*
X013860Y010360D01*
X013839Y010351D01*
X013744Y010351D01*
X013655Y010388D01*
X013588Y010455D01*
X013551Y010543D01*
X013551Y010639D01*
X013588Y010727D01*
X013655Y010795D01*
X013744Y010831D01*
X013839Y010831D01*
X013927Y010795D01*
X013995Y010727D01*
X014031Y010639D01*
X014031Y010543D01*
X014023Y010522D01*
X014044Y010531D01*
X014139Y010531D01*
X014227Y010495D01*
X014295Y010427D01*
X014331Y010339D01*
X014331Y010243D01*
X014295Y010155D01*
X014227Y010088D01*
X014139Y010051D01*
X014044Y010051D01*
X013955Y010088D01*
X013868Y010203D02*
X010788Y010203D01*
X010555Y010203D02*
X006182Y010203D01*
X006195Y010215D02*
X006231Y010303D01*
X006231Y010399D01*
X006195Y010487D01*
X006127Y010555D01*
X006039Y010591D01*
X005944Y010591D01*
X005855Y010555D01*
X005788Y010487D01*
X005751Y010399D01*
X005751Y010303D01*
X005788Y010215D01*
X005855Y010148D01*
X005944Y010111D01*
X006039Y010111D01*
X006127Y010148D01*
X006195Y010215D01*
X006230Y010301D02*
X013851Y010301D01*
X013643Y010400D02*
X006231Y010400D01*
X006184Y010498D02*
X013570Y010498D01*
X013551Y010597D02*
X010733Y010597D01*
X010719Y010591D02*
X010807Y010628D01*
X010875Y010695D01*
X010911Y010783D01*
X010911Y010879D01*
X010875Y010967D01*
X010807Y011035D01*
X010719Y011071D01*
X010624Y011071D01*
X010535Y011035D01*
X010468Y010967D01*
X010431Y010879D01*
X010431Y010783D01*
X010468Y010695D01*
X010535Y010628D01*
X010624Y010591D01*
X010719Y010591D01*
X010610Y010597D02*
X004071Y010597D01*
X004071Y010639D02*
X004035Y010727D01*
X003967Y010795D01*
X003879Y010831D01*
X003784Y010831D01*
X003695Y010795D01*
X003628Y010727D01*
X003591Y010639D01*
X003591Y010543D01*
X003628Y010455D01*
X003695Y010388D01*
X003784Y010351D01*
X003879Y010351D01*
X003967Y010388D01*
X004035Y010455D01*
X004071Y010543D01*
X004071Y010639D01*
X004048Y010695D02*
X010468Y010695D01*
X010431Y010794D02*
X005633Y010794D01*
X005655Y010815D02*
X005691Y010903D01*
X005691Y010999D01*
X005655Y011087D01*
X005587Y011155D01*
X005499Y011191D01*
X005404Y011191D01*
X005315Y011155D01*
X005248Y011087D01*
X005211Y010999D01*
X005211Y010903D01*
X005248Y010815D01*
X005315Y010748D01*
X005404Y010711D01*
X005499Y010711D01*
X005587Y010748D01*
X005655Y010815D01*
X005687Y010892D02*
X010437Y010892D01*
X010492Y010991D02*
X005691Y010991D01*
X005652Y011089D02*
X006054Y011089D01*
X006028Y011115D02*
X006095Y011048D01*
X006184Y011011D01*
X006279Y011011D01*
X006367Y011048D01*
X006435Y011115D01*
X006471Y011203D01*
X006471Y011299D01*
X006435Y011387D01*
X006367Y011455D01*
X006279Y011491D01*
X006184Y011491D01*
X006095Y011455D01*
X006028Y011387D01*
X005991Y011299D01*
X005991Y011203D01*
X006028Y011115D01*
X005998Y011188D02*
X005507Y011188D01*
X005396Y011188D02*
X000621Y011188D01*
X000621Y011089D02*
X001378Y011089D01*
X001410Y011122D02*
X001301Y011012D01*
X001241Y010869D01*
X001241Y010714D01*
X001301Y010570D01*
X001410Y010461D01*
X001554Y010401D01*
X001709Y010401D01*
X001852Y010461D01*
X001962Y010570D01*
X002021Y010714D01*
X002021Y010869D01*
X001962Y011012D01*
X001852Y011122D01*
X001709Y011181D01*
X001554Y011181D01*
X001410Y011122D01*
X001292Y010991D02*
X000621Y010991D01*
X000621Y010892D02*
X001251Y010892D01*
X001241Y010794D02*
X000621Y010794D01*
X000621Y010695D02*
X001249Y010695D01*
X001290Y010597D02*
X000621Y010597D01*
X000621Y010498D02*
X001373Y010498D01*
X001393Y010104D02*
X000621Y010104D01*
X000621Y010006D02*
X001298Y010006D01*
X001257Y009907D02*
X000621Y009907D01*
X000621Y009808D02*
X001241Y009808D01*
X001243Y009710D02*
X000621Y009710D01*
X000621Y009611D02*
X001284Y009611D01*
X001358Y009513D02*
X000621Y009513D01*
X000621Y009217D02*
X032533Y009217D01*
X032533Y009119D02*
X013263Y009119D01*
X013275Y009107D02*
X013207Y009175D01*
X013119Y009211D01*
X013024Y009211D01*
X012935Y009175D01*
X012868Y009107D01*
X012831Y009019D01*
X012831Y008923D01*
X012868Y008835D01*
X012935Y008768D01*
X013024Y008731D01*
X013119Y008731D01*
X013207Y008768D01*
X013275Y008835D01*
X013311Y008923D01*
X013311Y009019D01*
X013275Y009107D01*
X013311Y009020D02*
X032533Y009020D01*
X032533Y008922D02*
X013311Y008922D01*
X013263Y008823D02*
X032533Y008823D01*
X032533Y008724D02*
X003021Y008724D01*
X003021Y008823D02*
X010600Y008823D01*
X010588Y008835D02*
X010655Y008768D01*
X010744Y008731D01*
X010839Y008731D01*
X010927Y008768D01*
X010995Y008835D01*
X011031Y008923D01*
X011031Y009019D01*
X010995Y009107D01*
X010927Y009175D01*
X010839Y009211D01*
X010744Y009211D01*
X010655Y009175D01*
X010588Y009107D01*
X010551Y009019D01*
X010551Y008923D01*
X010588Y008835D01*
X010552Y008922D02*
X002999Y008922D01*
X002954Y009020D02*
X010552Y009020D01*
X010599Y009119D02*
X002855Y009119D01*
X002740Y009414D02*
X003368Y009414D01*
X003335Y009428D02*
X003424Y009391D01*
X003519Y009391D01*
X003607Y009428D01*
X003675Y009495D01*
X003711Y009583D01*
X003711Y009679D01*
X003675Y009767D01*
X003607Y009835D01*
X003519Y009871D01*
X003424Y009871D01*
X003335Y009835D01*
X003268Y009767D01*
X003231Y009679D01*
X003231Y009583D01*
X003268Y009495D01*
X003335Y009428D01*
X003261Y009513D02*
X002904Y009513D01*
X002852Y009461D02*
X002962Y009570D01*
X003021Y009714D01*
X003021Y009869D01*
X002962Y010012D01*
X002852Y010122D01*
X002709Y010181D01*
X002554Y010181D01*
X002410Y010122D01*
X002301Y010012D01*
X002241Y009869D01*
X002241Y009714D01*
X002301Y009570D01*
X002410Y009461D01*
X002554Y009401D01*
X002709Y009401D01*
X002852Y009461D01*
X002979Y009611D02*
X003231Y009611D01*
X003244Y009710D02*
X003020Y009710D01*
X003021Y009808D02*
X003309Y009808D01*
X003005Y009907D02*
X010446Y009907D01*
X010431Y010006D02*
X002965Y010006D01*
X002870Y010104D02*
X004939Y010104D01*
X004955Y010088D02*
X004888Y010155D01*
X004851Y010243D01*
X004851Y010339D01*
X004888Y010427D01*
X004955Y010495D01*
X005044Y010531D01*
X005139Y010531D01*
X005227Y010495D01*
X005295Y010427D01*
X005331Y010339D01*
X005331Y010243D01*
X005295Y010155D01*
X005227Y010088D01*
X005139Y010051D01*
X005044Y010051D01*
X004955Y010088D01*
X004868Y010203D02*
X000621Y010203D01*
X000621Y010301D02*
X004851Y010301D01*
X004877Y010400D02*
X003979Y010400D01*
X004053Y010498D02*
X004964Y010498D01*
X005219Y010498D02*
X005799Y010498D01*
X005752Y010400D02*
X005306Y010400D01*
X005331Y010301D02*
X005752Y010301D01*
X005800Y010203D02*
X005314Y010203D01*
X005244Y010104D02*
X010458Y010104D01*
X010515Y009808D02*
X003633Y009808D01*
X003699Y009710D02*
X013711Y009710D01*
X013671Y009611D02*
X003711Y009611D01*
X003682Y009513D02*
X013676Y009513D01*
X013729Y009414D02*
X003575Y009414D01*
X002985Y008626D02*
X032533Y008626D01*
X032533Y008527D02*
X002919Y008527D01*
X002934Y007542D02*
X014306Y007542D01*
X014337Y007246D02*
X000621Y007246D01*
X000621Y007148D02*
X001473Y007148D01*
X001338Y007049D02*
X000621Y007049D01*
X000621Y006951D02*
X001275Y006951D01*
X001241Y006852D02*
X000621Y006852D01*
X000621Y006754D02*
X001241Y006754D01*
X001266Y006655D02*
X000621Y006655D01*
X000621Y006556D02*
X001314Y006556D01*
X001417Y006458D02*
X000621Y006458D01*
X000621Y006359D02*
X015220Y006359D01*
X015172Y006261D02*
X000621Y006261D01*
X000621Y006162D02*
X001508Y006162D01*
X001554Y006181D02*
X001410Y006122D01*
X001301Y006012D01*
X001241Y005869D01*
X001241Y005714D01*
X001301Y005570D01*
X001410Y005461D01*
X001554Y005401D01*
X001709Y005401D01*
X001852Y005461D01*
X001962Y005570D01*
X002021Y005714D01*
X002021Y005869D01*
X001962Y006012D01*
X001852Y006122D01*
X001709Y006181D01*
X001554Y006181D01*
X001754Y006162D02*
X002508Y006162D01*
X002352Y006064D02*
X001910Y006064D01*
X001981Y005965D02*
X002281Y005965D01*
X002241Y005867D02*
X002021Y005867D01*
X002021Y005768D02*
X002241Y005768D01*
X002260Y005670D02*
X002003Y005670D01*
X001962Y005571D02*
X002300Y005571D01*
X002398Y005473D02*
X001864Y005473D01*
X001398Y005473D02*
X000621Y005473D01*
X000621Y005571D02*
X001300Y005571D01*
X001260Y005670D02*
X000621Y005670D01*
X000621Y005768D02*
X001241Y005768D01*
X001241Y005867D02*
X000621Y005867D01*
X000621Y005965D02*
X001281Y005965D01*
X001352Y006064D02*
X000621Y006064D01*
X002754Y006162D02*
X015172Y006162D01*
X015219Y006064D02*
X002910Y006064D01*
X004538Y008330D02*
X018124Y008330D01*
X018190Y008429D02*
X004473Y008429D01*
X002358Y009513D02*
X001904Y009513D01*
X001979Y009611D02*
X002284Y009611D01*
X002243Y009710D02*
X002020Y009710D01*
X002021Y009808D02*
X002241Y009808D01*
X002257Y009907D02*
X002005Y009907D01*
X001965Y010006D02*
X002298Y010006D01*
X002393Y010104D02*
X001870Y010104D01*
X001890Y010498D02*
X002373Y010498D01*
X002410Y010461D02*
X002554Y010401D01*
X002709Y010401D01*
X002852Y010461D01*
X002962Y010570D01*
X003021Y010714D01*
X003021Y010869D01*
X002962Y011012D01*
X002852Y011122D01*
X002709Y011181D01*
X002554Y011181D01*
X002410Y011122D01*
X002301Y011012D01*
X002241Y010869D01*
X002241Y010714D01*
X002301Y010570D01*
X002410Y010461D01*
X002290Y010597D02*
X001973Y010597D01*
X002014Y010695D02*
X002249Y010695D01*
X002241Y010794D02*
X002021Y010794D01*
X002012Y010892D02*
X002251Y010892D01*
X002292Y010991D02*
X001971Y010991D01*
X001885Y011089D02*
X002378Y011089D01*
X002554Y011401D02*
X002410Y011461D01*
X002301Y011570D01*
X002241Y011714D01*
X002241Y011869D01*
X002301Y012012D01*
X002410Y012122D01*
X002554Y012181D01*
X002709Y012181D01*
X002852Y012122D01*
X002962Y012012D01*
X003021Y011869D01*
X003021Y011714D01*
X002962Y011570D01*
X002852Y011461D01*
X002709Y011401D01*
X002554Y011401D01*
X002387Y011484D02*
X001875Y011484D01*
X001852Y011461D02*
X001962Y011570D01*
X002021Y011714D01*
X002021Y011869D01*
X001962Y012012D01*
X001852Y012122D01*
X001709Y012181D01*
X001554Y012181D01*
X001410Y012122D01*
X001301Y012012D01*
X001241Y011869D01*
X001241Y011714D01*
X001301Y011570D01*
X001410Y011461D01*
X001554Y011401D01*
X001709Y011401D01*
X001852Y011461D01*
X001967Y011582D02*
X002296Y011582D01*
X002255Y011681D02*
X002008Y011681D01*
X002021Y011779D02*
X002241Y011779D01*
X002245Y011878D02*
X002018Y011878D01*
X001977Y011976D02*
X002286Y011976D01*
X002364Y012075D02*
X001899Y012075D01*
X001727Y012173D02*
X002535Y012173D01*
X002727Y012173D02*
X010490Y012173D01*
X010468Y012195D02*
X010535Y012128D01*
X010624Y012091D01*
X010719Y012091D01*
X010807Y012128D01*
X010866Y012187D01*
X010888Y012135D01*
X010955Y012068D01*
X011044Y012031D01*
X011139Y012031D01*
X011227Y012068D01*
X011295Y012135D01*
X011331Y012223D01*
X011331Y012319D01*
X011295Y012407D01*
X011227Y012475D01*
X011139Y012511D01*
X011044Y012511D01*
X010955Y012475D01*
X010896Y012415D01*
X010875Y012467D01*
X010807Y012535D01*
X010719Y012571D01*
X010624Y012571D01*
X010535Y012535D01*
X010468Y012467D01*
X010431Y012379D01*
X010431Y012283D01*
X010468Y012195D01*
X010436Y012272D02*
X000621Y012272D01*
X000621Y012371D02*
X010431Y012371D01*
X010470Y012469D02*
X002861Y012469D01*
X002852Y012461D02*
X002962Y012570D01*
X003021Y012714D01*
X003021Y012869D01*
X002962Y013012D01*
X002852Y013122D01*
X002709Y013181D01*
X002554Y013181D01*
X002410Y013122D01*
X002301Y013012D01*
X002241Y012869D01*
X002241Y012714D01*
X002301Y012570D01*
X002410Y012461D01*
X002554Y012401D01*
X002709Y012401D01*
X002852Y012461D01*
X002959Y012568D02*
X010615Y012568D01*
X010728Y012568D02*
X012115Y012568D01*
X012124Y012571D02*
X012035Y012535D01*
X011968Y012467D01*
X011931Y012379D01*
X011931Y012283D01*
X011968Y012195D01*
X012035Y012128D01*
X012124Y012091D01*
X012219Y012091D01*
X012307Y012128D01*
X012375Y012195D01*
X012411Y012283D01*
X012411Y012379D01*
X012375Y012467D01*
X012307Y012535D01*
X012219Y012571D01*
X012124Y012571D01*
X012228Y012568D02*
X013015Y012568D01*
X013024Y012571D02*
X012935Y012535D01*
X012868Y012467D01*
X012831Y012379D01*
X012831Y012283D01*
X012868Y012195D01*
X012935Y012128D01*
X013024Y012091D01*
X013119Y012091D01*
X013207Y012128D01*
X013275Y012195D01*
X013311Y012283D01*
X013311Y012379D01*
X013275Y012467D01*
X013207Y012535D01*
X013119Y012571D01*
X013024Y012571D01*
X013128Y012568D02*
X013675Y012568D01*
X013684Y012571D02*
X013595Y012535D01*
X013528Y012467D01*
X013491Y012379D01*
X013491Y012283D01*
X013528Y012195D01*
X013595Y012128D01*
X013684Y012091D01*
X013779Y012091D01*
X013851Y012121D01*
X013851Y012043D01*
X013860Y012022D01*
X013839Y012031D01*
X013744Y012031D01*
X013655Y011995D01*
X013588Y011927D01*
X013551Y011839D01*
X013551Y011743D01*
X013588Y011655D01*
X013655Y011588D01*
X013744Y011551D01*
X013839Y011551D01*
X013927Y011588D01*
X013995Y011655D01*
X014031Y011743D01*
X014031Y011839D01*
X014023Y011860D01*
X014044Y011851D01*
X014139Y011851D01*
X014227Y011888D01*
X014295Y011955D01*
X014331Y012043D01*
X014331Y012139D01*
X014295Y012227D01*
X014227Y012295D01*
X014139Y012331D01*
X014044Y012331D01*
X013971Y012301D01*
X013971Y012379D01*
X013935Y012467D01*
X013867Y012535D01*
X013779Y012571D01*
X013684Y012571D01*
X013788Y012568D02*
X023518Y012568D01*
X023511Y012583D02*
X023548Y012495D01*
X023615Y012428D01*
X023704Y012391D01*
X023799Y012391D01*
X023887Y012428D01*
X023955Y012495D01*
X023991Y012583D01*
X023991Y012679D01*
X023955Y012767D01*
X023887Y012835D01*
X023799Y012871D01*
X023704Y012871D01*
X023615Y012835D01*
X023548Y012767D01*
X023511Y012679D01*
X023511Y012583D01*
X023511Y012666D02*
X003002Y012666D01*
X003021Y012765D02*
X005491Y012765D01*
X005524Y012751D02*
X005619Y012751D01*
X005707Y012788D01*
X005775Y012855D01*
X005811Y012943D01*
X005811Y013039D01*
X005775Y013127D01*
X005707Y013195D01*
X005619Y013231D01*
X005524Y013231D01*
X005435Y013195D01*
X005368Y013127D01*
X005331Y013039D01*
X005331Y012943D01*
X005368Y012855D01*
X005435Y012788D01*
X005524Y012751D01*
X005652Y012765D02*
X023547Y012765D01*
X023685Y012863D02*
X005778Y012863D01*
X005811Y012962D02*
X028493Y012962D01*
X028475Y012955D02*
X028408Y012887D01*
X028371Y012799D01*
X028371Y012703D01*
X028408Y012615D01*
X028475Y012548D01*
X028564Y012511D01*
X028659Y012511D01*
X028747Y012548D01*
X028815Y012615D01*
X028851Y012703D01*
X028851Y012799D01*
X028815Y012887D01*
X028747Y012955D01*
X028659Y012991D01*
X028564Y012991D01*
X028475Y012955D01*
X028398Y012863D02*
X023818Y012863D01*
X023956Y012765D02*
X028371Y012765D01*
X028387Y012666D02*
X023991Y012666D01*
X023985Y012568D02*
X028455Y012568D01*
X028767Y012568D02*
X032533Y012568D01*
X032533Y012666D02*
X028836Y012666D01*
X028851Y012765D02*
X032533Y012765D01*
X032533Y012863D02*
X028825Y012863D01*
X028730Y012962D02*
X032533Y012962D01*
X032533Y013060D02*
X021190Y013060D01*
X021157Y013028D02*
X021225Y013095D01*
X021261Y013183D01*
X021261Y013279D01*
X021225Y013367D01*
X021157Y013435D01*
X021069Y013471D01*
X020974Y013471D01*
X020885Y013435D01*
X020818Y013367D01*
X020781Y013279D01*
X020781Y013183D01*
X020818Y013095D01*
X020885Y013028D01*
X020974Y012991D01*
X021069Y012991D01*
X021157Y013028D01*
X021251Y013159D02*
X032533Y013159D01*
X032533Y013257D02*
X021261Y013257D01*
X021229Y013356D02*
X032533Y013356D01*
X032533Y013455D02*
X021109Y013455D01*
X020933Y013455D02*
X002838Y013455D01*
X002852Y013461D02*
X002962Y013570D01*
X003021Y013714D01*
X003021Y013869D01*
X002962Y014012D01*
X002852Y014122D01*
X002709Y014181D01*
X002554Y014181D01*
X002410Y014122D01*
X002301Y014012D01*
X002241Y013869D01*
X002241Y013714D01*
X002301Y013570D01*
X002410Y013461D01*
X002554Y013401D01*
X002709Y013401D01*
X002852Y013461D01*
X002945Y013553D02*
X009350Y013553D01*
X009328Y013575D02*
X009395Y013508D01*
X009484Y013471D01*
X009579Y013471D01*
X009667Y013508D01*
X009735Y013575D01*
X009771Y013663D01*
X009771Y013759D01*
X009735Y013847D01*
X009667Y013915D01*
X009579Y013951D01*
X009484Y013951D01*
X009395Y013915D01*
X009328Y013847D01*
X009291Y013759D01*
X009291Y013663D01*
X009328Y013575D01*
X009296Y013652D02*
X002996Y013652D01*
X003021Y013750D02*
X009291Y013750D01*
X009329Y013849D02*
X003021Y013849D01*
X002989Y013947D02*
X009474Y013947D01*
X009589Y013947D02*
X032533Y013947D01*
X032533Y013849D02*
X009733Y013849D01*
X009771Y013750D02*
X032533Y013750D01*
X032533Y013652D02*
X009766Y013652D01*
X009713Y013553D02*
X032533Y013553D01*
X032533Y014046D02*
X015192Y014046D01*
X015178Y014031D02*
X015398Y014251D01*
X015459Y014251D01*
X015547Y014288D01*
X015615Y014355D01*
X015651Y014443D01*
X015651Y014539D01*
X015615Y014627D01*
X015547Y014695D01*
X015459Y014731D01*
X015406Y014731D01*
X015411Y014743D01*
X015411Y014839D01*
X015375Y014927D01*
X015307Y014995D01*
X015219Y015031D01*
X015124Y015031D01*
X015035Y014995D01*
X014968Y014927D01*
X014931Y014839D01*
X014931Y014743D01*
X014968Y014655D01*
X015035Y014588D01*
X015124Y014551D01*
X015176Y014551D01*
X015171Y014539D01*
X015171Y014477D01*
X015045Y014351D01*
X014811Y014351D01*
X014767Y014395D01*
X014679Y014431D01*
X014584Y014431D01*
X014495Y014395D01*
X014428Y014327D01*
X014391Y014239D01*
X014391Y014143D01*
X014428Y014055D01*
X014495Y013988D01*
X014584Y013951D01*
X014679Y013951D01*
X014767Y013988D01*
X014811Y014031D01*
X015045Y014031D01*
X015178Y014031D01*
X015291Y014144D02*
X015932Y014144D01*
X015964Y014131D02*
X015875Y014168D01*
X015808Y014235D01*
X015771Y014323D01*
X015771Y014419D01*
X015808Y014507D01*
X015875Y014575D01*
X015964Y014611D01*
X016059Y014611D01*
X016147Y014575D01*
X016215Y014507D01*
X016251Y014419D01*
X016251Y014323D01*
X016215Y014235D01*
X016147Y014168D01*
X016059Y014131D01*
X015964Y014131D01*
X016091Y014144D02*
X032533Y014144D01*
X032533Y014243D02*
X016218Y014243D01*
X016251Y014341D02*
X032533Y014341D01*
X032533Y014440D02*
X019260Y014440D01*
X019239Y014431D02*
X019327Y014468D01*
X019395Y014535D01*
X019431Y014623D01*
X019431Y014719D01*
X019395Y014807D01*
X019327Y014875D01*
X019239Y014911D01*
X019144Y014911D01*
X019055Y014875D01*
X018988Y014807D01*
X018951Y014719D01*
X018951Y014623D01*
X018988Y014535D01*
X019055Y014468D01*
X019144Y014431D01*
X019239Y014431D01*
X019122Y014440D02*
X016243Y014440D01*
X016183Y014539D02*
X018986Y014539D01*
X018951Y014637D02*
X015605Y014637D01*
X015651Y014539D02*
X015839Y014539D01*
X015780Y014440D02*
X015650Y014440D01*
X015601Y014341D02*
X015771Y014341D01*
X015805Y014243D02*
X015389Y014243D01*
X015411Y014491D02*
X015111Y014191D01*
X014631Y014191D01*
X014442Y014341D02*
X000621Y014341D01*
X000621Y014243D02*
X014393Y014243D01*
X014391Y014144D02*
X002798Y014144D01*
X002928Y014046D02*
X014437Y014046D01*
X015134Y014440D02*
X002803Y014440D01*
X002852Y014461D02*
X002962Y014570D01*
X003021Y014714D01*
X003021Y014869D01*
X002962Y015012D01*
X002852Y015122D01*
X002709Y015181D01*
X002554Y015181D01*
X002410Y015122D01*
X002301Y015012D01*
X002241Y014869D01*
X002241Y014714D01*
X002301Y014570D01*
X002410Y014461D01*
X002554Y014401D01*
X002709Y014401D01*
X002852Y014461D01*
X002930Y014539D02*
X015171Y014539D01*
X014986Y014637D02*
X002990Y014637D01*
X003021Y014736D02*
X014935Y014736D01*
X014931Y014834D02*
X003021Y014834D01*
X002995Y014933D02*
X014973Y014933D01*
X015369Y014933D02*
X016730Y014933D01*
X016708Y014955D02*
X016775Y014888D01*
X016864Y014851D01*
X016959Y014851D01*
X017047Y014888D01*
X017115Y014955D01*
X017151Y015043D01*
X017151Y015139D01*
X017115Y015227D01*
X017047Y015295D01*
X016959Y015331D01*
X016864Y015331D01*
X016775Y015295D01*
X016708Y015227D01*
X016671Y015139D01*
X016671Y015043D01*
X016708Y014955D01*
X016676Y015031D02*
X002943Y015031D01*
X002833Y015130D02*
X016113Y015130D01*
X016115Y015128D02*
X016204Y015091D01*
X016299Y015091D01*
X016387Y015128D01*
X016455Y015195D01*
X016491Y015283D01*
X016491Y015379D01*
X016455Y015467D01*
X016387Y015535D01*
X016299Y015571D01*
X016204Y015571D01*
X016115Y015535D01*
X016048Y015467D01*
X016011Y015379D01*
X016011Y015283D01*
X016048Y015195D01*
X016115Y015128D01*
X016034Y015228D02*
X000621Y015228D01*
X000621Y015130D02*
X001430Y015130D01*
X001410Y015122D02*
X001301Y015012D01*
X001241Y014869D01*
X001241Y014714D01*
X001301Y014570D01*
X001410Y014461D01*
X001554Y014401D01*
X001709Y014401D01*
X001852Y014461D01*
X001962Y014570D01*
X002021Y014714D01*
X002021Y014869D01*
X001962Y015012D01*
X001852Y015122D01*
X001709Y015181D01*
X001554Y015181D01*
X001410Y015122D01*
X001320Y015031D02*
X000621Y015031D01*
X000621Y014933D02*
X001268Y014933D01*
X001241Y014834D02*
X000621Y014834D01*
X000621Y014736D02*
X001241Y014736D01*
X001273Y014637D02*
X000621Y014637D01*
X000621Y014539D02*
X001332Y014539D01*
X001460Y014440D02*
X000621Y014440D01*
X000621Y014144D02*
X001465Y014144D01*
X001410Y014122D02*
X001301Y014012D01*
X001241Y013869D01*
X001241Y013714D01*
X001301Y013570D01*
X001410Y013461D01*
X001554Y013401D01*
X001709Y013401D01*
X001852Y013461D01*
X001962Y013570D01*
X002021Y013714D01*
X002021Y013869D01*
X001962Y014012D01*
X001852Y014122D01*
X001709Y014181D01*
X001554Y014181D01*
X001410Y014122D01*
X001334Y014046D02*
X000621Y014046D01*
X000621Y013947D02*
X001274Y013947D01*
X001241Y013849D02*
X000621Y013849D01*
X000621Y013750D02*
X001241Y013750D01*
X001267Y013652D02*
X000621Y013652D01*
X000621Y013553D02*
X001318Y013553D01*
X001425Y013455D02*
X000621Y013455D01*
X000621Y013356D02*
X020813Y013356D01*
X020781Y013257D02*
X000621Y013257D01*
X000621Y013159D02*
X001500Y013159D01*
X001554Y013181D02*
X001410Y013122D01*
X001301Y013012D01*
X001241Y012869D01*
X001241Y012714D01*
X001301Y012570D01*
X001410Y012461D01*
X001554Y012401D01*
X001709Y012401D01*
X001852Y012461D01*
X001962Y012570D01*
X002021Y012714D01*
X002021Y012869D01*
X001962Y013012D01*
X001852Y013122D01*
X001709Y013181D01*
X001554Y013181D01*
X001763Y013159D02*
X002500Y013159D01*
X002349Y013060D02*
X001914Y013060D01*
X001983Y012962D02*
X002280Y012962D01*
X002241Y012863D02*
X002021Y012863D01*
X002021Y012765D02*
X002241Y012765D01*
X002261Y012666D02*
X002002Y012666D01*
X001959Y012568D02*
X002303Y012568D01*
X002402Y012469D02*
X001861Y012469D01*
X001402Y012469D02*
X000621Y012469D01*
X000621Y012568D02*
X001303Y012568D01*
X001261Y012666D02*
X000621Y012666D01*
X000621Y012765D02*
X001241Y012765D01*
X001241Y012863D02*
X000621Y012863D01*
X000621Y012962D02*
X001280Y012962D01*
X001349Y013060D02*
X000621Y013060D01*
X000621Y012173D02*
X001535Y012173D01*
X001364Y012075D02*
X000621Y012075D01*
X000621Y011976D02*
X001286Y011976D01*
X001245Y011878D02*
X000621Y011878D01*
X000621Y011779D02*
X001241Y011779D01*
X001255Y011681D02*
X000621Y011681D01*
X000621Y011582D02*
X001296Y011582D01*
X001387Y011484D02*
X000621Y011484D01*
X000621Y011385D02*
X006027Y011385D01*
X005991Y011287D02*
X000621Y011287D01*
X000621Y010400D02*
X003683Y010400D01*
X003610Y010498D02*
X002890Y010498D01*
X002973Y010597D02*
X003591Y010597D01*
X003615Y010695D02*
X003014Y010695D01*
X003021Y010794D02*
X003695Y010794D01*
X003968Y010794D02*
X005269Y010794D01*
X005216Y010892D02*
X003012Y010892D01*
X002971Y010991D02*
X005211Y010991D01*
X005250Y011089D02*
X002885Y011089D01*
X002875Y011484D02*
X006166Y011484D01*
X006297Y011484D02*
X032533Y011484D01*
X032533Y011582D02*
X013914Y011582D01*
X014005Y011681D02*
X032533Y011681D01*
X032533Y011779D02*
X014031Y011779D01*
X014203Y011878D02*
X032533Y011878D01*
X032533Y011976D02*
X015276Y011976D01*
X015247Y011948D02*
X015315Y012015D01*
X015351Y012103D01*
X015351Y012199D01*
X015315Y012287D01*
X015247Y012355D01*
X015159Y012391D01*
X015064Y012391D01*
X014975Y012355D01*
X014908Y012287D01*
X014871Y012199D01*
X014871Y012103D01*
X014908Y012015D01*
X014975Y011948D01*
X015064Y011911D01*
X015159Y011911D01*
X015247Y011948D01*
X015339Y012075D02*
X032533Y012075D01*
X032533Y012173D02*
X015351Y012173D01*
X015321Y012272D02*
X032533Y012272D01*
X032533Y012371D02*
X015209Y012371D01*
X015014Y012371D02*
X013971Y012371D01*
X013933Y012469D02*
X023574Y012469D01*
X023929Y012469D02*
X032533Y012469D01*
X032533Y011385D02*
X006436Y011385D01*
X006471Y011287D02*
X032533Y011287D01*
X032533Y011188D02*
X006465Y011188D01*
X006409Y011089D02*
X032533Y011089D01*
X032533Y010991D02*
X010851Y010991D01*
X010906Y010892D02*
X032533Y010892D01*
X032533Y010794D02*
X013928Y010794D01*
X014008Y010695D02*
X018056Y010695D01*
X018028Y010667D02*
X017991Y010579D01*
X017991Y010483D01*
X018028Y010395D01*
X018095Y010328D01*
X018184Y010291D01*
X018279Y010291D01*
X018367Y010328D01*
X018435Y010395D01*
X018471Y010483D01*
X018471Y010579D01*
X018435Y010667D01*
X018367Y010735D01*
X018279Y010771D01*
X018184Y010771D01*
X018095Y010735D01*
X018028Y010667D01*
X017999Y010597D02*
X014031Y010597D01*
X014219Y010498D02*
X014984Y010498D01*
X014975Y010495D02*
X014908Y010427D01*
X014871Y010339D01*
X014871Y010243D01*
X014908Y010155D01*
X014975Y010088D01*
X015064Y010051D01*
X015159Y010051D01*
X015247Y010088D01*
X015315Y010155D01*
X015351Y010243D01*
X015351Y010339D01*
X015315Y010427D01*
X015247Y010495D01*
X015159Y010531D01*
X015064Y010531D01*
X014975Y010495D01*
X014897Y010400D02*
X014306Y010400D01*
X014331Y010301D02*
X014871Y010301D01*
X014888Y010203D02*
X014314Y010203D01*
X014244Y010104D02*
X014959Y010104D01*
X015264Y010104D02*
X022579Y010104D01*
X022595Y010088D02*
X022528Y010155D01*
X022491Y010243D01*
X022491Y010339D01*
X022528Y010427D01*
X022595Y010495D01*
X022684Y010531D01*
X022779Y010531D01*
X022867Y010495D01*
X022935Y010427D01*
X022971Y010339D01*
X022971Y010243D01*
X022935Y010155D01*
X022867Y010088D01*
X022779Y010051D01*
X022684Y010051D01*
X022595Y010088D01*
X022508Y010203D02*
X015334Y010203D01*
X015351Y010301D02*
X018160Y010301D01*
X018303Y010301D02*
X022491Y010301D01*
X022517Y010400D02*
X018437Y010400D01*
X018471Y010498D02*
X022604Y010498D01*
X022859Y010498D02*
X028184Y010498D01*
X028175Y010495D02*
X028108Y010427D01*
X028071Y010339D01*
X028071Y010243D01*
X028108Y010155D01*
X028175Y010088D01*
X028264Y010051D01*
X028359Y010051D01*
X028447Y010088D01*
X028515Y010155D01*
X028551Y010243D01*
X028551Y010339D01*
X028515Y010427D01*
X028447Y010495D01*
X028359Y010531D01*
X028264Y010531D01*
X028175Y010495D01*
X028097Y010400D02*
X022946Y010400D01*
X022971Y010301D02*
X028071Y010301D01*
X028088Y010203D02*
X022954Y010203D01*
X022884Y010104D02*
X028159Y010104D01*
X028464Y010104D02*
X032533Y010104D01*
X032533Y010203D02*
X028534Y010203D01*
X028551Y010301D02*
X032533Y010301D01*
X032533Y010400D02*
X028526Y010400D01*
X028439Y010498D02*
X032533Y010498D01*
X032533Y010597D02*
X018464Y010597D01*
X018407Y010695D02*
X032533Y010695D01*
X032533Y009611D02*
X024330Y009611D01*
X024351Y009513D02*
X032533Y009513D01*
X032533Y009414D02*
X024331Y009414D01*
X024255Y009316D02*
X032533Y009316D01*
X032533Y008429D02*
X018513Y008429D01*
X018578Y008330D02*
X032533Y008330D01*
X032533Y008232D02*
X018591Y008232D01*
X018562Y008133D02*
X032533Y008133D01*
X032533Y008035D02*
X018456Y008035D01*
X018247Y008035D02*
X015067Y008035D01*
X015111Y007936D02*
X032533Y007936D01*
X032533Y007838D02*
X015109Y007838D01*
X015059Y007739D02*
X017266Y007739D01*
X017517Y007739D02*
X021046Y007739D01*
X020957Y007640D02*
X017606Y007640D01*
X017631Y007542D02*
X020931Y007542D01*
X020948Y007443D02*
X017615Y007443D01*
X017544Y007345D02*
X021018Y007345D01*
X021411Y007542D02*
X032533Y007542D01*
X032533Y007640D02*
X021386Y007640D01*
X021297Y007739D02*
X032533Y007739D01*
X032533Y014539D02*
X019396Y014539D01*
X019431Y014637D02*
X032533Y014637D01*
X032533Y014736D02*
X019424Y014736D01*
X019368Y014834D02*
X032533Y014834D01*
X032533Y014933D02*
X021121Y014933D01*
X021157Y014948D02*
X021069Y014911D01*
X020974Y014911D01*
X020885Y014948D01*
X020818Y015015D01*
X020781Y015103D01*
X020781Y015199D01*
X020818Y015287D01*
X020885Y015355D01*
X020974Y015391D01*
X021069Y015391D01*
X021157Y015355D01*
X021225Y015287D01*
X021261Y015199D01*
X021261Y015103D01*
X021225Y015015D01*
X021157Y014948D01*
X021231Y015031D02*
X032533Y015031D01*
X032533Y015130D02*
X021261Y015130D01*
X021249Y015228D02*
X032533Y015228D01*
X032533Y015327D02*
X021185Y015327D01*
X020858Y015327D02*
X016969Y015327D01*
X016959Y015391D02*
X017047Y015428D01*
X017115Y015495D01*
X017151Y015583D01*
X017151Y015679D01*
X017115Y015767D01*
X017047Y015835D01*
X016959Y015871D01*
X016864Y015871D01*
X016775Y015835D01*
X016708Y015767D01*
X016671Y015679D01*
X016671Y015583D01*
X016708Y015495D01*
X016775Y015428D01*
X016864Y015391D01*
X016959Y015391D01*
X017042Y015425D02*
X032533Y015425D01*
X032533Y015524D02*
X017127Y015524D01*
X017151Y015622D02*
X032533Y015622D01*
X032533Y015721D02*
X017134Y015721D01*
X017062Y015820D02*
X032533Y015820D01*
X032533Y015918D02*
X003676Y015918D01*
X003675Y015915D02*
X003711Y016003D01*
X003711Y016099D01*
X003675Y016187D01*
X003607Y016255D01*
X003519Y016291D01*
X003424Y016291D01*
X003335Y016255D01*
X003268Y016187D01*
X003231Y016099D01*
X003231Y016003D01*
X003268Y015915D01*
X003335Y015848D01*
X003424Y015811D01*
X003519Y015811D01*
X003607Y015848D01*
X003675Y015915D01*
X003711Y016017D02*
X032533Y016017D01*
X032533Y016115D02*
X027292Y016115D01*
X027130Y016048D02*
X027461Y016186D01*
X027715Y016439D01*
X027852Y016770D01*
X027852Y017128D01*
X027715Y017459D01*
X027461Y017712D01*
X027130Y017849D01*
X026772Y017849D01*
X026441Y017712D01*
X026188Y017459D01*
X026051Y017128D01*
X026051Y016770D01*
X026188Y016439D01*
X026441Y016186D01*
X026772Y016048D01*
X027130Y016048D01*
X027490Y016214D02*
X032533Y016214D01*
X032533Y016312D02*
X027588Y016312D01*
X027687Y016411D02*
X032533Y016411D01*
X032533Y016509D02*
X027744Y016509D01*
X027785Y016608D02*
X032533Y016608D01*
X032533Y016706D02*
X027826Y016706D01*
X027852Y016805D02*
X032533Y016805D01*
X032533Y016904D02*
X027852Y016904D01*
X027852Y017002D02*
X032533Y017002D01*
X032533Y017101D02*
X029071Y017101D01*
X029048Y017091D02*
X029357Y017219D01*
X029594Y017456D01*
X029723Y017766D01*
X029723Y017883D01*
X028931Y017883D01*
X028931Y017983D01*
X029723Y017983D01*
X029723Y018101D01*
X029594Y018410D01*
X029357Y018647D01*
X029048Y018775D01*
X028930Y018775D01*
X028930Y017983D01*
X028830Y017983D01*
X028830Y017883D01*
X028038Y017883D01*
X028038Y017766D01*
X028167Y017456D01*
X028403Y017219D01*
X028713Y017091D01*
X028830Y017091D01*
X028830Y017883D01*
X028930Y017883D01*
X028930Y017091D01*
X029048Y017091D01*
X028930Y017101D02*
X028830Y017101D01*
X028830Y017199D02*
X028930Y017199D01*
X028930Y017298D02*
X028830Y017298D01*
X028830Y017396D02*
X028930Y017396D01*
X028930Y017495D02*
X028830Y017495D01*
X028830Y017593D02*
X028930Y017593D01*
X028930Y017692D02*
X028830Y017692D01*
X028830Y017790D02*
X028930Y017790D01*
X028931Y017889D02*
X032533Y017889D01*
X032533Y017988D02*
X029723Y017988D01*
X029723Y018086D02*
X032533Y018086D01*
X032533Y018185D02*
X029688Y018185D01*
X029647Y018283D02*
X032533Y018283D01*
X032533Y018382D02*
X029606Y018382D01*
X029524Y018480D02*
X032533Y018480D01*
X032533Y018579D02*
X029426Y018579D01*
X029285Y018677D02*
X032533Y018677D01*
X032533Y018776D02*
X027607Y018776D01*
X027665Y018834D02*
X027793Y019144D01*
X027793Y019261D01*
X027001Y019261D01*
X027001Y018469D01*
X027119Y018469D01*
X027428Y018597D01*
X027665Y018834D01*
X027682Y018874D02*
X032533Y018874D01*
X032533Y018973D02*
X027723Y018973D01*
X027764Y019071D02*
X032533Y019071D01*
X032533Y019170D02*
X027793Y019170D01*
X027793Y019361D02*
X027793Y019479D01*
X027665Y019788D01*
X027428Y020025D01*
X027119Y020153D01*
X027001Y020153D01*
X027001Y019361D01*
X026901Y019361D01*
X026901Y019261D01*
X026109Y019261D01*
X026109Y019144D01*
X026237Y018834D01*
X026474Y018597D01*
X026784Y018469D01*
X026901Y018469D01*
X026901Y019261D01*
X027001Y019261D01*
X027001Y019361D01*
X027793Y019361D01*
X027793Y019367D02*
X032533Y019367D01*
X032533Y019269D02*
X027001Y019269D01*
X027001Y019367D02*
X026901Y019367D01*
X026901Y019361D02*
X026901Y020153D01*
X026784Y020153D01*
X026474Y020025D01*
X026237Y019788D01*
X026109Y019479D01*
X026109Y019361D01*
X026901Y019361D01*
X026901Y019269D02*
X020151Y019269D01*
X020151Y019279D02*
X020115Y019367D01*
X026109Y019367D01*
X026109Y019466D02*
X019972Y019466D01*
X019959Y019471D02*
X019864Y019471D01*
X019775Y019435D01*
X019708Y019367D01*
X019152Y019367D01*
X019152Y019269D02*
X019671Y019269D01*
X019671Y019279D02*
X019671Y019183D01*
X019708Y019095D01*
X019775Y019028D01*
X019864Y018991D01*
X019959Y018991D01*
X020047Y019028D01*
X020115Y019095D01*
X020151Y019183D01*
X020151Y019279D01*
X020115Y019367D02*
X020047Y019435D01*
X019959Y019471D01*
X019850Y019466D02*
X019152Y019466D01*
X019152Y019506D02*
X019152Y019225D01*
X019044Y018965D01*
X018846Y018767D01*
X018586Y018659D01*
X018305Y018659D01*
X018046Y018767D01*
X017847Y018965D01*
X017740Y019225D01*
X017740Y019506D01*
X017847Y019765D01*
X018046Y019964D01*
X018305Y020071D01*
X018586Y020071D01*
X018846Y019964D01*
X019044Y019765D01*
X019152Y019506D01*
X019127Y019564D02*
X026145Y019564D01*
X026185Y019663D02*
X019086Y019663D01*
X019046Y019761D02*
X026226Y019761D01*
X026309Y019860D02*
X018949Y019860D01*
X018851Y019958D02*
X026408Y019958D01*
X026551Y020057D02*
X018620Y020057D01*
X018271Y020057D02*
X012912Y020057D01*
X012877Y020071D02*
X012597Y020071D01*
X012337Y019964D01*
X012139Y019765D01*
X012031Y019506D01*
X012031Y019225D01*
X012139Y018965D01*
X012337Y018767D01*
X012597Y018659D01*
X012877Y018659D01*
X013137Y018767D01*
X013335Y018965D01*
X013443Y019225D01*
X013443Y019506D01*
X013335Y019765D01*
X013137Y019964D01*
X012877Y020071D01*
X013142Y019958D02*
X018041Y019958D01*
X017942Y019860D02*
X013241Y019860D01*
X013337Y019761D02*
X014582Y019761D01*
X014615Y019795D02*
X014548Y019727D01*
X014511Y019639D01*
X014511Y019543D01*
X014548Y019455D01*
X014615Y019388D01*
X014704Y019351D01*
X014799Y019351D01*
X014887Y019388D01*
X014955Y019455D01*
X014991Y019543D01*
X014991Y019639D01*
X014955Y019727D01*
X014887Y019795D01*
X014799Y019831D01*
X014704Y019831D01*
X014615Y019795D01*
X014521Y019663D02*
X013378Y019663D01*
X013419Y019564D02*
X014511Y019564D01*
X014544Y019466D02*
X013443Y019466D01*
X013443Y019367D02*
X014665Y019367D01*
X014838Y019367D02*
X015325Y019367D01*
X015364Y019351D02*
X015459Y019351D01*
X015547Y019388D01*
X015615Y019455D01*
X015651Y019543D01*
X015651Y019639D01*
X015615Y019727D01*
X015547Y019795D01*
X015459Y019831D01*
X015364Y019831D01*
X015275Y019795D01*
X015208Y019727D01*
X015171Y019639D01*
X015171Y019543D01*
X015208Y019455D01*
X015275Y019388D01*
X015364Y019351D01*
X015498Y019367D02*
X017740Y019367D01*
X017740Y019269D02*
X013443Y019269D01*
X013420Y019170D02*
X017762Y019170D01*
X017803Y019071D02*
X013379Y019071D01*
X013339Y018973D02*
X017844Y018973D01*
X017938Y018874D02*
X013244Y018874D01*
X013146Y018776D02*
X018037Y018776D01*
X018262Y018677D02*
X012921Y018677D01*
X012553Y018677D02*
X003006Y018677D01*
X003021Y018714D02*
X002962Y018570D01*
X002852Y018461D01*
X002709Y018401D01*
X002554Y018401D01*
X002410Y018461D01*
X002301Y018570D01*
X002241Y018714D01*
X002241Y018869D01*
X002301Y019012D01*
X002410Y019122D01*
X002554Y019181D01*
X002709Y019181D01*
X002852Y019122D01*
X002962Y019012D01*
X003021Y018869D01*
X003021Y018714D01*
X003021Y018776D02*
X012328Y018776D01*
X012229Y018874D02*
X003019Y018874D01*
X002978Y018973D02*
X012135Y018973D01*
X012095Y019071D02*
X002903Y019071D01*
X002736Y019170D02*
X011053Y019170D01*
X011075Y019148D02*
X011164Y019111D01*
X011259Y019111D01*
X011347Y019148D01*
X011415Y019215D01*
X011451Y019303D01*
X011451Y019399D01*
X011415Y019487D01*
X011347Y019555D01*
X011259Y019591D01*
X011164Y019591D01*
X011075Y019555D01*
X011008Y019487D01*
X010971Y019399D01*
X010971Y019303D01*
X011008Y019215D01*
X011075Y019148D01*
X010986Y019269D02*
X000621Y019269D01*
X000621Y019367D02*
X010971Y019367D01*
X010999Y019466D02*
X002857Y019466D01*
X002852Y019461D02*
X002962Y019570D01*
X003021Y019714D01*
X003021Y019869D01*
X002962Y020012D01*
X002852Y020122D01*
X002709Y020181D01*
X002554Y020181D01*
X002410Y020122D01*
X002301Y020012D01*
X002241Y019869D01*
X002241Y019714D01*
X002301Y019570D01*
X002410Y019461D01*
X002554Y019401D01*
X002709Y019401D01*
X002852Y019461D01*
X002956Y019564D02*
X011099Y019564D01*
X011324Y019564D02*
X012055Y019564D01*
X012031Y019466D02*
X011424Y019466D01*
X011451Y019367D02*
X012031Y019367D01*
X012031Y019269D02*
X011437Y019269D01*
X011370Y019170D02*
X012054Y019170D01*
X012096Y019663D02*
X003000Y019663D01*
X003021Y019761D02*
X012137Y019761D01*
X012233Y019860D02*
X003021Y019860D01*
X002984Y019958D02*
X012332Y019958D01*
X012562Y020057D02*
X002917Y020057D01*
X002771Y020155D02*
X032533Y020155D01*
X032533Y020057D02*
X027351Y020057D01*
X027495Y019958D02*
X032533Y019958D01*
X032533Y019860D02*
X027594Y019860D01*
X027676Y019761D02*
X032533Y019761D01*
X032533Y019663D02*
X027717Y019663D01*
X027758Y019564D02*
X032533Y019564D01*
X032533Y019466D02*
X027793Y019466D01*
X028403Y018647D02*
X028713Y018775D01*
X028830Y018775D01*
X028830Y017983D01*
X028038Y017983D01*
X028038Y018101D01*
X028167Y018410D01*
X028403Y018647D01*
X028476Y018677D02*
X027508Y018677D01*
X027384Y018579D02*
X028335Y018579D01*
X028237Y018480D02*
X027146Y018480D01*
X027001Y018480D02*
X026901Y018480D01*
X026901Y018579D02*
X027001Y018579D01*
X027001Y018677D02*
X026901Y018677D01*
X026901Y018776D02*
X027001Y018776D01*
X027001Y018874D02*
X026901Y018874D01*
X026901Y018973D02*
X027001Y018973D01*
X027001Y019071D02*
X026901Y019071D01*
X026901Y019170D02*
X027001Y019170D01*
X027001Y019466D02*
X026901Y019466D01*
X026901Y019564D02*
X027001Y019564D01*
X027001Y019663D02*
X026901Y019663D01*
X026901Y019761D02*
X027001Y019761D01*
X027001Y019860D02*
X026901Y019860D01*
X026901Y019958D02*
X027001Y019958D01*
X027001Y020057D02*
X026901Y020057D01*
X026109Y019170D02*
X020146Y019170D01*
X020091Y019071D02*
X026139Y019071D01*
X026180Y018973D02*
X019047Y018973D01*
X019088Y019071D02*
X019732Y019071D01*
X019677Y019170D02*
X019129Y019170D01*
X018953Y018874D02*
X026221Y018874D01*
X026296Y018776D02*
X018855Y018776D01*
X018630Y018677D02*
X026394Y018677D01*
X026519Y018579D02*
X015743Y018579D01*
X015727Y018595D02*
X015639Y018631D01*
X015544Y018631D01*
X015455Y018595D01*
X015388Y018527D01*
X015351Y018439D01*
X015351Y018343D01*
X015388Y018255D01*
X015455Y018188D01*
X015544Y018151D01*
X015639Y018151D01*
X015727Y018188D01*
X015795Y018255D01*
X015831Y018343D01*
X015831Y018439D01*
X015795Y018527D01*
X015727Y018595D01*
X015814Y018480D02*
X026757Y018480D01*
X026630Y017790D02*
X020973Y017790D01*
X020963Y017813D02*
X020893Y017883D01*
X020801Y017921D01*
X020702Y017921D01*
X020610Y017883D01*
X020539Y017813D01*
X020501Y017721D01*
X020501Y017621D01*
X020539Y017530D01*
X020610Y017459D01*
X020702Y017421D01*
X020801Y017421D01*
X020893Y017459D01*
X020963Y017530D01*
X021001Y017621D01*
X021001Y017721D01*
X020963Y017813D01*
X020879Y017889D02*
X028830Y017889D01*
X028830Y017988D02*
X028930Y017988D01*
X028930Y018086D02*
X028830Y018086D01*
X028830Y018185D02*
X028930Y018185D01*
X028930Y018283D02*
X028830Y018283D01*
X028830Y018382D02*
X028930Y018382D01*
X028930Y018480D02*
X028830Y018480D01*
X028830Y018579D02*
X028930Y018579D01*
X028930Y018677D02*
X028830Y018677D01*
X028155Y018382D02*
X015831Y018382D01*
X015806Y018283D02*
X028114Y018283D01*
X028073Y018185D02*
X015720Y018185D01*
X015463Y018185D02*
X015291Y018185D01*
X015291Y018199D02*
X015255Y018287D01*
X015187Y018355D01*
X015099Y018391D01*
X015004Y018391D01*
X014915Y018355D01*
X014848Y018287D01*
X014811Y018199D01*
X014811Y018103D01*
X014848Y018015D01*
X014915Y017948D01*
X015004Y017911D01*
X015099Y017911D01*
X015187Y017948D01*
X015255Y018015D01*
X015291Y018103D01*
X015291Y018199D01*
X015256Y018283D02*
X015376Y018283D01*
X015351Y018382D02*
X015122Y018382D01*
X014981Y018382D02*
X014462Y018382D01*
X014439Y018391D02*
X014344Y018391D01*
X014255Y018355D01*
X014188Y018287D01*
X014211Y018343D01*
X014211Y018439D01*
X014175Y018527D01*
X014107Y018595D01*
X014019Y018631D01*
X013924Y018631D01*
X013835Y018595D01*
X013768Y018527D01*
X013731Y018439D01*
X013731Y018343D01*
X013768Y018255D01*
X013835Y018188D01*
X013924Y018151D01*
X014019Y018151D01*
X014107Y018188D01*
X014175Y018255D01*
X014151Y018199D01*
X014151Y018103D01*
X014188Y018015D01*
X014255Y017948D01*
X014344Y017911D01*
X014439Y017911D01*
X014527Y017948D01*
X014595Y018015D01*
X014631Y018103D01*
X014631Y018199D01*
X014595Y018287D01*
X014527Y018355D01*
X014439Y018391D01*
X014321Y018382D02*
X014211Y018382D01*
X014194Y018480D02*
X015368Y018480D01*
X015440Y018579D02*
X014123Y018579D01*
X013820Y018579D02*
X003623Y018579D01*
X003607Y018595D02*
X003519Y018631D01*
X003424Y018631D01*
X003335Y018595D01*
X003268Y018527D01*
X003231Y018439D01*
X003231Y018343D01*
X003268Y018255D01*
X003335Y018188D01*
X003424Y018151D01*
X003519Y018151D01*
X003607Y018188D01*
X003675Y018255D01*
X003711Y018343D01*
X003711Y018439D01*
X003675Y018527D01*
X003607Y018595D01*
X003694Y018480D02*
X013748Y018480D01*
X013731Y018382D02*
X012122Y018382D01*
X012099Y018391D02*
X012004Y018391D01*
X011915Y018355D01*
X011848Y018287D01*
X011811Y018199D01*
X011811Y018103D01*
X011848Y018015D01*
X011915Y017948D01*
X012004Y017911D01*
X012099Y017911D01*
X012187Y017948D01*
X012255Y018015D01*
X012291Y018103D01*
X012291Y018199D01*
X012255Y018287D01*
X012187Y018355D01*
X012099Y018391D01*
X011981Y018382D02*
X003711Y018382D01*
X003686Y018283D02*
X011846Y018283D01*
X011811Y018185D02*
X003600Y018185D01*
X003343Y018185D02*
X000621Y018185D01*
X000621Y018283D02*
X003256Y018283D01*
X003231Y018382D02*
X000621Y018382D01*
X000621Y018480D02*
X001391Y018480D01*
X001410Y018461D02*
X001554Y018401D01*
X001709Y018401D01*
X001852Y018461D01*
X001962Y018570D01*
X002021Y018714D01*
X002021Y018869D01*
X001962Y019012D01*
X001852Y019122D01*
X001709Y019181D01*
X001554Y019181D01*
X001410Y019122D01*
X001301Y019012D01*
X001241Y018869D01*
X001241Y018714D01*
X001301Y018570D01*
X001410Y018461D01*
X001297Y018579D02*
X000621Y018579D01*
X000621Y018677D02*
X001256Y018677D01*
X001241Y018776D02*
X000621Y018776D01*
X000621Y018874D02*
X001244Y018874D01*
X001285Y018973D02*
X000621Y018973D01*
X000621Y019071D02*
X001360Y019071D01*
X001527Y019170D02*
X000621Y019170D01*
X000621Y019466D02*
X001405Y019466D01*
X001410Y019461D02*
X001554Y019401D01*
X001709Y019401D01*
X001852Y019461D01*
X001962Y019570D01*
X002021Y019714D01*
X002021Y019869D01*
X001962Y020012D01*
X001852Y020122D01*
X001709Y020181D01*
X001554Y020181D01*
X001410Y020122D01*
X001301Y020012D01*
X001241Y019869D01*
X001241Y019714D01*
X001301Y019570D01*
X001410Y019461D01*
X001307Y019564D02*
X000621Y019564D01*
X000621Y019663D02*
X001262Y019663D01*
X001241Y019761D02*
X000621Y019761D01*
X000621Y019860D02*
X001241Y019860D01*
X001279Y019958D02*
X000621Y019958D01*
X000621Y020057D02*
X001346Y020057D01*
X001492Y020155D02*
X000621Y020155D01*
X000621Y020254D02*
X032533Y020254D01*
X032533Y020353D02*
X000621Y020353D01*
X000621Y020451D02*
X001433Y020451D01*
X001410Y020461D02*
X001554Y020401D01*
X001709Y020401D01*
X001852Y020461D01*
X001962Y020570D01*
X002021Y020714D01*
X002021Y020869D01*
X001962Y021012D01*
X001852Y021122D01*
X001709Y021181D01*
X001554Y021181D01*
X001410Y021122D01*
X001301Y021012D01*
X001241Y020869D01*
X001241Y020714D01*
X001301Y020570D01*
X001410Y020461D01*
X001321Y020550D02*
X000621Y020550D01*
X000621Y020648D02*
X001268Y020648D01*
X001241Y020747D02*
X000621Y020747D01*
X000621Y020845D02*
X001241Y020845D01*
X001272Y020944D02*
X000621Y020944D01*
X000621Y021042D02*
X001331Y021042D01*
X001457Y021141D02*
X000621Y021141D01*
X000621Y021239D02*
X011024Y021239D01*
X011008Y021255D02*
X011075Y021188D01*
X011164Y021151D01*
X011259Y021151D01*
X011347Y021188D01*
X011415Y021255D01*
X011451Y021343D01*
X011451Y021439D01*
X011415Y021527D01*
X011347Y021595D01*
X011259Y021631D01*
X011164Y021631D01*
X011075Y021595D01*
X011008Y021527D01*
X010971Y021439D01*
X010971Y021343D01*
X011008Y021255D01*
X010974Y021338D02*
X000621Y021338D01*
X000621Y021437D02*
X010971Y021437D01*
X011016Y021535D02*
X000621Y021535D01*
X000621Y021634D02*
X011869Y021634D01*
X011828Y021535D02*
X011407Y021535D01*
X011451Y021437D02*
X011795Y021437D01*
X011795Y021338D02*
X011449Y021338D01*
X011399Y021239D02*
X011795Y021239D01*
X011808Y021141D02*
X002806Y021141D01*
X002852Y021122D02*
X002709Y021181D01*
X002554Y021181D01*
X002410Y021122D01*
X002301Y021012D01*
X002241Y020869D01*
X002241Y020714D01*
X002301Y020570D01*
X002410Y020461D01*
X002554Y020401D01*
X002709Y020401D01*
X002852Y020461D01*
X002962Y020570D01*
X003021Y020714D01*
X003021Y020869D01*
X002962Y021012D01*
X002852Y021122D01*
X002932Y021042D02*
X011849Y021042D01*
X011890Y020944D02*
X002990Y020944D01*
X003021Y020845D02*
X011971Y020845D01*
X012070Y020747D02*
X003021Y020747D01*
X002994Y020648D02*
X012264Y020648D01*
X012738Y020648D02*
X018445Y020648D01*
X018251Y020747D02*
X012932Y020747D01*
X013030Y020845D02*
X018152Y020845D01*
X018071Y020944D02*
X013111Y020944D01*
X013152Y021042D02*
X018030Y021042D01*
X017989Y021141D02*
X013193Y021141D01*
X013207Y021239D02*
X017976Y021239D01*
X017976Y021338D02*
X013207Y021338D01*
X013207Y021437D02*
X017976Y021437D01*
X018009Y021535D02*
X013173Y021535D01*
X013132Y021634D02*
X018050Y021634D01*
X018102Y021732D02*
X013081Y021732D01*
X012982Y021831D02*
X018200Y021831D01*
X019163Y021831D02*
X032533Y021831D01*
X032533Y021732D02*
X019262Y021732D01*
X019314Y021634D02*
X032533Y021634D01*
X032533Y021535D02*
X019354Y021535D01*
X019388Y021437D02*
X032533Y021437D01*
X032533Y021338D02*
X020304Y021338D01*
X020287Y021355D02*
X020355Y021287D01*
X020391Y021199D01*
X020391Y021103D01*
X020355Y021015D01*
X020287Y020948D01*
X020199Y020911D01*
X020104Y020911D01*
X020015Y020948D01*
X019948Y021015D01*
X019911Y021103D01*
X019911Y021199D01*
X019948Y021287D01*
X020015Y021355D01*
X020104Y021391D01*
X020199Y021391D01*
X020287Y021355D01*
X020375Y021239D02*
X032533Y021239D01*
X032533Y021141D02*
X020391Y021141D01*
X020366Y021042D02*
X032533Y021042D01*
X032533Y020944D02*
X020278Y020944D01*
X020025Y020944D02*
X019293Y020944D01*
X019333Y021042D02*
X019937Y021042D01*
X019911Y021141D02*
X019374Y021141D01*
X019388Y021239D02*
X019928Y021239D01*
X019999Y021338D02*
X019388Y021338D01*
X019211Y020845D02*
X019669Y020845D01*
X019684Y020851D02*
X019595Y020815D01*
X019528Y020747D01*
X019491Y020659D01*
X019491Y020563D01*
X019528Y020475D01*
X019595Y020408D01*
X019684Y020371D01*
X019779Y020371D01*
X019867Y020408D01*
X019935Y020475D01*
X019971Y020563D01*
X019971Y020659D01*
X019935Y020747D01*
X019867Y020815D01*
X019779Y020851D01*
X019684Y020851D01*
X019793Y020845D02*
X032533Y020845D01*
X032533Y020747D02*
X019935Y020747D01*
X019971Y020648D02*
X032533Y020648D01*
X032533Y020550D02*
X019966Y020550D01*
X019911Y020451D02*
X032533Y020451D01*
X032533Y017790D02*
X029723Y017790D01*
X029692Y017692D02*
X032533Y017692D01*
X032533Y017593D02*
X029651Y017593D01*
X029610Y017495D02*
X032533Y017495D01*
X032533Y017396D02*
X029534Y017396D01*
X029436Y017298D02*
X032533Y017298D01*
X032533Y017199D02*
X029309Y017199D01*
X028690Y017101D02*
X027852Y017101D01*
X027822Y017199D02*
X028452Y017199D01*
X028325Y017298D02*
X027782Y017298D01*
X027741Y017396D02*
X028226Y017396D01*
X028151Y017495D02*
X027679Y017495D01*
X027581Y017593D02*
X028110Y017593D01*
X028069Y017692D02*
X027482Y017692D01*
X027273Y017790D02*
X028038Y017790D01*
X028038Y017988D02*
X015227Y017988D01*
X015284Y018086D02*
X028038Y018086D01*
X026421Y017692D02*
X021001Y017692D01*
X020990Y017593D02*
X026322Y017593D01*
X026224Y017495D02*
X020928Y017495D01*
X020574Y017495D02*
X016580Y017495D01*
X016575Y017507D02*
X016507Y017575D01*
X016419Y017611D01*
X016324Y017611D01*
X016235Y017575D01*
X016168Y017507D01*
X016131Y017419D01*
X016131Y017323D01*
X016168Y017235D01*
X016235Y017168D01*
X016324Y017131D01*
X016419Y017131D01*
X016507Y017168D01*
X016575Y017235D01*
X016611Y017323D01*
X016611Y017419D01*
X016575Y017507D01*
X016611Y017396D02*
X026162Y017396D01*
X026121Y017298D02*
X017564Y017298D01*
X017595Y017267D02*
X017527Y017335D01*
X017439Y017371D01*
X017344Y017371D01*
X017255Y017335D01*
X017211Y017291D01*
X017167Y017335D01*
X017079Y017371D01*
X016984Y017371D01*
X016895Y017335D01*
X016828Y017267D01*
X016791Y017179D01*
X016791Y017083D01*
X016828Y016995D01*
X016895Y016928D01*
X016984Y016891D01*
X017079Y016891D01*
X017167Y016928D01*
X017211Y016972D01*
X017255Y016928D01*
X017344Y016891D01*
X017439Y016891D01*
X017527Y016928D01*
X017595Y016995D01*
X017631Y017083D01*
X017631Y017179D01*
X017595Y017267D01*
X017623Y017199D02*
X026080Y017199D01*
X026051Y017101D02*
X017631Y017101D01*
X017598Y017002D02*
X026051Y017002D01*
X026051Y016904D02*
X017469Y016904D01*
X017314Y016904D02*
X017109Y016904D01*
X016954Y016904D02*
X003007Y016904D01*
X003021Y016869D02*
X002962Y017012D01*
X002852Y017122D01*
X002709Y017181D01*
X002554Y017181D01*
X002410Y017122D01*
X002301Y017012D01*
X002241Y016869D01*
X002241Y016714D01*
X002301Y016570D01*
X002410Y016461D01*
X002554Y016401D01*
X002709Y016401D01*
X002852Y016461D01*
X002962Y016570D01*
X003021Y016714D01*
X003021Y016869D01*
X003021Y016805D02*
X026051Y016805D01*
X026077Y016706D02*
X016715Y016706D01*
X016687Y016735D02*
X016599Y016771D01*
X016504Y016771D01*
X016415Y016735D01*
X016348Y016667D01*
X016311Y016579D01*
X016311Y016483D01*
X016348Y016395D01*
X016415Y016328D01*
X016504Y016291D01*
X016599Y016291D01*
X016687Y016328D01*
X016755Y016395D01*
X016791Y016483D01*
X016791Y016579D01*
X016755Y016667D01*
X016687Y016735D01*
X016779Y016608D02*
X026118Y016608D01*
X026159Y016509D02*
X016791Y016509D01*
X016761Y016411D02*
X026216Y016411D01*
X026314Y016312D02*
X016650Y016312D01*
X016453Y016312D02*
X000621Y016312D01*
X000621Y016214D02*
X002528Y016214D01*
X002546Y016221D02*
X002388Y016156D01*
X002267Y016035D01*
X002201Y015877D01*
X002201Y015831D01*
X002591Y015831D01*
X002591Y015751D01*
X002201Y015751D01*
X002201Y015706D01*
X002267Y015548D01*
X002388Y015427D01*
X002546Y015361D01*
X002591Y015361D01*
X002591Y015751D01*
X002671Y015751D01*
X002671Y015361D01*
X002717Y015361D01*
X002875Y015427D01*
X002996Y015548D01*
X003061Y015706D01*
X003061Y015751D01*
X002672Y015751D01*
X002672Y015831D01*
X003061Y015831D01*
X003061Y015877D01*
X002996Y016035D01*
X002875Y016156D01*
X002717Y016221D01*
X002671Y016221D01*
X002671Y015831D01*
X002591Y015831D01*
X002591Y016221D01*
X002546Y016221D01*
X002591Y016214D02*
X002671Y016214D01*
X002735Y016214D02*
X003294Y016214D01*
X003238Y016115D02*
X002915Y016115D01*
X003003Y016017D02*
X003231Y016017D01*
X003267Y015918D02*
X003044Y015918D01*
X003061Y015721D02*
X016689Y015721D01*
X016671Y015622D02*
X003027Y015622D01*
X002972Y015524D02*
X016105Y015524D01*
X016031Y015425D02*
X002872Y015425D01*
X002671Y015425D02*
X002591Y015425D01*
X002591Y015524D02*
X002671Y015524D01*
X002671Y015622D02*
X002591Y015622D01*
X002591Y015721D02*
X002671Y015721D01*
X002672Y015820D02*
X003403Y015820D01*
X003539Y015820D02*
X016760Y015820D01*
X016696Y015524D02*
X016398Y015524D01*
X016472Y015425D02*
X016781Y015425D01*
X016853Y015327D02*
X016491Y015327D01*
X016468Y015228D02*
X016709Y015228D01*
X016671Y015130D02*
X016389Y015130D01*
X016011Y015327D02*
X000621Y015327D01*
X000621Y015425D02*
X001495Y015425D01*
X001554Y015401D02*
X001709Y015401D01*
X001852Y015461D01*
X001962Y015570D01*
X002021Y015714D01*
X002021Y015869D01*
X001962Y016012D01*
X001852Y016122D01*
X001709Y016181D01*
X001554Y016181D01*
X001410Y016122D01*
X001301Y016012D01*
X001241Y015869D01*
X001241Y015714D01*
X001301Y015570D01*
X001410Y015461D01*
X001554Y015401D01*
X001767Y015425D02*
X002391Y015425D01*
X002290Y015524D02*
X001916Y015524D01*
X001984Y015622D02*
X002236Y015622D01*
X002201Y015721D02*
X002021Y015721D01*
X002021Y015820D02*
X002591Y015820D01*
X002591Y015918D02*
X002671Y015918D01*
X002671Y016017D02*
X002591Y016017D01*
X002591Y016115D02*
X002671Y016115D01*
X002732Y016411D02*
X016341Y016411D01*
X016311Y016509D02*
X002901Y016509D01*
X002978Y016608D02*
X016323Y016608D01*
X016387Y016706D02*
X003018Y016706D01*
X002966Y017002D02*
X016825Y017002D01*
X016791Y017101D02*
X002873Y017101D01*
X002709Y017401D02*
X002852Y017461D01*
X002962Y017570D01*
X003021Y017714D01*
X003021Y017869D01*
X002962Y018012D01*
X002852Y018122D01*
X002709Y018181D01*
X002554Y018181D01*
X002410Y018122D01*
X002301Y018012D01*
X002241Y017869D01*
X002241Y017714D01*
X002301Y017570D01*
X002410Y017461D01*
X002554Y017401D01*
X002709Y017401D01*
X002886Y017495D02*
X003598Y017495D01*
X003591Y017479D02*
X003591Y017383D01*
X003628Y017295D01*
X003695Y017228D01*
X003784Y017191D01*
X003879Y017191D01*
X003967Y017228D01*
X004035Y017295D01*
X004071Y017383D01*
X004071Y017479D01*
X004035Y017567D01*
X003967Y017635D01*
X003879Y017671D01*
X003784Y017671D01*
X003695Y017635D01*
X003628Y017567D01*
X003591Y017479D01*
X003591Y017396D02*
X000621Y017396D01*
X000621Y017298D02*
X003627Y017298D01*
X003764Y017199D02*
X000621Y017199D01*
X000621Y017101D02*
X001389Y017101D01*
X001410Y017122D02*
X001301Y017012D01*
X001241Y016869D01*
X001241Y016714D01*
X001301Y016570D01*
X001410Y016461D01*
X001554Y016401D01*
X001709Y016401D01*
X001852Y016461D01*
X001962Y016570D01*
X002021Y016714D01*
X002021Y016869D01*
X001962Y017012D01*
X001852Y017122D01*
X001709Y017181D01*
X001554Y017181D01*
X001410Y017122D01*
X001297Y017002D02*
X000621Y017002D01*
X000621Y016904D02*
X001256Y016904D01*
X001241Y016805D02*
X000621Y016805D01*
X000621Y016706D02*
X001244Y016706D01*
X001285Y016608D02*
X000621Y016608D01*
X000621Y016509D02*
X001362Y016509D01*
X001530Y016411D02*
X000621Y016411D01*
X000621Y016115D02*
X001404Y016115D01*
X001305Y016017D02*
X000621Y016017D01*
X000621Y015918D02*
X001262Y015918D01*
X001241Y015820D02*
X000621Y015820D01*
X000621Y015721D02*
X001241Y015721D01*
X001279Y015622D02*
X000621Y015622D01*
X000621Y015524D02*
X001347Y015524D01*
X001833Y015130D02*
X002430Y015130D01*
X002320Y015031D02*
X001943Y015031D01*
X001995Y014933D02*
X002268Y014933D01*
X002241Y014834D02*
X002021Y014834D01*
X002021Y014736D02*
X002241Y014736D01*
X002273Y014637D02*
X001990Y014637D01*
X001930Y014539D02*
X002332Y014539D01*
X002460Y014440D02*
X001803Y014440D01*
X001798Y014144D02*
X002465Y014144D01*
X002334Y014046D02*
X001928Y014046D01*
X001989Y013947D02*
X002274Y013947D01*
X002241Y013849D02*
X002021Y013849D01*
X002021Y013750D02*
X002241Y013750D01*
X002267Y013652D02*
X001996Y013652D01*
X001945Y013553D02*
X002318Y013553D01*
X002425Y013455D02*
X001838Y013455D01*
X002763Y013159D02*
X005400Y013159D01*
X005340Y013060D02*
X002914Y013060D01*
X002983Y012962D02*
X005331Y012962D01*
X005365Y012863D02*
X003021Y012863D01*
X002899Y012075D02*
X010948Y012075D01*
X010872Y012173D02*
X010853Y012173D01*
X011234Y012075D02*
X013851Y012075D01*
X013637Y011976D02*
X002977Y011976D01*
X003018Y011878D02*
X013567Y011878D01*
X013551Y011779D02*
X003021Y011779D01*
X003008Y011681D02*
X013577Y011681D01*
X013669Y011582D02*
X002967Y011582D01*
X005743Y013159D02*
X020791Y013159D01*
X020853Y013060D02*
X005802Y013060D01*
X002219Y015918D02*
X002001Y015918D01*
X001957Y016017D02*
X002259Y016017D01*
X002347Y016115D02*
X001859Y016115D01*
X001732Y016411D02*
X002530Y016411D01*
X002362Y016509D02*
X001901Y016509D01*
X001978Y016608D02*
X002285Y016608D01*
X002244Y016706D02*
X002018Y016706D01*
X002021Y016805D02*
X002241Y016805D01*
X002256Y016904D02*
X002007Y016904D01*
X001966Y017002D02*
X002297Y017002D01*
X002389Y017101D02*
X001873Y017101D01*
X001709Y017401D02*
X001852Y017461D01*
X001962Y017570D01*
X002021Y017714D01*
X002021Y017869D01*
X001962Y018012D01*
X001852Y018122D01*
X001709Y018181D01*
X001554Y018181D01*
X001410Y018122D01*
X001301Y018012D01*
X001241Y017869D01*
X001241Y017714D01*
X001301Y017570D01*
X001410Y017461D01*
X001554Y017401D01*
X001709Y017401D01*
X001886Y017495D02*
X002376Y017495D01*
X002291Y017593D02*
X001971Y017593D01*
X002012Y017692D02*
X002250Y017692D01*
X002241Y017790D02*
X002021Y017790D01*
X002013Y017889D02*
X002250Y017889D01*
X002291Y017988D02*
X001972Y017988D01*
X001888Y018086D02*
X002375Y018086D01*
X002391Y018480D02*
X001872Y018480D01*
X001965Y018579D02*
X002297Y018579D01*
X002256Y018677D02*
X002006Y018677D01*
X002021Y018776D02*
X002241Y018776D01*
X002244Y018874D02*
X002019Y018874D01*
X001978Y018973D02*
X002285Y018973D01*
X002360Y019071D02*
X001903Y019071D01*
X001736Y019170D02*
X002527Y019170D01*
X002405Y019466D02*
X001857Y019466D01*
X001956Y019564D02*
X002307Y019564D01*
X002262Y019663D02*
X002000Y019663D01*
X002021Y019761D02*
X002241Y019761D01*
X002241Y019860D02*
X002021Y019860D01*
X001984Y019958D02*
X002279Y019958D01*
X002346Y020057D02*
X001917Y020057D01*
X001771Y020155D02*
X002492Y020155D01*
X002433Y020451D02*
X001829Y020451D01*
X001941Y020550D02*
X002321Y020550D01*
X002268Y020648D02*
X001994Y020648D01*
X002021Y020747D02*
X002241Y020747D01*
X002241Y020845D02*
X002021Y020845D01*
X001990Y020944D02*
X002272Y020944D01*
X002331Y021042D02*
X001932Y021042D01*
X001806Y021141D02*
X002457Y021141D01*
X002941Y020550D02*
X019497Y020550D01*
X019491Y020648D02*
X018919Y020648D01*
X019113Y020747D02*
X019528Y020747D01*
X019552Y020451D02*
X002829Y020451D01*
X000621Y021732D02*
X011921Y021732D01*
X012019Y021831D02*
X000621Y021831D01*
X002965Y018579D02*
X003320Y018579D01*
X003248Y018480D02*
X002872Y018480D01*
X002888Y018086D02*
X011819Y018086D01*
X011876Y017988D02*
X002972Y017988D01*
X003013Y017889D02*
X010424Y017889D01*
X010410Y017883D02*
X010339Y017813D01*
X010301Y017721D01*
X010301Y017621D01*
X010339Y017530D01*
X010410Y017459D01*
X010502Y017421D01*
X010601Y017421D01*
X010693Y017459D01*
X010763Y017530D01*
X010801Y017621D01*
X010801Y017721D01*
X010763Y017813D01*
X010693Y017883D01*
X010601Y017921D01*
X010502Y017921D01*
X010410Y017883D01*
X010330Y017790D02*
X003021Y017790D01*
X003012Y017692D02*
X010301Y017692D01*
X010313Y017593D02*
X006409Y017593D01*
X006435Y017567D02*
X006367Y017635D01*
X006279Y017671D01*
X006184Y017671D01*
X006095Y017635D01*
X006028Y017567D01*
X005991Y017479D01*
X005991Y017383D01*
X006028Y017295D01*
X006095Y017228D01*
X006184Y017191D01*
X006279Y017191D01*
X006367Y017228D01*
X006435Y017295D01*
X006471Y017383D01*
X006471Y017479D01*
X006435Y017567D01*
X006465Y017495D02*
X010374Y017495D01*
X010728Y017495D02*
X016163Y017495D01*
X016131Y017396D02*
X006471Y017396D01*
X006436Y017298D02*
X016142Y017298D01*
X016204Y017199D02*
X006298Y017199D01*
X006164Y017199D02*
X003898Y017199D01*
X004036Y017298D02*
X006027Y017298D01*
X005991Y017396D02*
X004071Y017396D01*
X004065Y017495D02*
X005998Y017495D01*
X006054Y017593D02*
X004009Y017593D01*
X003654Y017593D02*
X002971Y017593D01*
X003648Y016214D02*
X026413Y016214D01*
X026611Y016115D02*
X003705Y016115D01*
X001376Y017495D02*
X000621Y017495D01*
X000621Y017593D02*
X001291Y017593D01*
X001250Y017692D02*
X000621Y017692D01*
X000621Y017790D02*
X001241Y017790D01*
X001250Y017889D02*
X000621Y017889D01*
X000621Y017988D02*
X001291Y017988D01*
X001375Y018086D02*
X000621Y018086D01*
X010679Y017889D02*
X020624Y017889D01*
X020530Y017790D02*
X010773Y017790D01*
X010801Y017692D02*
X020501Y017692D01*
X020513Y017593D02*
X016462Y017593D01*
X016281Y017593D02*
X010790Y017593D01*
X012227Y017988D02*
X014216Y017988D01*
X014159Y018086D02*
X012284Y018086D01*
X012291Y018185D02*
X013843Y018185D01*
X013756Y018283D02*
X012256Y018283D01*
X014100Y018185D02*
X014151Y018185D01*
X014596Y018283D02*
X014846Y018283D01*
X014811Y018185D02*
X014631Y018185D01*
X014624Y018086D02*
X014819Y018086D01*
X014876Y017988D02*
X014567Y017988D01*
X016539Y017199D02*
X016800Y017199D01*
X016858Y017298D02*
X016601Y017298D01*
X017204Y017298D02*
X017218Y017298D01*
X017114Y015228D02*
X020794Y015228D01*
X020781Y015130D02*
X017151Y015130D01*
X017146Y015031D02*
X020811Y015031D01*
X020922Y014933D02*
X017092Y014933D01*
X015411Y014834D02*
X019015Y014834D01*
X018958Y014736D02*
X015408Y014736D01*
X013530Y012469D02*
X013273Y012469D01*
X013311Y012371D02*
X013491Y012371D01*
X013496Y012272D02*
X013307Y012272D01*
X013253Y012173D02*
X013550Y012173D01*
X012890Y012173D02*
X012353Y012173D01*
X012407Y012272D02*
X012836Y012272D01*
X012831Y012371D02*
X012411Y012371D01*
X012373Y012469D02*
X012870Y012469D01*
X011970Y012469D02*
X011233Y012469D01*
X011310Y012371D02*
X011931Y012371D01*
X011936Y012272D02*
X011331Y012272D01*
X011311Y012173D02*
X011990Y012173D01*
X010950Y012469D02*
X010873Y012469D01*
X010911Y010794D02*
X013655Y010794D01*
X013575Y010695D02*
X010875Y010695D01*
X011975Y009175D02*
X011908Y009107D01*
X011871Y009019D01*
X011871Y008923D01*
X011908Y008835D01*
X011975Y008768D01*
X012064Y008731D01*
X012159Y008731D01*
X012247Y008768D01*
X012315Y008835D01*
X012351Y008923D01*
X012351Y009019D01*
X012315Y009107D01*
X012247Y009175D01*
X012159Y009211D01*
X012064Y009211D01*
X011975Y009175D01*
X011919Y009119D02*
X010983Y009119D01*
X011031Y009020D02*
X011872Y009020D01*
X011872Y008922D02*
X011031Y008922D01*
X010983Y008823D02*
X011920Y008823D01*
X012303Y008823D02*
X012880Y008823D01*
X012832Y008922D02*
X012351Y008922D01*
X012351Y009020D02*
X012832Y009020D01*
X012879Y009119D02*
X012303Y009119D01*
X015239Y010498D02*
X017991Y010498D01*
X018026Y010400D02*
X015326Y010400D01*
X014947Y011976D02*
X014304Y011976D01*
X014331Y012075D02*
X014883Y012075D01*
X014871Y012173D02*
X014317Y012173D01*
X014250Y012272D02*
X014902Y012272D01*
X015375Y007246D02*
X017248Y007246D01*
X017211Y007148D02*
X015411Y007148D01*
X015405Y007049D02*
X017039Y007049D01*
X017144Y007049D02*
X017217Y007049D01*
X016891Y006951D02*
X015350Y006951D01*
X012667Y002575D02*
X012579Y002611D01*
X012484Y002611D01*
X012395Y002575D01*
X012328Y002507D01*
X012291Y002419D01*
X012291Y002323D01*
X012328Y002235D01*
X012395Y002168D01*
X012484Y002131D01*
X012579Y002131D01*
X012667Y002168D01*
X012735Y002235D01*
X012771Y002323D01*
X012771Y002419D01*
X012735Y002507D01*
X012667Y002575D01*
X012726Y002516D02*
X014257Y002516D01*
X014211Y002418D02*
X012771Y002418D01*
X012769Y002319D02*
X014213Y002319D01*
X014262Y002221D02*
X012720Y002221D01*
X012342Y002221D02*
X007440Y002221D01*
X007489Y002319D02*
X012293Y002319D01*
X012291Y002418D02*
X007491Y002418D01*
X007446Y002516D02*
X012337Y002516D01*
X010886Y002024D02*
X003616Y002024D01*
X003651Y001925D02*
X010851Y001925D01*
X010858Y001826D02*
X003644Y001826D01*
X003587Y001728D02*
X010915Y001728D01*
X002479Y001432D02*
X001784Y001432D01*
X001922Y001531D02*
X002340Y001531D01*
X002276Y001629D02*
X001986Y001629D01*
X002021Y001728D02*
X002241Y001728D01*
X002241Y001826D02*
X002021Y001826D01*
X001998Y001925D02*
X002265Y001925D01*
X002312Y002024D02*
X001951Y002024D01*
X001852Y002122D02*
X002411Y002122D01*
X001344Y008527D02*
X000621Y008527D01*
X000621Y008626D02*
X001278Y008626D01*
X001241Y008724D02*
X000621Y008724D01*
X000621Y008823D02*
X001241Y008823D01*
X001263Y008922D02*
X000621Y008922D01*
X000621Y009020D02*
X001309Y009020D01*
X001407Y009119D02*
X000621Y009119D01*
X014959Y019466D02*
X015204Y019466D01*
X015171Y019564D02*
X014991Y019564D01*
X014981Y019663D02*
X015181Y019663D01*
X015242Y019761D02*
X014921Y019761D01*
X015581Y019761D02*
X017846Y019761D01*
X017805Y019663D02*
X015641Y019663D01*
X015651Y019564D02*
X017764Y019564D01*
X017740Y019466D02*
X015619Y019466D01*
X019671Y019279D02*
X019708Y019367D01*
D16*
X019911Y019231D03*
X019731Y020611D03*
X020151Y021151D03*
X017211Y019771D03*
X015411Y019591D03*
X015111Y019771D03*
X015411Y019951D03*
X014751Y019591D03*
X014391Y019591D03*
X013911Y019591D03*
X013971Y018391D03*
X014391Y018151D03*
X015051Y018151D03*
X015591Y018391D03*
X016371Y017371D03*
X017031Y017131D03*
X017391Y017131D03*
X016551Y016531D03*
X016911Y015631D03*
X016911Y015091D03*
X016251Y015331D03*
X015171Y014791D03*
X014691Y014551D03*
X014631Y014191D03*
X015411Y014491D03*
X016011Y014371D03*
X015531Y013471D03*
X015531Y012511D03*
X015111Y012151D03*
X014091Y012091D03*
X013791Y011791D03*
X013491Y011431D03*
X013491Y011071D03*
X013491Y010711D03*
X013791Y010591D03*
X013491Y010351D03*
X014091Y010291D03*
X013911Y009571D03*
X013071Y008971D03*
X012111Y008971D03*
X010791Y008971D03*
X010671Y009991D03*
X010671Y010831D03*
X012111Y011851D03*
X012171Y012331D03*
X013071Y012331D03*
X013731Y012331D03*
X011091Y012271D03*
X010671Y012331D03*
X009531Y013711D03*
X008211Y013231D03*
X007791Y011791D03*
X007791Y010831D03*
X007851Y009691D03*
X007851Y008731D03*
X005991Y010351D03*
X005451Y010951D03*
X006231Y011251D03*
X005091Y010291D03*
X003831Y010591D03*
X003471Y009631D03*
X004311Y008251D03*
X001971Y008131D03*
X004131Y005131D03*
X006591Y004231D03*
X006471Y003151D03*
X007251Y002371D03*
X009051Y003151D03*
X009291Y002911D03*
X011091Y001891D03*
X012531Y002371D03*
X014451Y002371D03*
X014451Y001471D03*
X017451Y002551D03*
X020211Y004171D03*
X020811Y004891D03*
X022311Y004591D03*
X019071Y004531D03*
X017331Y005431D03*
X016431Y006451D03*
X017091Y006811D03*
X017451Y007111D03*
X017391Y007531D03*
X018351Y008251D03*
X020391Y009151D03*
X018231Y010531D03*
X015111Y010291D03*
X013551Y008011D03*
X014511Y007411D03*
X014871Y007891D03*
X015171Y007111D03*
X015411Y006211D03*
X013671Y006931D03*
X010611Y006631D03*
X008571Y006691D03*
X010251Y004651D03*
X003411Y001891D03*
X005571Y012991D03*
X003471Y016051D03*
X003831Y017431D03*
X003471Y018391D03*
X006231Y017431D03*
X009531Y016171D03*
X011391Y014791D03*
X012051Y018151D03*
X011211Y019351D03*
X011211Y021391D03*
X017871Y015751D03*
X019191Y014671D03*
X017331Y014371D03*
X020451Y012931D03*
X021021Y013231D03*
X022311Y013171D03*
X023751Y012631D03*
X026691Y012751D03*
X028611Y012751D03*
X031491Y012691D03*
X028311Y010291D03*
X028011Y009091D03*
X024111Y009511D03*
X022731Y010291D03*
X021171Y007531D03*
X025731Y003571D03*
X029811Y002731D03*
X021021Y015151D03*
D17*
X020751Y017671D03*
X010551Y017671D03*
M02*
