%
M48
M72
T01C0.0100
T02C0.0120
T03C0.0320
T04C0.0360
T05C0.0394
T06C0.0512
T07C0.0984
T08C0.1181
%
T01
X3411Y1891
X6471Y3151
X7251Y2371
X9051Y3151
X9291Y2911
X11091Y1891
X12531Y2371
X14451Y2371
X14451Y1471
X17451Y2551
X20211Y4171
X20811Y4891
X22311Y4591
X19071Y4531
X17331Y5431
X16431Y6451
X17091Y6811
X17451Y7111
X17391Y7531
X18351Y8251
X20391Y9151
X18231Y10531
X15111Y10291
X14091Y10291
X13791Y10591
X13491Y10711
X13491Y10351
X13491Y11071
X13491Y11431
X13791Y11791
X14091Y12091
X13731Y12331
X13071Y12331
X12171Y12331
X12111Y11851
X11091Y12271
X10671Y12331
X10671Y10831
X10671Y9991
X10791Y8971
X12111Y8971
X13071Y8971
X13911Y9571
X13551Y8011
X14511Y7411
X14871Y7891
X15171Y7111
X15411Y6211
X13671Y6931
X10611Y6631
X8571Y6691
X7851Y8731
X7851Y9691
X7791Y10831
X7791Y11791
X6231Y11251
X5451Y10951
X5991Y10351
X5091Y10291
X3831Y10591
X3471Y9631
X4311Y8251
X1971Y8131
X4131Y5131
X6591Y4231
X10251Y4651
X15111Y12151
X15531Y12511
X15531Y13471
X14631Y14191
X14691Y14551
X15171Y14791
X15411Y14491
X16011Y14371
X16911Y15091
X16911Y15631
X16251Y15331
X17331Y14371
X19191Y14671
X17871Y15751
X16551Y16531
X17031Y17131
X17391Y17131
X16371Y17371
X15591Y18391
X15051Y18151
X14391Y18151
X13971Y18391
X13911Y19591
X14391Y19591
X14751Y19591
X15111Y19771
X15411Y19591
X15411Y19951
X17211Y19771
X19731Y20611
X20151Y21151
X19911Y19231
X21021Y15151
X21021Y13231
X20451Y12931
X22311Y13171
X23751Y12631
X26691Y12751
X28611Y12751
X31491Y12691
X28311Y10291
X28011Y9091
X24111Y9511
X22731Y10291
X21171Y7531
X25731Y3571
X29811Y2731
X11391Y14791
X9531Y13711
X8211Y13231
X5571Y12991
X3471Y16051
X3831Y17431
X3471Y18391
X6231Y17431
X9531Y16171
X12051Y18151
X11211Y19351
X11211Y21391
T02
X10551Y17671
X20751Y17671
T03
X25271Y7151
X25271Y6151
X30131Y6131
X30131Y7131
T04
X1631Y1791
X2631Y1791
X2631Y2791
X1631Y2791
X1631Y3791
X2631Y3791
X2631Y4791
X1631Y4791
X1631Y5791
X2631Y5791
X2631Y6791
X1631Y6791
X1631Y7791
X2631Y7791
X2631Y8791
X1631Y8791
X1631Y9791
X2631Y9791
X2631Y10791
X1631Y10791
X1631Y11791
X2631Y11791
X2631Y12791
X1631Y12791
X1631Y13791
X2631Y13791
X2631Y14791
X1631Y14791
X1631Y15791
X2631Y15791
X2631Y16791
X1631Y16791
X1631Y17791
X2631Y17791
X2631Y18791
X1631Y18791
X1631Y19791
X2631Y19791
X2631Y20791
X1631Y20791
T05
X26746Y3531
X28517Y3531
X28517Y972
X26746Y972
T06
X18446Y19365
X18682Y21314
X12501Y21314
X12737Y19365
T07
X26951Y19311
X28880Y17933
T08
X26951Y16949
M30
