G75*
G70*
%OFA0B0*%
%FSLAX24Y24*%
%IPPOS*%
%LPD*%
%AMOC8*
5,1,8,0,0,1.08239X$1,22.5*
%
%ADD10C,0.0000*%
%ADD11C,0.0040*%
D10*
X001667Y000151D02*
X001667Y022361D01*
X034479Y022361D01*
X034479Y000151D01*
X001667Y000151D01*
X015949Y019365D02*
X015951Y019396D01*
X015957Y019427D01*
X015966Y019457D01*
X015979Y019486D01*
X015996Y019513D01*
X016016Y019537D01*
X016038Y019559D01*
X016064Y019578D01*
X016091Y019594D01*
X016120Y019606D01*
X016150Y019615D01*
X016181Y019620D01*
X016213Y019621D01*
X016244Y019618D01*
X016275Y019611D01*
X016305Y019601D01*
X016333Y019587D01*
X016359Y019569D01*
X016383Y019549D01*
X016404Y019525D01*
X016423Y019500D01*
X016438Y019472D01*
X016449Y019443D01*
X016457Y019412D01*
X016461Y019381D01*
X016461Y019349D01*
X016457Y019318D01*
X016449Y019287D01*
X016438Y019258D01*
X016423Y019230D01*
X016404Y019205D01*
X016383Y019181D01*
X016359Y019161D01*
X016333Y019143D01*
X016305Y019129D01*
X016275Y019119D01*
X016244Y019112D01*
X016213Y019109D01*
X016181Y019110D01*
X016150Y019115D01*
X016120Y019124D01*
X016091Y019136D01*
X016064Y019152D01*
X016038Y019171D01*
X016016Y019193D01*
X015996Y019217D01*
X015979Y019244D01*
X015966Y019273D01*
X015957Y019303D01*
X015951Y019334D01*
X015949Y019365D01*
X015713Y021314D02*
X015715Y021345D01*
X015721Y021376D01*
X015730Y021406D01*
X015743Y021435D01*
X015760Y021462D01*
X015780Y021486D01*
X015802Y021508D01*
X015828Y021527D01*
X015855Y021543D01*
X015884Y021555D01*
X015914Y021564D01*
X015945Y021569D01*
X015977Y021570D01*
X016008Y021567D01*
X016039Y021560D01*
X016069Y021550D01*
X016097Y021536D01*
X016123Y021518D01*
X016147Y021498D01*
X016168Y021474D01*
X016187Y021449D01*
X016202Y021421D01*
X016213Y021392D01*
X016221Y021361D01*
X016225Y021330D01*
X016225Y021298D01*
X016221Y021267D01*
X016213Y021236D01*
X016202Y021207D01*
X016187Y021179D01*
X016168Y021154D01*
X016147Y021130D01*
X016123Y021110D01*
X016097Y021092D01*
X016069Y021078D01*
X016039Y021068D01*
X016008Y021061D01*
X015977Y021058D01*
X015945Y021059D01*
X015914Y021064D01*
X015884Y021073D01*
X015855Y021085D01*
X015828Y021101D01*
X015802Y021120D01*
X015780Y021142D01*
X015760Y021166D01*
X015743Y021193D01*
X015730Y021222D01*
X015721Y021252D01*
X015715Y021283D01*
X015713Y021314D01*
X021894Y021314D02*
X021896Y021345D01*
X021902Y021376D01*
X021911Y021406D01*
X021924Y021435D01*
X021941Y021462D01*
X021961Y021486D01*
X021983Y021508D01*
X022009Y021527D01*
X022036Y021543D01*
X022065Y021555D01*
X022095Y021564D01*
X022126Y021569D01*
X022158Y021570D01*
X022189Y021567D01*
X022220Y021560D01*
X022250Y021550D01*
X022278Y021536D01*
X022304Y021518D01*
X022328Y021498D01*
X022349Y021474D01*
X022368Y021449D01*
X022383Y021421D01*
X022394Y021392D01*
X022402Y021361D01*
X022406Y021330D01*
X022406Y021298D01*
X022402Y021267D01*
X022394Y021236D01*
X022383Y021207D01*
X022368Y021179D01*
X022349Y021154D01*
X022328Y021130D01*
X022304Y021110D01*
X022278Y021092D01*
X022250Y021078D01*
X022220Y021068D01*
X022189Y021061D01*
X022158Y021058D01*
X022126Y021059D01*
X022095Y021064D01*
X022065Y021073D01*
X022036Y021085D01*
X022009Y021101D01*
X021983Y021120D01*
X021961Y021142D01*
X021941Y021166D01*
X021924Y021193D01*
X021911Y021222D01*
X021902Y021252D01*
X021896Y021283D01*
X021894Y021314D01*
X021658Y019365D02*
X021660Y019396D01*
X021666Y019427D01*
X021675Y019457D01*
X021688Y019486D01*
X021705Y019513D01*
X021725Y019537D01*
X021747Y019559D01*
X021773Y019578D01*
X021800Y019594D01*
X021829Y019606D01*
X021859Y019615D01*
X021890Y019620D01*
X021922Y019621D01*
X021953Y019618D01*
X021984Y019611D01*
X022014Y019601D01*
X022042Y019587D01*
X022068Y019569D01*
X022092Y019549D01*
X022113Y019525D01*
X022132Y019500D01*
X022147Y019472D01*
X022158Y019443D01*
X022166Y019412D01*
X022170Y019381D01*
X022170Y019349D01*
X022166Y019318D01*
X022158Y019287D01*
X022147Y019258D01*
X022132Y019230D01*
X022113Y019205D01*
X022092Y019181D01*
X022068Y019161D01*
X022042Y019143D01*
X022014Y019129D01*
X021984Y019119D01*
X021953Y019112D01*
X021922Y019109D01*
X021890Y019110D01*
X021859Y019115D01*
X021829Y019124D01*
X021800Y019136D01*
X021773Y019152D01*
X021747Y019171D01*
X021725Y019193D01*
X021705Y019217D01*
X021688Y019244D01*
X021675Y019273D01*
X021666Y019303D01*
X021660Y019334D01*
X021658Y019365D01*
D11*
X024349Y017431D02*
X024349Y017277D01*
X024426Y017201D01*
X024349Y017431D02*
X024426Y017508D01*
X024502Y017508D01*
X024809Y017201D01*
X024809Y017508D01*
X025229Y017354D02*
X025689Y017354D01*
X025689Y017201D02*
X025689Y017508D01*
X025382Y017201D02*
X025229Y017354D01*
X025229Y016894D02*
X025689Y016894D01*
X025689Y017047D02*
X025689Y016740D01*
X025613Y016587D02*
X025689Y016510D01*
X025689Y016357D01*
X025613Y016280D01*
X025306Y016280D01*
X025229Y016357D01*
X025229Y016510D01*
X025306Y016587D01*
X025382Y016740D02*
X025229Y016894D01*
X024809Y016894D02*
X024349Y016894D01*
X024502Y016740D01*
X024426Y016587D02*
X024349Y016510D01*
X024349Y016357D01*
X024426Y016280D01*
X024733Y016280D01*
X024809Y016357D01*
X024809Y016510D01*
X024733Y016587D01*
X024809Y016740D02*
X024809Y017047D01*
X023773Y015628D02*
X023849Y015551D01*
X023849Y015397D01*
X023773Y015321D01*
X023696Y015321D01*
X023619Y015397D01*
X023619Y015551D01*
X023696Y015628D01*
X023773Y015628D01*
X023619Y015551D02*
X023542Y015628D01*
X023466Y015628D01*
X023389Y015551D01*
X023389Y015397D01*
X023466Y015321D01*
X023542Y015321D01*
X023619Y015397D01*
X023466Y015167D02*
X023389Y015091D01*
X023389Y014937D01*
X023466Y014860D01*
X023773Y014860D01*
X023849Y014937D01*
X023849Y015091D01*
X023773Y015167D01*
X022789Y015071D02*
X022789Y014917D01*
X022713Y014840D01*
X022406Y014840D01*
X022329Y014917D01*
X022329Y015071D01*
X022406Y015147D01*
X022329Y015301D02*
X022329Y015608D01*
X022406Y015608D01*
X022713Y015301D01*
X022789Y015301D01*
X022713Y015147D02*
X022789Y015071D01*
X021749Y015051D02*
X021749Y014897D01*
X021673Y014820D01*
X021366Y014820D01*
X021289Y014897D01*
X021289Y015051D01*
X021366Y015127D01*
X021519Y015281D02*
X021519Y015511D01*
X021596Y015588D01*
X021673Y015588D01*
X021749Y015511D01*
X021749Y015357D01*
X021673Y015281D01*
X021519Y015281D01*
X021366Y015434D01*
X021289Y015588D01*
X020869Y015431D02*
X020869Y015277D01*
X020793Y015201D01*
X020793Y015047D02*
X020869Y014971D01*
X020869Y014817D01*
X020793Y014740D01*
X020486Y014740D01*
X020409Y014817D01*
X020409Y014971D01*
X020486Y015047D01*
X020409Y015201D02*
X020639Y015201D01*
X020562Y015354D01*
X020562Y015431D01*
X020639Y015508D01*
X020793Y015508D01*
X020869Y015431D01*
X020409Y015508D02*
X020409Y015201D01*
X021673Y015127D02*
X021749Y015051D01*
X018497Y014005D02*
X018497Y013928D01*
X018420Y013851D01*
X018497Y013775D01*
X018497Y013698D01*
X018420Y013621D01*
X018266Y013621D01*
X018190Y013698D01*
X018036Y013698D02*
X017960Y013621D01*
X017806Y013621D01*
X017729Y013698D01*
X017729Y014005D01*
X017806Y014082D01*
X017960Y014082D01*
X018036Y014005D01*
X018190Y014005D02*
X018266Y014082D01*
X018420Y014082D01*
X018497Y014005D01*
X018420Y013851D02*
X018343Y013851D01*
X018400Y013222D02*
X018170Y012991D01*
X018477Y012991D01*
X018400Y012761D02*
X018400Y013222D01*
X018016Y013145D02*
X017940Y013222D01*
X017786Y013222D01*
X017709Y013145D01*
X017709Y012838D01*
X017786Y012761D01*
X017940Y012761D01*
X018016Y012838D01*
X017780Y012202D02*
X017857Y012125D01*
X017857Y012048D01*
X017780Y011971D01*
X017857Y011895D01*
X017857Y011818D01*
X017780Y011741D01*
X017627Y011741D01*
X017550Y011818D01*
X017397Y011741D02*
X017090Y011741D01*
X017397Y012048D01*
X017397Y012125D01*
X017320Y012202D01*
X017166Y012202D01*
X017090Y012125D01*
X016936Y012125D02*
X016860Y012202D01*
X016706Y012202D01*
X016629Y012125D01*
X016629Y011818D01*
X016706Y011741D01*
X016860Y011741D01*
X016936Y011818D01*
X016840Y011262D02*
X016686Y011262D01*
X016609Y011185D01*
X016609Y010878D01*
X016686Y010801D01*
X016840Y010801D01*
X016916Y010878D01*
X017070Y010801D02*
X017377Y011108D01*
X017377Y011185D01*
X017300Y011262D01*
X017146Y011262D01*
X017070Y011185D01*
X016916Y011185D02*
X016840Y011262D01*
X017070Y010801D02*
X017377Y010801D01*
X017530Y011031D02*
X017837Y011031D01*
X017760Y010801D02*
X017760Y011262D01*
X017530Y011031D01*
X017704Y011971D02*
X017780Y011971D01*
X017780Y012202D02*
X017627Y012202D01*
X017550Y012125D01*
X016157Y012201D02*
X015850Y012201D01*
X016004Y012201D02*
X016004Y012662D01*
X015850Y012508D01*
X015697Y012431D02*
X015390Y012431D01*
X015620Y012662D01*
X015620Y012201D01*
X015236Y012201D02*
X015083Y012355D01*
X015160Y012355D02*
X014929Y012355D01*
X014929Y012201D02*
X014929Y012662D01*
X015160Y012662D01*
X015236Y012585D01*
X015236Y012431D01*
X015160Y012355D01*
X015215Y013981D02*
X014909Y013981D01*
X015062Y013981D02*
X015062Y014442D01*
X014909Y014288D01*
X014755Y014365D02*
X014678Y014442D01*
X014525Y014442D01*
X014448Y014365D01*
X014448Y014058D01*
X014525Y013981D01*
X014678Y013981D01*
X014755Y014058D01*
X015369Y014211D02*
X015676Y014211D01*
X015599Y013981D02*
X015599Y014442D01*
X015369Y014211D01*
X015020Y015621D02*
X014867Y015621D01*
X014790Y015698D01*
X015097Y016005D01*
X015097Y015698D01*
X015020Y015621D01*
X014790Y015698D02*
X014790Y016005D01*
X014867Y016082D01*
X015020Y016082D01*
X015097Y016005D01*
X014637Y015851D02*
X014330Y015851D01*
X014560Y016082D01*
X014560Y015621D01*
X014176Y015621D02*
X014023Y015775D01*
X014100Y015775D02*
X013869Y015775D01*
X013869Y015621D02*
X013869Y016082D01*
X014100Y016082D01*
X014176Y016005D01*
X014176Y015851D01*
X014100Y015775D01*
X015188Y016758D02*
X015265Y016681D01*
X015418Y016681D01*
X015495Y016758D01*
X015649Y016681D02*
X015955Y016681D01*
X015802Y016681D02*
X015802Y017142D01*
X015649Y016988D01*
X015495Y017065D02*
X015418Y017142D01*
X015265Y017142D01*
X015188Y017065D01*
X015188Y016758D01*
X016109Y016758D02*
X016186Y016681D01*
X016339Y016681D01*
X016416Y016758D01*
X016416Y016835D01*
X016339Y016911D01*
X016262Y016911D01*
X016339Y016911D02*
X016416Y016988D01*
X016416Y017065D01*
X016339Y017142D01*
X016186Y017142D01*
X016109Y017065D01*
X012257Y013962D02*
X011950Y013962D01*
X011950Y013731D01*
X012104Y013808D01*
X012180Y013808D01*
X012257Y013731D01*
X012257Y013578D01*
X012180Y013501D01*
X012027Y013501D01*
X011950Y013578D01*
X011797Y013578D02*
X011720Y013501D01*
X011566Y013501D01*
X011490Y013578D01*
X011336Y013578D02*
X011260Y013501D01*
X011106Y013501D01*
X011029Y013578D01*
X011029Y013885D01*
X011106Y013962D01*
X011260Y013962D01*
X011336Y013885D01*
X011490Y013885D02*
X011566Y013962D01*
X011720Y013962D01*
X011797Y013885D01*
X011797Y013808D01*
X011720Y013731D01*
X011797Y013655D01*
X011797Y013578D01*
X011720Y013731D02*
X011643Y013731D01*
X007627Y011881D02*
X007320Y011881D01*
X007550Y012112D01*
X007550Y011651D01*
X007167Y011728D02*
X007167Y011805D01*
X007090Y011881D01*
X007013Y011881D01*
X007090Y011881D02*
X007167Y011958D01*
X007167Y012035D01*
X007090Y012112D01*
X006936Y012112D01*
X006860Y012035D01*
X006706Y012035D02*
X006630Y012112D01*
X006476Y012112D01*
X006399Y012035D01*
X006399Y011728D01*
X006476Y011651D01*
X006630Y011651D01*
X006706Y011728D01*
X006860Y011728D02*
X006936Y011651D01*
X007090Y011651D01*
X007167Y011728D01*
X007148Y010192D02*
X006995Y010192D01*
X006918Y010115D01*
X006918Y009808D01*
X006995Y009731D01*
X007148Y009731D01*
X007225Y009808D01*
X007379Y009808D02*
X007455Y009731D01*
X007609Y009731D01*
X007685Y009808D01*
X007685Y009885D01*
X007609Y009961D01*
X007532Y009961D01*
X007609Y009961D02*
X007685Y010038D01*
X007685Y010115D01*
X007609Y010192D01*
X007455Y010192D01*
X007379Y010115D01*
X007225Y010115D02*
X007148Y010192D01*
X007839Y009961D02*
X007839Y009808D01*
X007916Y009731D01*
X008069Y009731D01*
X008146Y009808D01*
X008146Y009885D01*
X008069Y009961D01*
X007839Y009961D01*
X007992Y010115D01*
X008146Y010192D01*
X011969Y007411D02*
X011969Y007257D01*
X012046Y007181D01*
X012199Y007027D02*
X012199Y006720D01*
X011969Y006951D01*
X012429Y006951D01*
X012429Y007181D02*
X012122Y007488D01*
X012046Y007488D01*
X011969Y007411D01*
X012429Y007488D02*
X012429Y007181D01*
X012809Y007160D02*
X012809Y007390D01*
X012886Y007467D01*
X013039Y007467D01*
X013116Y007390D01*
X013116Y007160D01*
X013269Y007160D02*
X012809Y007160D01*
X013116Y007313D02*
X013269Y007467D01*
X013039Y007620D02*
X013039Y007927D01*
X013039Y008081D02*
X012962Y008234D01*
X012962Y008311D01*
X013039Y008388D01*
X013193Y008388D01*
X013269Y008311D01*
X013269Y008157D01*
X013193Y008081D01*
X013039Y008081D02*
X012809Y008081D01*
X012809Y008388D01*
X012809Y007851D02*
X013269Y007851D01*
X013039Y007620D02*
X012809Y007851D01*
X014549Y007431D02*
X014626Y007508D01*
X014702Y007508D01*
X014779Y007431D01*
X014856Y007508D01*
X014933Y007508D01*
X015009Y007431D01*
X015009Y007277D01*
X014933Y007201D01*
X014779Y007354D02*
X014779Y007431D01*
X014549Y007431D02*
X014549Y007277D01*
X014626Y007201D01*
X014779Y007047D02*
X014779Y006740D01*
X014549Y006971D01*
X015009Y006971D01*
X015009Y006587D02*
X014856Y006433D01*
X014856Y006510D02*
X014856Y006280D01*
X015009Y006280D02*
X014549Y006280D01*
X014549Y006510D01*
X014626Y006587D01*
X014779Y006587D01*
X014856Y006510D01*
X016469Y006731D02*
X016699Y006501D01*
X016699Y006808D01*
X016929Y006731D02*
X016469Y006731D01*
X016699Y006347D02*
X016699Y006040D01*
X016469Y006271D01*
X016929Y006271D01*
X016929Y005887D02*
X016776Y005733D01*
X016776Y005810D02*
X016776Y005580D01*
X016929Y005580D02*
X016469Y005580D01*
X016469Y005810D01*
X016546Y005887D01*
X016699Y005887D01*
X016776Y005810D01*
X018549Y005811D02*
X018549Y005657D01*
X018626Y005580D01*
X018626Y005427D02*
X018549Y005350D01*
X018549Y005197D01*
X018626Y005120D01*
X018933Y005120D01*
X019009Y005197D01*
X019009Y005350D01*
X018933Y005427D01*
X019009Y005580D02*
X018702Y005887D01*
X018626Y005887D01*
X018549Y005811D01*
X018626Y006041D02*
X018549Y006117D01*
X018549Y006271D01*
X018626Y006348D01*
X018702Y006348D01*
X019009Y006041D01*
X019009Y006348D01*
X019009Y005887D02*
X019009Y005580D01*
X019949Y005638D02*
X020026Y005562D01*
X019949Y005638D02*
X019949Y005792D01*
X020026Y005868D01*
X020102Y005868D01*
X020179Y005792D01*
X020256Y005868D01*
X020333Y005868D01*
X020409Y005792D01*
X020409Y005638D01*
X020333Y005562D01*
X020333Y005408D02*
X020409Y005331D01*
X020409Y005178D01*
X020333Y005101D01*
X020026Y005101D01*
X019949Y005178D01*
X019949Y005331D01*
X020026Y005408D01*
X020179Y005715D02*
X020179Y005792D01*
X020102Y006022D02*
X019949Y006175D01*
X020409Y006175D01*
X020409Y006022D02*
X020409Y006329D01*
X021049Y006152D02*
X021049Y005999D01*
X021126Y005922D01*
X021126Y005768D02*
X021202Y005768D01*
X021279Y005692D01*
X021356Y005768D01*
X021433Y005768D01*
X021509Y005692D01*
X021509Y005538D01*
X021433Y005462D01*
X021433Y005308D02*
X021509Y005231D01*
X021509Y005078D01*
X021433Y005001D01*
X021126Y005001D01*
X021049Y005078D01*
X021049Y005231D01*
X021126Y005308D01*
X021126Y005462D02*
X021049Y005538D01*
X021049Y005692D01*
X021126Y005768D01*
X021279Y005692D02*
X021279Y005615D01*
X021509Y005922D02*
X021202Y006229D01*
X021126Y006229D01*
X021049Y006152D01*
X021509Y006229D02*
X021509Y005922D01*
X022189Y006039D02*
X022266Y005962D01*
X022342Y005962D01*
X022419Y006039D01*
X022419Y006269D01*
X022266Y006269D02*
X022189Y006192D01*
X022189Y006039D01*
X022266Y006269D02*
X022573Y006269D01*
X022649Y006192D01*
X022649Y006039D01*
X022573Y005962D01*
X022649Y005808D02*
X022649Y005502D01*
X022342Y005808D01*
X022266Y005808D01*
X022189Y005732D01*
X022189Y005578D01*
X022266Y005502D01*
X022266Y005348D02*
X022189Y005271D01*
X022189Y005118D01*
X022266Y005041D01*
X022573Y005041D01*
X022649Y005118D01*
X022649Y005271D01*
X022573Y005348D01*
X023189Y005251D02*
X023189Y005098D01*
X023266Y005021D01*
X023573Y005021D01*
X023649Y005098D01*
X023649Y005251D01*
X023573Y005328D01*
X023573Y005482D02*
X023649Y005558D01*
X023649Y005712D01*
X023573Y005788D01*
X023496Y005788D01*
X023419Y005712D01*
X023419Y005635D01*
X023419Y005712D02*
X023342Y005788D01*
X023266Y005788D01*
X023189Y005712D01*
X023189Y005558D01*
X023266Y005482D01*
X023266Y005328D02*
X023189Y005251D01*
X023266Y005942D02*
X023573Y005942D01*
X023266Y006249D01*
X023573Y006249D01*
X023649Y006172D01*
X023649Y006019D01*
X023573Y005942D01*
X023266Y005942D02*
X023189Y006019D01*
X023189Y006172D01*
X023266Y006249D01*
X024149Y006229D02*
X024149Y005922D01*
X024226Y005768D02*
X024302Y005768D01*
X024609Y005462D01*
X024609Y005768D01*
X024609Y005922D02*
X024533Y005922D01*
X024226Y006229D01*
X024149Y006229D01*
X024226Y005768D02*
X024149Y005692D01*
X024149Y005538D01*
X024226Y005462D01*
X024226Y005308D02*
X024149Y005231D01*
X024149Y005078D01*
X024226Y005001D01*
X024533Y005001D01*
X024609Y005078D01*
X024609Y005231D01*
X024533Y005308D01*
X025069Y005251D02*
X025069Y005098D01*
X025146Y005021D01*
X025453Y005021D01*
X025529Y005098D01*
X025529Y005251D01*
X025453Y005328D01*
X025529Y005482D02*
X025222Y005788D01*
X025146Y005788D01*
X025069Y005712D01*
X025069Y005558D01*
X025146Y005482D01*
X025146Y005328D02*
X025069Y005251D01*
X025529Y005482D02*
X025529Y005788D01*
X025453Y005942D02*
X025376Y005942D01*
X025299Y006019D01*
X025299Y006172D01*
X025376Y006249D01*
X025453Y006249D01*
X025529Y006172D01*
X025529Y006019D01*
X025453Y005942D01*
X025299Y006019D02*
X025222Y005942D01*
X025146Y005942D01*
X025069Y006019D01*
X025069Y006172D01*
X025146Y006249D01*
X025222Y006249D01*
X025299Y006172D01*
X027949Y007281D02*
X027949Y007742D01*
X028180Y007742D01*
X028256Y007665D01*
X028256Y007511D01*
X028180Y007435D01*
X027949Y007435D01*
X028103Y007435D02*
X028256Y007281D01*
X028410Y007511D02*
X028717Y007511D01*
X028640Y007281D02*
X028640Y007742D01*
X028410Y007511D01*
X028486Y008161D02*
X028409Y008238D01*
X028486Y008161D02*
X028639Y008161D01*
X028716Y008238D01*
X028716Y008315D01*
X028639Y008391D01*
X028562Y008391D01*
X028639Y008391D02*
X028716Y008468D01*
X028716Y008545D01*
X028639Y008622D01*
X028486Y008622D01*
X028409Y008545D01*
X028256Y008545D02*
X028256Y008391D01*
X028179Y008315D01*
X027949Y008315D01*
X028102Y008315D02*
X028256Y008161D01*
X027949Y008161D02*
X027949Y008622D01*
X028179Y008622D01*
X028256Y008545D01*
X028019Y008901D02*
X027866Y008901D01*
X027789Y008978D01*
X027789Y009055D01*
X027866Y009131D01*
X028019Y009131D01*
X028096Y009055D01*
X028096Y008978D01*
X028019Y008901D01*
X028019Y009131D02*
X028096Y009208D01*
X028096Y009285D01*
X028019Y009362D01*
X027866Y009362D01*
X027789Y009285D01*
X027789Y009208D01*
X027866Y009131D01*
X027635Y008901D02*
X027329Y008901D01*
X027482Y008901D02*
X027482Y009362D01*
X027329Y009208D01*
X027175Y009285D02*
X027098Y009362D01*
X026945Y009362D01*
X026868Y009285D01*
X026868Y008978D01*
X026945Y008901D01*
X027098Y008901D01*
X027175Y008978D01*
X027158Y009721D02*
X027235Y009798D01*
X027158Y009721D02*
X027005Y009721D01*
X026928Y009798D01*
X026928Y010105D01*
X027005Y010182D01*
X027158Y010182D01*
X027235Y010105D01*
X027389Y010028D02*
X027542Y010182D01*
X027542Y009721D01*
X027389Y009721D02*
X027695Y009721D01*
X027849Y009721D02*
X027849Y009798D01*
X028156Y010105D01*
X028156Y010182D01*
X027849Y010182D01*
X027835Y010621D02*
X027529Y010621D01*
X027835Y010928D01*
X027835Y011005D01*
X027759Y011082D01*
X027605Y011082D01*
X027529Y011005D01*
X027375Y011005D02*
X027298Y011082D01*
X027145Y011082D01*
X027068Y011005D01*
X027068Y010698D01*
X027145Y010621D01*
X027298Y010621D01*
X027375Y010698D01*
X027989Y010698D02*
X027989Y011005D01*
X028066Y011082D01*
X028219Y011082D01*
X028296Y011005D01*
X027989Y010698D01*
X028066Y010621D01*
X028219Y010621D01*
X028296Y010698D01*
X028296Y011005D01*
X027939Y011581D02*
X028016Y011658D01*
X028016Y011965D01*
X027939Y012042D01*
X027786Y012042D01*
X027709Y011965D01*
X027709Y011888D01*
X027786Y011811D01*
X028016Y011811D01*
X027939Y011581D02*
X027786Y011581D01*
X027709Y011658D01*
X027555Y011581D02*
X027249Y011581D01*
X027402Y011581D02*
X027402Y012042D01*
X027249Y011888D01*
X027095Y011965D02*
X027018Y012042D01*
X026865Y012042D01*
X026788Y011965D01*
X026788Y011658D01*
X026865Y011581D01*
X027018Y011581D01*
X027095Y011658D01*
X027038Y012641D02*
X027115Y012718D01*
X027038Y012641D02*
X026885Y012641D01*
X026808Y012718D01*
X026808Y013025D01*
X026885Y013102D01*
X027038Y013102D01*
X027115Y013025D01*
X027269Y012948D02*
X027422Y013102D01*
X027422Y012641D01*
X027269Y012641D02*
X027575Y012641D01*
X027729Y012718D02*
X028036Y013025D01*
X028036Y012718D01*
X027959Y012641D01*
X027806Y012641D01*
X027729Y012718D01*
X027729Y013025D01*
X027806Y013102D01*
X027959Y013102D01*
X028036Y013025D01*
X027539Y013501D02*
X027616Y013578D01*
X027616Y013885D01*
X027539Y013962D01*
X027386Y013962D01*
X027309Y013885D01*
X027309Y013808D01*
X027386Y013731D01*
X027616Y013731D01*
X027539Y013501D02*
X027386Y013501D01*
X027309Y013578D01*
X027156Y013578D02*
X027079Y013501D01*
X026925Y013501D01*
X026849Y013578D01*
X026849Y013885D01*
X026925Y013962D01*
X027079Y013962D01*
X027156Y013885D01*
X017917Y010062D02*
X017764Y009985D01*
X017610Y009831D01*
X017840Y009831D01*
X017917Y009755D01*
X017917Y009678D01*
X017840Y009601D01*
X017687Y009601D01*
X017610Y009678D01*
X017610Y009831D01*
X017457Y009908D02*
X017457Y009985D01*
X017380Y010062D01*
X017226Y010062D01*
X017150Y009985D01*
X016996Y009985D02*
X016920Y010062D01*
X016766Y010062D01*
X016689Y009985D01*
X016689Y009678D01*
X016766Y009601D01*
X016920Y009601D01*
X016996Y009678D01*
X017150Y009601D02*
X017457Y009601D01*
X017150Y009601D02*
X017457Y009908D01*
X017570Y009202D02*
X017877Y009202D01*
X017800Y009048D02*
X017877Y008971D01*
X017877Y008818D01*
X017800Y008741D01*
X017647Y008741D01*
X017570Y008818D01*
X017570Y008971D02*
X017724Y009048D01*
X017800Y009048D01*
X017570Y008971D02*
X017570Y009202D01*
X017417Y009125D02*
X017340Y009202D01*
X017186Y009202D01*
X017110Y009125D01*
X016956Y009125D02*
X016880Y009202D01*
X016726Y009202D01*
X016649Y009125D01*
X016649Y008818D01*
X016726Y008741D01*
X016880Y008741D01*
X016956Y008818D01*
X017110Y008741D02*
X017417Y009048D01*
X017417Y009125D01*
X017417Y008741D02*
X017110Y008741D01*
X016980Y008282D02*
X016826Y008282D01*
X016749Y008205D01*
X016749Y007898D01*
X016826Y007821D01*
X016980Y007821D01*
X017056Y007898D01*
X017210Y007821D02*
X017517Y008128D01*
X017517Y008205D01*
X017440Y008282D01*
X017286Y008282D01*
X017210Y008205D01*
X017056Y008205D02*
X016980Y008282D01*
X017670Y008128D02*
X017824Y008282D01*
X017824Y007821D01*
X017977Y007821D02*
X017670Y007821D01*
X017517Y007821D02*
X017210Y007821D01*
X012429Y006567D02*
X012276Y006413D01*
X012276Y006490D02*
X012276Y006260D01*
X012429Y006260D02*
X011969Y006260D01*
X011969Y006490D01*
X012046Y006567D01*
X012199Y006567D01*
X012276Y006490D01*
X013149Y004089D02*
X013226Y003935D01*
X013379Y003782D01*
X013379Y004012D01*
X013456Y004089D01*
X013533Y004089D01*
X013609Y004012D01*
X013609Y003859D01*
X013533Y003782D01*
X013379Y003782D01*
X013609Y003628D02*
X013609Y003322D01*
X013609Y003475D02*
X013149Y003475D01*
X013302Y003322D01*
X013226Y003168D02*
X013149Y003091D01*
X013149Y002938D01*
X013226Y002861D01*
X013533Y002861D01*
X013609Y002938D01*
X013609Y003091D01*
X013533Y003168D01*
X015729Y003131D02*
X015729Y002978D01*
X015806Y002901D01*
X016113Y002901D01*
X016189Y002978D01*
X016189Y003131D01*
X016113Y003208D01*
X016189Y003362D02*
X016189Y003668D01*
X016189Y003515D02*
X015729Y003515D01*
X015882Y003362D01*
X015806Y003208D02*
X015729Y003131D01*
X015729Y003822D02*
X015959Y003822D01*
X015882Y003975D01*
X015882Y004052D01*
X015959Y004129D01*
X016113Y004129D01*
X016189Y004052D01*
X016189Y003899D01*
X016113Y003822D01*
X015729Y003822D02*
X015729Y004129D01*
X005057Y013938D02*
X004980Y013861D01*
X004827Y013861D01*
X004750Y013938D01*
X004597Y013938D02*
X004520Y013861D01*
X004366Y013861D01*
X004290Y013938D01*
X004136Y013938D02*
X004060Y013861D01*
X003906Y013861D01*
X003829Y013938D01*
X003829Y014245D01*
X003906Y014322D01*
X004060Y014322D01*
X004136Y014245D01*
X004290Y014245D02*
X004366Y014322D01*
X004520Y014322D01*
X004597Y014245D01*
X004597Y014168D01*
X004520Y014091D01*
X004597Y014015D01*
X004597Y013938D01*
X004520Y014091D02*
X004443Y014091D01*
X004750Y014245D02*
X004827Y014322D01*
X004980Y014322D01*
X005057Y014245D01*
X005057Y014168D01*
X004980Y014091D01*
X005057Y014015D01*
X005057Y013938D01*
X004980Y014091D02*
X004904Y014091D01*
X030289Y006902D02*
X030289Y006441D01*
X030289Y006595D02*
X030520Y006595D01*
X030596Y006671D01*
X030596Y006825D01*
X030520Y006902D01*
X030289Y006902D01*
X030443Y006595D02*
X030596Y006441D01*
X030750Y006518D02*
X030826Y006441D01*
X030980Y006441D01*
X031057Y006518D01*
X031057Y006671D01*
X030980Y006748D01*
X030903Y006748D01*
X030750Y006671D01*
X030750Y006902D01*
X031057Y006902D01*
M02*
