G75*
G70*
%OFA0B0*%
%FSLAX24Y24*%
%IPPOS*%
%LPD*%
%AMOC8*
5,1,8,0,0,1.08239X$1,22.5*
%
%ADD10R,0.0394X0.0433*%
%ADD11R,0.0433X0.0394*%
%ADD12R,0.0630X0.0709*%
D10*
X013459Y004557D03*
X013459Y005226D03*
X015979Y005206D03*
X015979Y004537D03*
X020559Y006617D03*
X020559Y007286D03*
X021539Y007306D03*
X022499Y007286D03*
X022499Y006617D03*
X021539Y006637D03*
X023499Y006597D03*
X023499Y007266D03*
X024459Y007246D03*
X024459Y006577D03*
X025439Y006597D03*
X025439Y007266D03*
X029085Y007511D03*
X029754Y007511D03*
X029754Y008471D03*
X029085Y008471D03*
X029085Y006551D03*
X029754Y006551D03*
X023659Y013797D03*
X023659Y014466D03*
X022599Y014446D03*
X022599Y013777D03*
X021559Y013817D03*
X021559Y014486D03*
X020619Y014466D03*
X020619Y013797D03*
X024559Y015197D03*
X024559Y015866D03*
X025499Y015866D03*
X025499Y015197D03*
X015834Y013211D03*
X015165Y013211D03*
X014945Y015131D03*
X015614Y015131D03*
D11*
X012319Y005197D03*
X012319Y005866D03*
X013459Y006037D03*
X013459Y006706D03*
X014779Y005826D03*
X014779Y005157D03*
X015979Y006017D03*
X015979Y006686D03*
X018225Y006931D03*
X018894Y006931D03*
X018934Y007911D03*
X018265Y007911D03*
X018285Y008891D03*
X018954Y008891D03*
X018994Y009871D03*
X018325Y009871D03*
X018245Y010891D03*
X018914Y010891D03*
X018934Y011891D03*
X018265Y011891D03*
X018925Y012911D03*
X019594Y012911D03*
X019614Y013891D03*
X018945Y013891D03*
X016854Y014231D03*
X016185Y014231D03*
X016145Y016151D03*
X016814Y016151D03*
X011594Y013231D03*
X010925Y013231D03*
X004814Y013291D03*
X004145Y013291D03*
X025785Y012831D03*
X026454Y012831D03*
X026454Y013751D03*
X025785Y013751D03*
X025765Y011771D03*
X026434Y011771D03*
X026414Y010871D03*
X025745Y010871D03*
X025725Y009971D03*
X026394Y009971D03*
X026394Y009031D03*
X025725Y009031D03*
D12*
X008571Y009091D03*
X007468Y009091D03*
X007431Y011131D03*
X006328Y011131D03*
M02*
