G75*
G70*
%OFA0B0*%
%FSLAX24Y24*%
%IPPOS*%
%LPD*%
%AMOC8*
5,1,8,0,0,1.08239X$1,22.5*
%
%ADD10R,0.0118X0.0354*%
%ADD11R,0.0354X0.0118*%
%ADD12R,0.1969X0.1969*%
%ADD13C,0.0560*%
%ADD14OC8,0.0560*%
%ADD15R,0.0118X0.0748*%
%ADD16R,0.0433X0.0394*%
%ADD17R,0.0394X0.0433*%
%ADD18R,0.0827X0.2205*%
%ADD19R,0.0630X0.1063*%
%ADD20R,0.1384X0.1384*%
%ADD21C,0.1384*%
%ADD22C,0.1581*%
%ADD23C,0.0594*%
%ADD24R,0.0480X0.0880*%
%ADD25R,0.1417X0.0866*%
%ADD26OC8,0.0520*%
%ADD27C,0.0100*%
%ADD28C,0.0260*%
%ADD29C,0.0160*%
%ADD30C,0.0120*%
%ADD31C,0.0280*%
%ADD32C,0.0240*%
D10*
X010815Y008407D03*
X011012Y008407D03*
X011209Y008407D03*
X011406Y008407D03*
X011602Y008407D03*
X011799Y008407D03*
X011996Y008407D03*
X012193Y008407D03*
X012390Y008407D03*
X012587Y008407D03*
X012783Y008407D03*
X012980Y008407D03*
X013177Y008407D03*
X013374Y008407D03*
X013571Y008407D03*
X013768Y008407D03*
X013768Y012856D03*
X013571Y012856D03*
X013374Y012856D03*
X013177Y012856D03*
X012980Y012856D03*
X012783Y012856D03*
X012587Y012856D03*
X012390Y012856D03*
X012193Y012856D03*
X011996Y012856D03*
X011799Y012856D03*
X011602Y012856D03*
X011406Y012856D03*
X011209Y012856D03*
X011012Y012856D03*
X010815Y012856D03*
D11*
X010067Y012108D03*
X010067Y011911D03*
X010067Y011714D03*
X010067Y011517D03*
X010067Y011320D03*
X010067Y011123D03*
X010067Y010926D03*
X010067Y010730D03*
X010067Y010533D03*
X010067Y010336D03*
X010067Y010139D03*
X010067Y009942D03*
X010067Y009745D03*
X010067Y009549D03*
X010067Y009352D03*
X010067Y009155D03*
X014516Y009155D03*
X014516Y009352D03*
X014516Y009549D03*
X014516Y009745D03*
X014516Y009942D03*
X014516Y010139D03*
X014516Y010336D03*
X014516Y010533D03*
X014516Y010730D03*
X014516Y010926D03*
X014516Y011123D03*
X014516Y011320D03*
X014516Y011517D03*
X014516Y011714D03*
X014516Y011911D03*
X014516Y012108D03*
D12*
X012291Y010631D03*
D13*
X001631Y001791D03*
D14*
X002631Y001791D03*
X002631Y002791D03*
X001631Y002791D03*
X001631Y003791D03*
X002631Y003791D03*
X002631Y004791D03*
X001631Y004791D03*
X001631Y005791D03*
X002631Y005791D03*
X002631Y006791D03*
X001631Y006791D03*
X001631Y007791D03*
X002631Y007791D03*
X002631Y008791D03*
X001631Y008791D03*
X001631Y009791D03*
X002631Y009791D03*
X002631Y010791D03*
X001631Y010791D03*
X001631Y011791D03*
X002631Y011791D03*
X002631Y012791D03*
X001631Y012791D03*
X001631Y013791D03*
X002631Y013791D03*
X002631Y014791D03*
X001631Y014791D03*
X001631Y015791D03*
X002631Y015791D03*
X002631Y016791D03*
X001631Y016791D03*
X001631Y017791D03*
X002631Y017791D03*
X002631Y018791D03*
X001631Y018791D03*
X001631Y019791D03*
X002631Y019791D03*
X002631Y020791D03*
X001631Y020791D03*
D15*
X013721Y018991D03*
X013918Y018991D03*
X014115Y018991D03*
X014312Y018991D03*
X014509Y018991D03*
X014706Y018991D03*
X014902Y018991D03*
X015099Y018991D03*
X015296Y018991D03*
X015493Y018991D03*
X015690Y018991D03*
X015887Y018991D03*
X016083Y018991D03*
X016280Y018991D03*
X016477Y018991D03*
X016674Y018991D03*
X016871Y018991D03*
X017068Y018991D03*
X017265Y018991D03*
D16*
X017171Y016726D03*
X017171Y016057D03*
X009391Y015346D03*
X009391Y014677D03*
X008431Y014717D03*
X008431Y015386D03*
X008851Y004906D03*
X008851Y004237D03*
X007931Y004237D03*
X007931Y004906D03*
X007031Y004886D03*
X007031Y004217D03*
X009791Y004197D03*
X010691Y004177D03*
X010691Y004846D03*
X009791Y004866D03*
X011591Y004886D03*
X011591Y004217D03*
X012491Y004197D03*
X013411Y004217D03*
X013411Y004886D03*
X012491Y004866D03*
X014351Y004846D03*
X014351Y004177D03*
X015271Y004157D03*
X016171Y004157D03*
X016171Y004826D03*
X015271Y004826D03*
X017131Y004826D03*
X017131Y004157D03*
X018251Y003246D03*
X018251Y002577D03*
X025331Y003197D03*
X025331Y003866D03*
X030131Y003786D03*
X030131Y003117D03*
D17*
X010726Y018311D03*
X010057Y018311D03*
X010097Y019391D03*
X010766Y019391D03*
X010746Y020411D03*
X010077Y020411D03*
X010117Y021431D03*
X010786Y021431D03*
X006566Y015311D03*
X005897Y015311D03*
X005917Y014411D03*
X006586Y014411D03*
X006606Y013511D03*
X005937Y013511D03*
X005957Y012611D03*
X006626Y012611D03*
X006646Y011711D03*
X005977Y011711D03*
X005997Y010811D03*
X006666Y010811D03*
X006686Y009911D03*
X006017Y009911D03*
X006037Y009011D03*
X006706Y009011D03*
X006726Y008111D03*
X006057Y008111D03*
X006077Y007211D03*
X006746Y007211D03*
X006866Y001631D03*
X006197Y001631D03*
X020077Y018731D03*
X020746Y018731D03*
X020766Y019691D03*
X020097Y019691D03*
X020157Y020651D03*
X020826Y020651D03*
X020846Y021611D03*
X020177Y021611D03*
D18*
X016891Y012981D03*
X016891Y009241D03*
D19*
X018760Y009111D03*
X019863Y009111D03*
X019903Y012951D03*
X018800Y012951D03*
D20*
X026951Y019311D03*
D21*
X028880Y017933D03*
D22*
X026951Y016949D03*
D23*
X026746Y003531D03*
X028517Y003531D03*
X028517Y000972D03*
X026746Y000972D03*
D24*
X026221Y012771D03*
X025311Y012771D03*
X024401Y012771D03*
X029221Y012671D03*
X030131Y012671D03*
X031041Y012671D03*
D25*
X030131Y010231D03*
X025311Y010331D03*
D26*
X025271Y007151D03*
X025271Y006151D03*
X030131Y006131D03*
X030131Y007131D03*
D27*
X001671Y001771D02*
X001671Y001135D01*
X001672Y001135D02*
X001674Y001097D01*
X001679Y001060D01*
X001689Y001024D01*
X001701Y000988D01*
X001717Y000954D01*
X001737Y000922D01*
X001759Y000891D01*
X001784Y000863D01*
X001812Y000838D01*
X001843Y000816D01*
X001875Y000796D01*
X001909Y000780D01*
X001945Y000768D01*
X001981Y000758D01*
X002018Y000753D01*
X002056Y000751D01*
X012111Y000751D01*
X013071Y001711D01*
X013431Y001711D01*
X015651Y003931D01*
X015651Y005971D01*
X015411Y006211D01*
X015711Y006451D02*
X016131Y006031D01*
X016131Y004866D01*
X016171Y004826D01*
X015271Y004826D02*
X015231Y004866D01*
X015231Y005851D01*
X014931Y006151D01*
X013371Y006151D01*
X012390Y007133D01*
X012390Y008407D01*
X012587Y008407D02*
X012587Y007296D01*
X013431Y006451D01*
X015711Y006451D01*
X015051Y006871D02*
X016593Y006871D01*
X016727Y006816D02*
X017331Y006211D01*
X017331Y005431D01*
X017091Y004866D02*
X017131Y004826D01*
X017091Y004866D02*
X017091Y006211D01*
X016611Y006691D01*
X013551Y006691D01*
X012783Y007459D01*
X012783Y008407D01*
X012980Y008407D02*
X012980Y008880D01*
X013071Y008971D01*
X013191Y008731D02*
X013671Y009211D01*
X013671Y009871D01*
X014091Y010291D01*
X014516Y010139D02*
X014959Y010139D01*
X015111Y010291D01*
X014571Y010531D02*
X014516Y010533D01*
X014571Y010531D02*
X015843Y010531D01*
X015843Y010532D02*
X015884Y010530D01*
X015924Y010525D01*
X015964Y010516D01*
X016003Y010504D01*
X016041Y010488D01*
X016078Y010469D01*
X016112Y010447D01*
X016144Y010422D01*
X016175Y010395D01*
X016202Y010364D01*
X016227Y010332D01*
X016249Y010297D01*
X016268Y010261D01*
X016284Y010223D01*
X016296Y010184D01*
X016305Y010144D01*
X016310Y010104D01*
X016312Y010063D01*
X016311Y010063D02*
X016311Y008131D01*
X016671Y007771D01*
X017763Y007771D01*
X017391Y007591D02*
X017391Y007531D01*
X017391Y007591D02*
X016611Y007591D01*
X016131Y008071D01*
X016131Y009931D01*
X014571Y009931D01*
X014516Y009942D01*
X014516Y009745D02*
X014086Y009745D01*
X013911Y009571D01*
X014516Y009549D02*
X015314Y009549D01*
X015891Y008971D01*
X015891Y007591D01*
X016071Y007411D01*
X017151Y007411D01*
X017451Y007111D01*
X017763Y007772D02*
X017804Y007770D01*
X017844Y007765D01*
X017884Y007756D01*
X017923Y007744D01*
X017961Y007728D01*
X017998Y007709D01*
X018032Y007687D01*
X018064Y007662D01*
X018095Y007635D01*
X018122Y007604D01*
X018147Y007572D01*
X018169Y007537D01*
X018188Y007501D01*
X018204Y007463D01*
X018216Y007424D01*
X018225Y007384D01*
X018230Y007344D01*
X018232Y007303D01*
X018231Y007303D02*
X018231Y003271D01*
X018251Y003246D01*
X018291Y003211D01*
X018591Y002911D01*
X018591Y002851D01*
X026751Y002851D01*
X026751Y000991D01*
X026746Y000972D01*
X026751Y002851D02*
X026751Y003511D01*
X026746Y003531D01*
X025731Y003571D02*
X025371Y003211D01*
X025331Y003197D01*
X025331Y003866D02*
X025311Y003871D01*
X025311Y006151D01*
X025271Y006151D01*
X021171Y007531D02*
X021171Y008011D01*
X020931Y008251D01*
X018351Y008251D01*
X018760Y009111D02*
X018711Y009151D01*
X016911Y009151D01*
X016911Y009211D01*
X016891Y009241D01*
X016911Y009261D01*
X016911Y010651D01*
X016636Y010926D01*
X014516Y010926D01*
X014516Y010730D02*
X013930Y010730D01*
X013791Y010591D01*
X014516Y011123D02*
X016603Y011123D01*
X016911Y011431D01*
X016911Y012961D01*
X016891Y012981D01*
X016911Y012991D01*
X018771Y012991D01*
X018800Y012951D01*
X019903Y012951D02*
X019911Y012931D01*
X020451Y012931D01*
X019431Y011731D02*
X019431Y017491D01*
X020391Y018451D01*
X020391Y019411D01*
X020451Y019471D01*
X020451Y019951D01*
X020091Y020311D01*
X019431Y020311D01*
X019191Y020551D01*
X011211Y020551D01*
X011190Y020553D01*
X011170Y020558D01*
X011151Y020567D01*
X011134Y020579D01*
X011119Y020594D01*
X011107Y020611D01*
X011098Y020630D01*
X011093Y020650D01*
X011091Y020671D01*
X010671Y021091D01*
X010601Y021091D01*
X010577Y021093D01*
X010553Y021098D01*
X010530Y021106D01*
X010509Y021118D01*
X010490Y021133D01*
X010473Y021150D01*
X010458Y021169D01*
X010446Y021190D01*
X010438Y021213D01*
X010433Y021237D01*
X010431Y021261D01*
X010431Y021691D01*
X010311Y021811D01*
X002011Y021811D01*
X001976Y021809D01*
X001941Y021804D01*
X001906Y021794D01*
X001873Y021782D01*
X001842Y021766D01*
X001812Y021746D01*
X001784Y021724D01*
X001759Y021699D01*
X001737Y021671D01*
X001717Y021641D01*
X001701Y021610D01*
X001689Y021577D01*
X001679Y021542D01*
X001674Y021507D01*
X001672Y021472D01*
X001671Y021472D02*
X001671Y020791D01*
X001631Y020791D01*
X002031Y021091D02*
X002031Y020191D01*
X001631Y019791D01*
X002211Y020251D02*
X002631Y019831D01*
X002631Y019791D01*
X002211Y020251D02*
X002211Y020957D01*
X002031Y021091D02*
X002033Y021125D01*
X002039Y021158D01*
X002048Y021190D01*
X002061Y021221D01*
X002077Y021251D01*
X002096Y021278D01*
X002119Y021303D01*
X002144Y021326D01*
X002171Y021345D01*
X002201Y021361D01*
X002232Y021374D01*
X002264Y021383D01*
X002297Y021389D01*
X002331Y021391D01*
X003951Y021391D01*
X009771Y015571D01*
X009771Y015116D01*
X009769Y015099D01*
X009765Y015083D01*
X009757Y015069D01*
X009746Y015056D01*
X009733Y015045D01*
X009719Y015037D01*
X009703Y015033D01*
X009686Y015031D01*
X009111Y015031D01*
X009051Y015091D01*
X009049Y015120D01*
X009044Y015148D01*
X009035Y015176D01*
X009024Y015203D01*
X009009Y015227D01*
X008991Y015250D01*
X008970Y015271D01*
X008947Y015289D01*
X008923Y015304D01*
X008896Y015315D01*
X008868Y015324D01*
X008840Y015329D01*
X008811Y015331D01*
X008451Y015331D01*
X008431Y015386D01*
X009231Y015391D02*
X003411Y021211D01*
X002466Y021211D01*
X002466Y021212D02*
X002435Y021210D01*
X002405Y021205D01*
X002376Y021195D01*
X002347Y021183D01*
X002321Y021167D01*
X002297Y021148D01*
X002275Y021126D01*
X002256Y021102D01*
X002240Y021076D01*
X002228Y021047D01*
X002218Y021018D01*
X002213Y020988D01*
X002211Y020957D01*
X002631Y020791D02*
X003231Y020191D01*
X003231Y008971D01*
X004371Y007831D01*
X004371Y003451D01*
X006171Y001651D01*
X006197Y001631D01*
X006531Y001376D02*
X006531Y002251D01*
X004551Y004231D01*
X004551Y008011D01*
X004311Y008251D01*
X004731Y008311D02*
X003471Y009571D01*
X003471Y009631D01*
X003831Y009451D02*
X003831Y010591D01*
X003051Y010351D02*
X002631Y010771D01*
X002631Y010791D01*
X003051Y010351D02*
X003051Y006211D01*
X004131Y005131D01*
X003651Y005371D02*
X002691Y006332D01*
X002691Y006333D02*
X002671Y006350D01*
X002649Y006365D01*
X002625Y006377D01*
X002600Y006385D01*
X002573Y006390D01*
X002547Y006392D01*
X002547Y006391D02*
X002504Y006393D01*
X002462Y006398D01*
X002420Y006407D01*
X002379Y006419D01*
X002340Y006434D01*
X002301Y006453D01*
X002265Y006475D01*
X002230Y006500D01*
X002198Y006527D01*
X002167Y006558D01*
X002140Y006590D01*
X002115Y006625D01*
X002093Y006661D01*
X002074Y006700D01*
X002059Y006739D01*
X002047Y006780D01*
X002038Y006822D01*
X002033Y006864D01*
X002031Y006907D01*
X002031Y008071D01*
X001971Y008131D01*
X003831Y009451D02*
X006051Y007231D01*
X006077Y007211D01*
X006746Y007211D02*
X009280Y009745D01*
X010067Y009745D01*
X010067Y009549D02*
X009569Y009549D01*
X007371Y007351D01*
X007371Y005911D01*
X007011Y005551D01*
X007011Y004906D01*
X007031Y004886D01*
X007311Y004531D02*
X005331Y004531D01*
X005284Y004533D01*
X005237Y004538D01*
X005191Y004548D01*
X005146Y004560D01*
X005101Y004577D01*
X005059Y004596D01*
X005018Y004619D01*
X004978Y004646D01*
X004941Y004675D01*
X004907Y004707D01*
X004875Y004741D01*
X004846Y004778D01*
X004819Y004818D01*
X004796Y004859D01*
X004777Y004901D01*
X004760Y004946D01*
X004748Y004991D01*
X004738Y005037D01*
X004733Y005084D01*
X004731Y005131D01*
X004731Y008311D01*
X005091Y009091D02*
X005091Y010291D01*
X005451Y010951D02*
X005451Y009571D01*
X005991Y009031D01*
X006037Y009011D01*
X006706Y009011D02*
X007834Y010139D01*
X010067Y010139D01*
X010067Y009942D02*
X008557Y009942D01*
X006726Y008111D01*
X006057Y008111D02*
X006051Y008131D01*
X005091Y009091D01*
X005991Y009931D02*
X006017Y009911D01*
X005991Y009931D02*
X005991Y010351D01*
X005997Y010811D02*
X006051Y010831D01*
X006231Y011011D01*
X006231Y011251D01*
X005977Y011711D02*
X005931Y011731D01*
X003471Y014191D01*
X003471Y016051D01*
X003831Y015631D02*
X003831Y017431D01*
X003471Y018391D02*
X005631Y016231D01*
X005631Y015571D01*
X005871Y015331D01*
X005897Y015311D01*
X006566Y015311D02*
X009770Y012108D01*
X010067Y012108D01*
X010067Y011911D02*
X009086Y011911D01*
X006586Y014411D01*
X006231Y014731D02*
X005931Y014431D01*
X005917Y014411D01*
X006231Y014731D02*
X006231Y017431D01*
X003831Y015631D02*
X005931Y013531D01*
X005937Y013511D01*
X005571Y012991D02*
X005931Y012631D01*
X005957Y012611D01*
X006626Y012611D02*
X007720Y011517D01*
X010067Y011517D01*
X010067Y011714D02*
X008403Y011714D01*
X006606Y013511D01*
X008431Y013731D02*
X008431Y014717D01*
X008991Y014277D02*
X008991Y013471D01*
X009171Y013291D01*
X010851Y013291D01*
X011012Y013131D01*
X011012Y012856D01*
X011209Y012856D02*
X011209Y013534D01*
X011031Y013711D01*
X009531Y013711D01*
X008991Y014277D02*
X009391Y014677D01*
X009391Y015346D02*
X009351Y015391D01*
X009231Y015391D01*
X011406Y014445D02*
X012981Y016021D01*
X010731Y018271D01*
X010726Y018311D01*
X010791Y019351D02*
X010766Y019391D01*
X010791Y019351D02*
X011211Y019351D01*
X012051Y019111D02*
X012051Y018151D01*
X012051Y019111D02*
X010791Y020371D01*
X010746Y020411D01*
X010791Y021391D02*
X010786Y021431D01*
X010791Y021391D02*
X011211Y021391D01*
X013911Y019591D02*
X013911Y018991D01*
X013918Y018991D01*
X013731Y018981D02*
X013721Y018991D01*
X013731Y018981D02*
X013731Y016771D01*
X012981Y016021D01*
X014115Y016675D02*
X011602Y014162D01*
X011602Y012856D01*
X011406Y012856D02*
X011406Y014445D01*
X011996Y014196D02*
X014331Y016531D01*
X014331Y018151D01*
X014391Y018151D01*
X014331Y018151D02*
X014331Y018972D01*
X014312Y018991D01*
X014509Y018991D02*
X014511Y018991D01*
X014511Y019471D01*
X014391Y019591D01*
X014691Y019531D02*
X014691Y018991D01*
X014706Y018991D01*
X014691Y018977D01*
X014691Y016531D01*
X012193Y014033D01*
X012193Y012856D01*
X012390Y012856D02*
X012390Y012550D01*
X012171Y012331D01*
X011996Y012856D02*
X011996Y014196D01*
X012591Y013891D02*
X012591Y012860D01*
X012587Y012856D01*
X012783Y012856D02*
X012783Y013663D01*
X015291Y016171D01*
X015291Y018986D01*
X015296Y018991D01*
X015291Y018991D01*
X015291Y019471D01*
X015411Y019591D01*
X015711Y019651D02*
X015411Y019951D01*
X015111Y019771D02*
X015111Y018991D01*
X015099Y018991D01*
X014902Y018991D02*
X014902Y018151D01*
X015051Y018151D01*
X014902Y018151D02*
X014902Y016202D01*
X012591Y013891D01*
X013191Y013771D02*
X013191Y012870D01*
X013177Y012856D01*
X013371Y012858D02*
X013374Y012856D01*
X013371Y012858D02*
X013371Y013591D01*
X015887Y016106D01*
X015887Y018991D01*
X015891Y018991D01*
X015891Y019613D01*
X015711Y019651D02*
X015711Y018991D01*
X015690Y018991D01*
X015493Y018991D02*
X015493Y018391D01*
X015591Y018391D01*
X015493Y018391D02*
X015493Y016073D01*
X013191Y013771D01*
X012980Y012856D02*
X012980Y012422D01*
X013071Y012331D01*
X013571Y012492D02*
X013571Y012856D01*
X013768Y012856D02*
X013791Y012811D01*
X014091Y012511D01*
X014091Y012091D01*
X013791Y011791D02*
X014262Y011320D01*
X014516Y011320D01*
X014571Y011491D02*
X014516Y011517D01*
X014571Y011491D02*
X015867Y011491D01*
X015711Y011731D02*
X014571Y011731D01*
X014516Y011714D01*
X014516Y011911D02*
X014571Y011911D01*
X015517Y011911D01*
X015711Y011731D02*
X015745Y011733D01*
X015778Y011739D01*
X015810Y011748D01*
X015841Y011761D01*
X015871Y011777D01*
X015898Y011796D01*
X015923Y011819D01*
X015946Y011844D01*
X015965Y011871D01*
X015981Y011901D01*
X015994Y011932D01*
X016003Y011964D01*
X016009Y011997D01*
X016011Y012031D01*
X016011Y014371D01*
X015171Y014791D02*
X015171Y012211D01*
X015111Y012151D01*
X015517Y011911D02*
X015548Y011913D01*
X015578Y011918D01*
X015607Y011928D01*
X015636Y011940D01*
X015662Y011956D01*
X015686Y011975D01*
X015708Y011997D01*
X015727Y012021D01*
X015743Y012047D01*
X015755Y012076D01*
X015765Y012105D01*
X015770Y012135D01*
X015772Y012166D01*
X015771Y012166D02*
X015771Y015751D01*
X016551Y016531D01*
X016611Y016591D01*
X016611Y018511D01*
X016671Y018571D01*
X016671Y018991D01*
X016674Y018991D01*
X016851Y018991D02*
X016871Y018991D01*
X016851Y018991D02*
X016851Y019531D01*
X017091Y019771D01*
X017211Y019771D01*
X017176Y019531D02*
X017331Y019531D01*
X017631Y019231D01*
X017631Y015811D01*
X016911Y015091D01*
X016911Y015631D02*
X017151Y015871D01*
X017151Y016051D01*
X017171Y016057D01*
X017171Y016726D02*
X017151Y016771D01*
X017031Y016891D01*
X017031Y017131D01*
X017271Y017251D02*
X017271Y018991D01*
X017265Y018991D01*
X017091Y018991D02*
X017068Y018991D01*
X017091Y018991D02*
X017091Y019446D01*
X017093Y019463D01*
X017097Y019479D01*
X017105Y019493D01*
X017116Y019506D01*
X017129Y019517D01*
X017143Y019525D01*
X017159Y019529D01*
X017176Y019531D01*
X017151Y020071D02*
X018597Y020071D01*
X018644Y020069D01*
X018690Y020064D01*
X018736Y020055D01*
X018781Y020042D01*
X018824Y020026D01*
X018867Y020006D01*
X018907Y019983D01*
X018946Y019958D01*
X018983Y019929D01*
X019017Y019897D01*
X019049Y019863D01*
X019078Y019826D01*
X019103Y019787D01*
X019126Y019747D01*
X019146Y019704D01*
X019162Y019661D01*
X019175Y019616D01*
X019184Y019570D01*
X019189Y019524D01*
X019191Y019477D01*
X019191Y014671D01*
X016251Y015331D02*
X016251Y011875D01*
X016249Y011837D01*
X016244Y011800D01*
X016234Y011764D01*
X016222Y011728D01*
X016206Y011694D01*
X016186Y011662D01*
X016164Y011631D01*
X016139Y011603D01*
X016111Y011578D01*
X016080Y011556D01*
X016048Y011536D01*
X016014Y011520D01*
X015978Y011508D01*
X015942Y011498D01*
X015905Y011493D01*
X015867Y011491D01*
X014631Y012211D02*
X014571Y012151D01*
X014516Y012108D01*
X014631Y012211D02*
X014631Y014191D01*
X013571Y012492D02*
X013731Y012331D01*
X010815Y012856D02*
X010559Y013111D01*
X009051Y013111D01*
X008431Y013731D01*
X006646Y011711D02*
X007037Y011320D01*
X010067Y011320D01*
X010067Y011123D02*
X006978Y011123D01*
X006666Y010811D01*
X007111Y010336D02*
X010067Y010336D01*
X010071Y010531D02*
X010067Y010533D01*
X010071Y010531D02*
X010311Y010531D01*
X010371Y010471D01*
X010371Y008191D01*
X009231Y007051D01*
X009231Y004711D01*
X009111Y004591D01*
X008611Y004591D01*
X008576Y004589D01*
X008541Y004584D01*
X008506Y004574D01*
X008473Y004562D01*
X008442Y004546D01*
X008412Y004526D01*
X008384Y004504D01*
X008359Y004479D01*
X008337Y004451D01*
X008317Y004421D01*
X008301Y004390D01*
X008289Y004357D01*
X008279Y004322D01*
X008274Y004287D01*
X008272Y004252D01*
X008271Y004252D02*
X008271Y003031D01*
X006891Y001651D01*
X006866Y001631D01*
X006531Y001376D02*
X006533Y001359D01*
X006537Y001343D01*
X006545Y001329D01*
X006556Y001316D01*
X006569Y001305D01*
X006583Y001297D01*
X006599Y001293D01*
X006616Y001291D01*
X007131Y001291D01*
X008451Y002611D01*
X008451Y003871D01*
X008811Y004231D01*
X008851Y004237D01*
X008851Y004906D02*
X008851Y007939D01*
X010067Y009155D01*
X010067Y009352D02*
X009732Y009352D01*
X007911Y007531D01*
X007911Y004926D01*
X007931Y004906D01*
X007371Y004471D02*
X007373Y004445D01*
X007378Y004420D01*
X007387Y004396D01*
X007400Y004374D01*
X007415Y004353D01*
X007433Y004335D01*
X007454Y004320D01*
X007476Y004307D01*
X007500Y004298D01*
X007525Y004293D01*
X007551Y004291D01*
X007911Y004291D01*
X007931Y004237D01*
X007371Y004471D02*
X007311Y004531D01*
X007031Y004217D02*
X007011Y004231D01*
X006591Y004231D01*
X006471Y003151D02*
X007251Y002371D01*
X007191Y001111D02*
X008631Y002551D01*
X008631Y003137D01*
X008633Y003168D01*
X008638Y003198D01*
X008648Y003227D01*
X008660Y003256D01*
X008676Y003282D01*
X008695Y003306D01*
X008717Y003328D01*
X008741Y003347D01*
X008767Y003363D01*
X008796Y003375D01*
X008825Y003385D01*
X008855Y003390D01*
X008886Y003392D01*
X008886Y003391D02*
X008991Y003391D01*
X009771Y004171D01*
X009791Y004197D01*
X010251Y004651D02*
X010671Y004231D01*
X010691Y004177D01*
X010691Y004846D02*
X010671Y004866D01*
X010671Y006331D01*
X011209Y006869D01*
X011209Y008407D01*
X011406Y008407D02*
X011406Y006617D01*
X011631Y006391D01*
X011631Y004926D01*
X011591Y004886D01*
X012111Y004411D02*
X012109Y004385D01*
X012104Y004360D01*
X012095Y004336D01*
X012082Y004314D01*
X012067Y004293D01*
X012049Y004275D01*
X012028Y004260D01*
X012006Y004247D01*
X011982Y004238D01*
X011957Y004233D01*
X011931Y004231D01*
X011631Y004231D01*
X011591Y004217D01*
X012111Y004411D02*
X012231Y004531D01*
X012697Y004531D01*
X012718Y004529D01*
X012738Y004524D01*
X012758Y004516D01*
X012776Y004505D01*
X012792Y004492D01*
X012805Y004476D01*
X012816Y004458D01*
X012824Y004438D01*
X012829Y004418D01*
X012831Y004397D01*
X012831Y003931D01*
X011811Y002911D01*
X009291Y002911D01*
X009051Y003151D02*
X011451Y003151D01*
X012471Y004171D01*
X012491Y004197D01*
X013371Y004171D02*
X013411Y004217D01*
X013371Y004171D02*
X011091Y001891D01*
X012531Y002371D02*
X014331Y004171D01*
X014351Y004177D01*
X015231Y004111D02*
X015271Y004157D01*
X015231Y004111D02*
X012051Y000931D01*
X002456Y000931D01*
X002417Y000933D01*
X002378Y000938D01*
X002340Y000947D01*
X002303Y000960D01*
X002267Y000975D01*
X002233Y000995D01*
X002200Y001017D01*
X002170Y001042D01*
X002143Y001069D01*
X002118Y001099D01*
X002096Y001132D01*
X002076Y001166D01*
X002061Y001202D01*
X002048Y001239D01*
X002039Y001277D01*
X002034Y001316D01*
X002032Y001355D01*
X002031Y001355D02*
X002031Y001951D01*
X001651Y002332D01*
X001556Y002371D02*
X001446Y002371D01*
X001556Y002371D02*
X001577Y002369D01*
X001597Y002364D01*
X001617Y002356D01*
X001635Y002345D01*
X001651Y002332D01*
X001446Y002371D02*
X001415Y002373D01*
X001385Y002378D01*
X001356Y002388D01*
X001327Y002400D01*
X001301Y002416D01*
X001277Y002435D01*
X001255Y002457D01*
X001236Y002481D01*
X001220Y002507D01*
X001208Y002536D01*
X001198Y002565D01*
X001193Y002595D01*
X001191Y002626D01*
X001191Y003331D01*
X001611Y003751D01*
X001631Y003791D01*
X002031Y004411D02*
X001671Y004771D01*
X001631Y004791D01*
X002031Y004411D02*
X002031Y002755D01*
X002032Y002755D02*
X002034Y002717D01*
X002039Y002680D01*
X002049Y002644D01*
X002061Y002608D01*
X002077Y002574D01*
X002097Y002542D01*
X002119Y002511D01*
X002144Y002483D01*
X002172Y002458D01*
X002203Y002436D01*
X002235Y002416D01*
X002269Y002400D01*
X002305Y002388D01*
X002341Y002378D01*
X002378Y002373D01*
X002416Y002371D01*
X002931Y002371D01*
X003411Y001891D01*
X003651Y001535D02*
X003651Y005371D01*
X001671Y001771D02*
X001631Y001791D01*
X003652Y001535D02*
X003654Y001496D01*
X003659Y001457D01*
X003668Y001419D01*
X003681Y001382D01*
X003696Y001346D01*
X003716Y001312D01*
X003738Y001279D01*
X003763Y001249D01*
X003790Y001222D01*
X003820Y001197D01*
X003853Y001175D01*
X003887Y001155D01*
X003923Y001140D01*
X003960Y001127D01*
X003998Y001118D01*
X004037Y001113D01*
X004076Y001111D01*
X007191Y001111D01*
X009791Y004866D02*
X009791Y007383D01*
X010815Y008407D01*
X011012Y008407D02*
X011012Y008811D01*
X010851Y008971D01*
X010791Y008971D01*
X011602Y008407D02*
X011602Y006960D01*
X012531Y006031D01*
X012531Y004906D01*
X012491Y004866D01*
X013371Y004926D02*
X013411Y004886D01*
X013371Y004926D02*
X013371Y005491D01*
X011799Y007063D01*
X011799Y008407D01*
X011996Y008407D02*
X011996Y007166D01*
X013371Y005791D01*
X014091Y005791D01*
X014331Y005551D01*
X014331Y004866D01*
X014351Y004846D01*
X016131Y004111D02*
X016171Y004157D01*
X016131Y004111D02*
X014451Y002431D01*
X014451Y002371D01*
X014451Y001471D02*
X017091Y004111D01*
X017131Y004157D01*
X017451Y002551D02*
X018231Y002551D01*
X018251Y002577D01*
X016727Y006815D02*
X016709Y006832D01*
X016688Y006846D01*
X016666Y006857D01*
X016642Y006865D01*
X016618Y006869D01*
X016593Y006871D01*
X016791Y007111D02*
X017091Y006811D01*
X016791Y007111D02*
X015891Y007111D01*
X015531Y007471D01*
X015531Y008971D01*
X015151Y009352D01*
X014516Y009352D01*
X014516Y009155D02*
X014928Y009155D01*
X015171Y008911D01*
X015171Y007111D01*
X015051Y006871D02*
X014931Y006991D01*
X014931Y007471D01*
X014631Y007771D01*
X014631Y008299D01*
X014632Y008299D02*
X014630Y008339D01*
X014625Y008379D01*
X014615Y008417D01*
X014603Y008455D01*
X014587Y008492D01*
X014567Y008527D01*
X014545Y008560D01*
X014519Y008591D01*
X014491Y008619D01*
X014460Y008645D01*
X014427Y008667D01*
X014392Y008687D01*
X014355Y008703D01*
X014317Y008715D01*
X014279Y008725D01*
X014239Y008730D01*
X014199Y008732D01*
X014199Y008731D02*
X013491Y008731D01*
X013371Y008611D01*
X013371Y008431D01*
X013374Y008407D01*
X013551Y008371D02*
X013551Y008011D01*
X013551Y008371D02*
X013571Y008407D01*
X013768Y008407D02*
X013791Y008371D01*
X014511Y007651D01*
X014511Y007411D01*
X013177Y008407D02*
X013191Y008431D01*
X013191Y008731D01*
X012193Y008890D02*
X012193Y008407D01*
X012193Y008890D02*
X012111Y008971D01*
X010671Y009991D02*
X010671Y010411D01*
X010353Y010730D01*
X010067Y010730D01*
X010067Y010926D02*
X010576Y010926D01*
X010671Y010831D01*
X007111Y010336D02*
X006686Y009911D01*
X014115Y016675D02*
X014115Y018391D01*
X013971Y018391D01*
X014115Y018391D02*
X014115Y018991D01*
X014691Y019531D02*
X014751Y019591D01*
X016071Y018991D02*
X016083Y018991D01*
X016071Y018991D02*
X016071Y017671D01*
X016371Y017371D01*
X017271Y017251D02*
X017391Y017131D01*
X016491Y018991D02*
X016477Y018991D01*
X016491Y018991D02*
X016491Y019411D01*
X017151Y020071D01*
X016529Y020251D02*
X019251Y020251D01*
X019371Y020131D01*
X019371Y019411D01*
X020031Y018751D01*
X020077Y018731D01*
X019911Y019231D02*
X019911Y019471D01*
X020091Y019651D01*
X020097Y019691D01*
X020151Y020611D02*
X019731Y020611D01*
X020151Y020611D02*
X020157Y020651D01*
X020151Y021151D02*
X020151Y021571D01*
X020177Y021611D01*
X016529Y020251D02*
X016481Y020249D01*
X016434Y020244D01*
X016387Y020235D01*
X016341Y020223D01*
X016296Y020207D01*
X016252Y020188D01*
X016210Y020166D01*
X016170Y020140D01*
X016131Y020112D01*
X016095Y020081D01*
X016061Y020047D01*
X016030Y020011D01*
X016002Y019972D01*
X015976Y019932D01*
X015954Y019890D01*
X015935Y019846D01*
X015919Y019801D01*
X015907Y019755D01*
X015898Y019708D01*
X015893Y019661D01*
X015891Y019613D01*
X020746Y017677D02*
X020751Y017671D01*
X026221Y012771D02*
X026271Y012751D01*
X026691Y012751D01*
X031041Y012671D02*
X031071Y012691D01*
X031491Y012691D01*
X030131Y006131D02*
X030111Y006091D01*
X030111Y003811D01*
X030131Y003786D01*
X030131Y003117D02*
X030111Y003091D01*
X029811Y002791D01*
X029811Y002731D01*
X020391Y009151D02*
X019911Y009151D01*
X019863Y009111D01*
X018231Y010531D02*
X019431Y011731D01*
D28*
X020451Y012931D03*
X021021Y013231D03*
X022311Y013171D03*
X023751Y012631D03*
X026691Y012751D03*
X028611Y012751D03*
X031491Y012691D03*
X028311Y010291D03*
X028011Y009091D03*
X024111Y009511D03*
X022731Y010291D03*
X020391Y009151D03*
X018351Y008251D03*
X017391Y007531D03*
X017451Y007111D03*
X017091Y006811D03*
X016431Y006451D03*
X015411Y006211D03*
X015171Y007111D03*
X014511Y007411D03*
X014871Y007891D03*
X013551Y008011D03*
X013071Y008971D03*
X012111Y008971D03*
X010791Y008971D03*
X010671Y009991D03*
X010671Y010831D03*
X012111Y011851D03*
X012171Y012331D03*
X013071Y012331D03*
X013731Y012331D03*
X014091Y012091D03*
X013791Y011791D03*
X013491Y011431D03*
X013491Y011071D03*
X013491Y010711D03*
X013791Y010591D03*
X013491Y010351D03*
X014091Y010291D03*
X013911Y009571D03*
X015111Y010291D03*
X015111Y012151D03*
X015531Y012511D03*
X015531Y013471D03*
X014631Y014191D03*
X014691Y014551D03*
X015171Y014791D03*
X015411Y014491D03*
X016011Y014371D03*
X016911Y015091D03*
X016911Y015631D03*
X016251Y015331D03*
X017331Y014371D03*
X019191Y014671D03*
X017871Y015751D03*
X016551Y016531D03*
X017031Y017131D03*
X017391Y017131D03*
X016371Y017371D03*
X015591Y018391D03*
X015051Y018151D03*
X014391Y018151D03*
X013971Y018391D03*
X013911Y019591D03*
X014391Y019591D03*
X014751Y019591D03*
X015111Y019771D03*
X015411Y019591D03*
X015411Y019951D03*
X017211Y019771D03*
X019731Y020611D03*
X020151Y021151D03*
X019911Y019231D03*
X021021Y015151D03*
X018231Y010531D03*
X021171Y007531D03*
X017331Y005431D03*
X019071Y004531D03*
X020211Y004171D03*
X020811Y004891D03*
X022311Y004591D03*
X025731Y003571D03*
X029811Y002731D03*
X017451Y002551D03*
X014451Y002371D03*
X014451Y001471D03*
X012531Y002371D03*
X011091Y001891D03*
X009291Y002911D03*
X009051Y003151D03*
X010251Y004651D03*
X010611Y006631D03*
X008571Y006691D03*
X007851Y008731D03*
X007851Y009691D03*
X007791Y010831D03*
X007791Y011791D03*
X006231Y011251D03*
X005451Y010951D03*
X005991Y010351D03*
X005091Y010291D03*
X003831Y010591D03*
X003471Y009631D03*
X004311Y008251D03*
X001971Y008131D03*
X004131Y005131D03*
X006591Y004231D03*
X006471Y003151D03*
X007251Y002371D03*
X003411Y001891D03*
X013671Y006931D03*
X011091Y012271D03*
X010671Y012331D03*
X009531Y013711D03*
X008211Y013231D03*
X005571Y012991D03*
X003471Y016051D03*
X003831Y017431D03*
X003471Y018391D03*
X006231Y017431D03*
X009531Y016171D03*
X011391Y014791D03*
X012051Y018151D03*
X011211Y019351D03*
X011211Y021391D03*
D29*
X012111Y011851D02*
X012291Y011671D01*
X012291Y010651D01*
X012591Y010351D01*
X013491Y010351D01*
X013431Y010651D02*
X012291Y010651D01*
X012711Y011071D01*
X013491Y011071D01*
X013491Y011431D02*
X013071Y011431D01*
X012291Y010651D01*
X012291Y010631D01*
X013431Y010651D02*
X013491Y010711D01*
D30*
X012651Y009391D02*
X011511Y009391D01*
X011091Y008971D01*
X010851Y008971D01*
X010791Y008971D02*
X010791Y009271D01*
X011091Y009571D01*
X011091Y010411D01*
X010671Y010831D01*
X010671Y011671D01*
X010971Y011971D01*
X011631Y011971D01*
X011799Y012139D01*
X011991Y012331D01*
X012171Y012331D01*
X013071Y012331D01*
X011799Y012139D02*
X011799Y012856D01*
X011209Y012856D02*
X011209Y012389D01*
X011091Y012271D01*
X010671Y012331D02*
X010671Y011671D01*
X012651Y009391D02*
X013071Y008971D01*
X020211Y004171D02*
X021171Y004171D01*
X021951Y004951D01*
X022311Y004591D01*
X021951Y004951D02*
X021951Y009871D01*
X022371Y010291D01*
X022731Y010291D01*
X024111Y009511D02*
X024491Y009511D01*
X025311Y010331D01*
X025311Y007191D01*
X025271Y007151D01*
X028311Y010291D02*
X030071Y010291D01*
X030131Y010231D01*
X030131Y007131D01*
X024401Y012771D02*
X024261Y012631D01*
X023751Y012631D01*
X028611Y012751D02*
X029141Y012751D01*
X029221Y012671D01*
X020751Y017671D02*
X020751Y018726D01*
X020746Y018731D01*
X020746Y019671D01*
X020766Y019691D01*
X020766Y020591D01*
X020826Y020651D01*
X020826Y021591D01*
X020846Y021611D01*
X010551Y017671D02*
X010057Y018166D01*
X010057Y018311D01*
X010057Y019351D01*
X010097Y019391D01*
X010097Y020391D01*
X010077Y020411D01*
X010077Y021391D01*
X010117Y021431D01*
D31*
X010551Y017671D03*
X020751Y017671D03*
D32*
X024401Y013361D02*
X026951Y015911D01*
X029211Y013651D01*
X029211Y012681D01*
X029221Y012671D01*
X026951Y015911D02*
X026951Y016949D01*
X024401Y013361D02*
X024401Y012771D01*
M02*
