G75*
G70*
%OFA0B0*%
%FSLAX24Y24*%
%IPPOS*%
%LPD*%
%AMOC8*
5,1,8,0,0,1.08239X$1,22.5*
%
%ADD10R,0.0118X0.0354*%
%ADD11R,0.0354X0.0118*%
%ADD12R,0.1969X0.1969*%
%ADD13R,0.0118X0.0748*%
%ADD14R,0.0433X0.0394*%
%ADD15R,0.0394X0.0433*%
%ADD16R,0.0827X0.2205*%
%ADD17R,0.0630X0.1063*%
%ADD18R,0.0480X0.0880*%
%ADD19R,0.1417X0.0866*%
D10*
X010815Y008407D03*
X011012Y008407D03*
X011209Y008407D03*
X011406Y008407D03*
X011602Y008407D03*
X011799Y008407D03*
X011996Y008407D03*
X012193Y008407D03*
X012390Y008407D03*
X012587Y008407D03*
X012783Y008407D03*
X012980Y008407D03*
X013177Y008407D03*
X013374Y008407D03*
X013571Y008407D03*
X013768Y008407D03*
X013768Y012856D03*
X013571Y012856D03*
X013374Y012856D03*
X013177Y012856D03*
X012980Y012856D03*
X012783Y012856D03*
X012587Y012856D03*
X012390Y012856D03*
X012193Y012856D03*
X011996Y012856D03*
X011799Y012856D03*
X011602Y012856D03*
X011406Y012856D03*
X011209Y012856D03*
X011012Y012856D03*
X010815Y012856D03*
D11*
X010067Y012108D03*
X010067Y011911D03*
X010067Y011714D03*
X010067Y011517D03*
X010067Y011320D03*
X010067Y011123D03*
X010067Y010926D03*
X010067Y010730D03*
X010067Y010533D03*
X010067Y010336D03*
X010067Y010139D03*
X010067Y009942D03*
X010067Y009745D03*
X010067Y009549D03*
X010067Y009352D03*
X010067Y009155D03*
X014516Y009155D03*
X014516Y009352D03*
X014516Y009549D03*
X014516Y009745D03*
X014516Y009942D03*
X014516Y010139D03*
X014516Y010336D03*
X014516Y010533D03*
X014516Y010730D03*
X014516Y010926D03*
X014516Y011123D03*
X014516Y011320D03*
X014516Y011517D03*
X014516Y011714D03*
X014516Y011911D03*
X014516Y012108D03*
D12*
X012291Y010631D03*
D13*
X013721Y018991D03*
X013918Y018991D03*
X014115Y018991D03*
X014312Y018991D03*
X014509Y018991D03*
X014706Y018991D03*
X014902Y018991D03*
X015099Y018991D03*
X015296Y018991D03*
X015493Y018991D03*
X015690Y018991D03*
X015887Y018991D03*
X016083Y018991D03*
X016280Y018991D03*
X016477Y018991D03*
X016674Y018991D03*
X016871Y018991D03*
X017068Y018991D03*
X017265Y018991D03*
D14*
X017171Y016726D03*
X017171Y016057D03*
X009391Y015346D03*
X009391Y014677D03*
X008431Y014717D03*
X008431Y015386D03*
X008851Y004906D03*
X008851Y004237D03*
X007931Y004237D03*
X007931Y004906D03*
X007031Y004886D03*
X007031Y004217D03*
X009791Y004197D03*
X010691Y004177D03*
X010691Y004846D03*
X009791Y004866D03*
X011591Y004886D03*
X011591Y004217D03*
X012491Y004197D03*
X013411Y004217D03*
X013411Y004886D03*
X012491Y004866D03*
X014351Y004846D03*
X014351Y004177D03*
X015271Y004157D03*
X016171Y004157D03*
X016171Y004826D03*
X015271Y004826D03*
X017131Y004826D03*
X017131Y004157D03*
X018251Y003246D03*
X018251Y002577D03*
X025331Y003197D03*
X025331Y003866D03*
X030131Y003786D03*
X030131Y003117D03*
D15*
X006197Y001631D03*
X006866Y001631D03*
X006746Y007211D03*
X006077Y007211D03*
X006057Y008111D03*
X006726Y008111D03*
X006706Y009011D03*
X006037Y009011D03*
X006017Y009911D03*
X006686Y009911D03*
X006666Y010811D03*
X005997Y010811D03*
X005977Y011711D03*
X006646Y011711D03*
X006626Y012611D03*
X005957Y012611D03*
X005937Y013511D03*
X006606Y013511D03*
X006586Y014411D03*
X005917Y014411D03*
X005897Y015311D03*
X006566Y015311D03*
X010057Y018311D03*
X010726Y018311D03*
X010766Y019391D03*
X010097Y019391D03*
X010077Y020411D03*
X010746Y020411D03*
X010786Y021431D03*
X010117Y021431D03*
X020097Y019691D03*
X020766Y019691D03*
X020746Y018731D03*
X020077Y018731D03*
X020157Y020651D03*
X020826Y020651D03*
X020846Y021611D03*
X020177Y021611D03*
D16*
X016891Y012981D03*
X016891Y009241D03*
D17*
X018760Y009111D03*
X019863Y009111D03*
X019903Y012951D03*
X018800Y012951D03*
D18*
X024401Y012771D03*
X025311Y012771D03*
X026221Y012771D03*
X029221Y012671D03*
X030131Y012671D03*
X031041Y012671D03*
D19*
X030131Y010231D03*
X025311Y010331D03*
M02*
