G75*
G70*
%OFA0B0*%
%FSLAX24Y24*%
%IPPOS*%
%LPD*%
%AMOC8*
5,1,8,0,0,1.08239X$1,22.5*
%
%ADD10C,0.0560*%
%ADD11C,0.1384*%
%ADD12C,0.1581*%
%ADD13C,0.0594*%
%ADD14C,0.0520*%
%ADD15C,0.0260*%
%ADD16C,0.0120*%
%ADD17C,0.0280*%
%ADD18C,0.0100*%
D10*
X001631Y001791D03*
X002631Y001791D03*
X002631Y002791D03*
X001631Y002791D03*
X001631Y003791D03*
X002631Y003791D03*
X002631Y004791D03*
X001631Y004791D03*
X001631Y005791D03*
X002631Y005791D03*
X002631Y006791D03*
X001631Y006791D03*
X001631Y007791D03*
X002631Y007791D03*
X002631Y008791D03*
X001631Y008791D03*
X001631Y009791D03*
X002631Y009791D03*
X002631Y010791D03*
X001631Y010791D03*
X001631Y011791D03*
X002631Y011791D03*
X002631Y012791D03*
X001631Y012791D03*
X001631Y013791D03*
X002631Y013791D03*
X002631Y014791D03*
X001631Y014791D03*
X001631Y015791D03*
X002631Y015791D03*
X002631Y016791D03*
X001631Y016791D03*
X001631Y017791D03*
X002631Y017791D03*
X002631Y018791D03*
X001631Y018791D03*
X001631Y019791D03*
X002631Y019791D03*
X002631Y020791D03*
X001631Y020791D03*
D11*
X026951Y019311D03*
X028880Y017933D03*
D12*
X026951Y016949D03*
D13*
X026746Y003531D03*
X028517Y003531D03*
X028517Y000972D03*
X026746Y000972D03*
D14*
X025271Y006151D03*
X025271Y007151D03*
X030131Y007131D03*
X030131Y006131D03*
D15*
X028011Y009091D03*
X028311Y010291D03*
X028611Y012751D03*
X026691Y012751D03*
X023751Y012631D03*
X022311Y013171D03*
X021021Y013231D03*
X020451Y012931D03*
X019191Y014671D03*
X017871Y015751D03*
X016911Y015631D03*
X016911Y015091D03*
X016251Y015331D03*
X015171Y014791D03*
X014691Y014551D03*
X014631Y014191D03*
X015411Y014491D03*
X016011Y014371D03*
X015531Y013471D03*
X015531Y012511D03*
X015111Y012151D03*
X014091Y012091D03*
X013791Y011791D03*
X013491Y011431D03*
X013491Y011071D03*
X013491Y010711D03*
X013791Y010591D03*
X013491Y010351D03*
X014091Y010291D03*
X013911Y009571D03*
X013071Y008971D03*
X012111Y008971D03*
X010791Y008971D03*
X010671Y009991D03*
X010671Y010831D03*
X012111Y011851D03*
X012171Y012331D03*
X013071Y012331D03*
X013731Y012331D03*
X011091Y012271D03*
X010671Y012331D03*
X009531Y013711D03*
X008211Y013231D03*
X007791Y011791D03*
X007791Y010831D03*
X007851Y009691D03*
X007851Y008731D03*
X005991Y010351D03*
X005451Y010951D03*
X006231Y011251D03*
X005091Y010291D03*
X003831Y010591D03*
X003471Y009631D03*
X004311Y008251D03*
X001971Y008131D03*
X004131Y005131D03*
X006591Y004231D03*
X006471Y003151D03*
X007251Y002371D03*
X009051Y003151D03*
X009291Y002911D03*
X011091Y001891D03*
X012531Y002371D03*
X014451Y002371D03*
X014451Y001471D03*
X017451Y002551D03*
X020211Y004171D03*
X020811Y004891D03*
X022311Y004591D03*
X019071Y004531D03*
X017331Y005431D03*
X016431Y006451D03*
X017091Y006811D03*
X017451Y007111D03*
X017391Y007531D03*
X018351Y008251D03*
X020391Y009151D03*
X018231Y010531D03*
X015111Y010291D03*
X013551Y008011D03*
X014511Y007411D03*
X014871Y007891D03*
X015171Y007111D03*
X015411Y006211D03*
X013671Y006931D03*
X010611Y006631D03*
X008571Y006691D03*
X010251Y004651D03*
X003411Y001891D03*
X005571Y012991D03*
X003471Y016051D03*
X003831Y017431D03*
X003471Y018391D03*
X006231Y017431D03*
X009531Y016171D03*
X011391Y014791D03*
X012051Y018151D03*
X011211Y019351D03*
X013911Y019591D03*
X014391Y019591D03*
X014751Y019591D03*
X015111Y019771D03*
X015411Y019591D03*
X015411Y019951D03*
X017211Y019771D03*
X015591Y018391D03*
X015051Y018151D03*
X014391Y018151D03*
X013971Y018391D03*
X016371Y017371D03*
X017031Y017131D03*
X017391Y017131D03*
X016551Y016531D03*
X017331Y014371D03*
X021021Y015151D03*
X019911Y019231D03*
X019731Y020611D03*
X020151Y021151D03*
X011211Y021391D03*
X022731Y010291D03*
X024111Y009511D03*
X021171Y007531D03*
X025731Y003571D03*
X029811Y002731D03*
X031491Y012691D03*
D16*
X028311Y010291D02*
X022731Y010291D01*
X024111Y009511D02*
X022491Y007891D01*
X014871Y007891D01*
X021021Y012001D02*
X021021Y013231D01*
X021021Y015151D01*
X021021Y017401D01*
X020751Y017671D01*
X010551Y017671D01*
D17*
X010551Y017671D03*
X020751Y017671D03*
D18*
X020991Y012031D02*
X021021Y012001D01*
X022731Y010291D01*
X022671Y010351D01*
X020691Y010351D01*
X019311Y008971D01*
X013071Y008971D01*
M02*
